G04 MADE WITH FRITZING*
G04 WWW.FRITZING.ORG*
G04 DOUBLE SIDED*
G04 HOLES PLATED*
G04 CONTOUR ON CENTER OF CONTOUR VECTOR*
%ASAXBY*%
%FSLAX23Y23*%
%MOIN*%
%OFA0B0*%
%SFA1.0B1.0*%
%ADD10C,0.075000*%
%ADD11C,0.078000*%
%ADD12C,0.024000*%
%LNCOPPER0*%
G90*
G70*
G54D10*
X1147Y718D03*
X1447Y718D03*
X1147Y718D03*
X1447Y718D03*
X1469Y621D03*
X1469Y321D03*
X1469Y621D03*
X1469Y321D03*
G54D11*
X97Y504D03*
X763Y402D03*
X863Y402D03*
X763Y168D03*
X863Y168D03*
X1044Y737D03*
X1007Y366D03*
X417Y614D03*
X417Y514D03*
X417Y414D03*
X417Y314D03*
X417Y614D03*
X417Y514D03*
X417Y414D03*
X417Y314D03*
X517Y314D03*
X517Y414D03*
X517Y514D03*
X517Y614D03*
X1148Y321D03*
X1148Y421D03*
X1148Y521D03*
X1148Y621D03*
X1359Y321D03*
X1359Y421D03*
X1359Y521D03*
X1359Y621D03*
X1359Y321D03*
X1359Y421D03*
X1359Y521D03*
X1359Y621D03*
X1259Y621D03*
X1259Y521D03*
X1259Y421D03*
X1259Y321D03*
X61Y69D03*
X161Y69D03*
X261Y69D03*
X361Y69D03*
X461Y69D03*
X561Y69D03*
X661Y69D03*
X761Y69D03*
X861Y69D03*
X961Y69D03*
X1061Y69D03*
X1161Y69D03*
X1261Y69D03*
X1361Y69D03*
X1461Y69D03*
X64Y874D03*
X164Y874D03*
X264Y874D03*
X364Y874D03*
X464Y874D03*
X564Y874D03*
X664Y874D03*
X764Y874D03*
X864Y874D03*
X964Y874D03*
X1064Y874D03*
X1164Y874D03*
X1264Y874D03*
X1364Y874D03*
X1464Y874D03*
G54D12*
X996Y553D02*
X1125Y441D01*
D02*
X61Y175D02*
X616Y180D01*
D02*
X616Y180D02*
X616Y553D01*
D02*
X616Y553D02*
X996Y553D01*
D02*
X61Y99D02*
X61Y175D01*
D02*
X1228Y321D02*
X1178Y321D01*
D02*
X1468Y293D02*
X1462Y99D01*
D02*
X1389Y621D02*
X1441Y621D01*
D02*
X1453Y691D02*
X1463Y649D01*
D02*
X1359Y352D02*
X1359Y391D01*
D02*
X996Y233D02*
X1358Y231D01*
D02*
X1358Y231D02*
X1358Y291D01*
D02*
X1005Y336D02*
X996Y233D01*
D02*
X1557Y522D02*
X1519Y788D01*
D02*
X1044Y788D02*
X1044Y767D01*
D02*
X1519Y788D02*
X1044Y788D01*
D02*
X1389Y522D02*
X1557Y522D01*
D02*
X1147Y690D02*
X1147Y651D01*
D02*
X763Y372D02*
X763Y198D01*
D02*
X863Y372D02*
X863Y198D01*
D02*
X863Y138D02*
X862Y99D01*
D02*
X763Y138D02*
X762Y99D01*
D02*
X547Y614D02*
X1118Y621D01*
D02*
X387Y513D02*
X127Y505D01*
D02*
X1228Y421D02*
X1178Y421D01*
D02*
X1178Y521D02*
X1228Y521D01*
D02*
X1228Y621D02*
X1178Y621D01*
D02*
X486Y414D02*
X447Y414D01*
D02*
X486Y514D02*
X447Y514D01*
D02*
X486Y614D02*
X447Y614D01*
D02*
X486Y314D02*
X447Y314D01*
G04 End of Copper0*
M02*