G04 MADE WITH FRITZING*
G04 WWW.FRITZING.ORG*
G04 DOUBLE SIDED*
G04 HOLES PLATED*
G04 CONTOUR ON CENTER OF CONTOUR VECTOR*
%ASAXBY*%
%FSLAX23Y23*%
%MOIN*%
%OFA0B0*%
%SFA1.0B1.0*%
%ADD10C,0.010000*%
%ADD11R,0.001000X0.001000*%
%LNSILK0*%
G90*
G70*
G54D10*
X1222Y694D02*
X1372Y694D01*
D02*
X1372Y694D02*
X1372Y744D01*
D02*
X1372Y744D02*
X1222Y744D01*
D02*
X1222Y744D02*
X1222Y694D01*
D02*
X1445Y547D02*
X1445Y397D01*
D02*
X1445Y397D02*
X1495Y397D01*
D02*
X1495Y397D02*
X1495Y547D01*
D02*
X1495Y547D02*
X1445Y547D01*
G54D11*
X997Y847D02*
X1000Y847D01*
X930Y846D02*
X930Y846D01*
X997Y846D02*
X1000Y846D01*
X930Y845D02*
X931Y845D01*
X996Y845D02*
X1000Y845D01*
X930Y844D02*
X932Y844D01*
X995Y844D02*
X1000Y844D01*
X930Y843D02*
X933Y843D01*
X994Y843D02*
X1000Y843D01*
X930Y842D02*
X934Y842D01*
X993Y842D02*
X1000Y842D01*
X930Y841D02*
X935Y841D01*
X991Y841D02*
X1000Y841D01*
X930Y840D02*
X937Y840D01*
X994Y840D02*
X1000Y840D01*
X930Y839D02*
X937Y839D01*
X994Y839D02*
X1000Y839D01*
X930Y838D02*
X937Y838D01*
X994Y838D02*
X1000Y838D01*
X930Y837D02*
X937Y837D01*
X994Y837D02*
X1000Y837D01*
X930Y836D02*
X937Y836D01*
X994Y836D02*
X1000Y836D01*
X930Y835D02*
X937Y835D01*
X994Y835D02*
X1000Y835D01*
X930Y834D02*
X937Y834D01*
X994Y834D02*
X1000Y834D01*
X930Y833D02*
X937Y833D01*
X994Y833D02*
X1000Y833D01*
X930Y832D02*
X937Y832D01*
X971Y832D02*
X973Y832D01*
X994Y832D02*
X1000Y832D01*
X930Y831D02*
X937Y831D01*
X967Y831D02*
X974Y831D01*
X994Y831D02*
X1000Y831D01*
X930Y830D02*
X937Y830D01*
X968Y830D02*
X1000Y830D01*
X930Y829D02*
X937Y829D01*
X968Y829D02*
X1000Y829D01*
X930Y828D02*
X937Y828D01*
X969Y828D02*
X1000Y828D01*
X930Y827D02*
X937Y827D01*
X969Y827D02*
X1000Y827D01*
X930Y826D02*
X937Y826D01*
X970Y826D02*
X1000Y826D01*
X930Y825D02*
X937Y825D01*
X972Y825D02*
X1000Y825D01*
X930Y824D02*
X937Y824D01*
X973Y824D02*
X1000Y824D01*
X930Y823D02*
X937Y823D01*
X981Y823D02*
X989Y823D01*
X994Y823D02*
X1000Y823D01*
X930Y822D02*
X937Y822D01*
X981Y822D02*
X988Y822D01*
X994Y822D02*
X1000Y822D01*
X930Y821D02*
X937Y821D01*
X980Y821D02*
X987Y821D01*
X994Y821D02*
X1000Y821D01*
X930Y820D02*
X937Y820D01*
X980Y820D02*
X987Y820D01*
X994Y820D02*
X1000Y820D01*
X930Y819D02*
X937Y819D01*
X979Y819D02*
X986Y819D01*
X994Y819D02*
X1000Y819D01*
X919Y818D02*
X921Y818D01*
X930Y818D02*
X937Y818D01*
X978Y818D02*
X986Y818D01*
X994Y818D02*
X1000Y818D01*
X917Y817D02*
X922Y817D01*
X930Y817D02*
X937Y817D01*
X978Y817D02*
X985Y817D01*
X994Y817D02*
X1000Y817D01*
X917Y816D02*
X922Y816D01*
X930Y816D02*
X937Y816D01*
X977Y816D02*
X984Y816D01*
X994Y816D02*
X1000Y816D01*
X917Y815D02*
X923Y815D01*
X930Y815D02*
X937Y815D01*
X977Y815D02*
X984Y815D01*
X994Y815D02*
X1000Y815D01*
X917Y814D02*
X923Y814D01*
X930Y814D02*
X937Y814D01*
X976Y814D02*
X983Y814D01*
X994Y814D02*
X1000Y814D01*
X917Y813D02*
X923Y813D01*
X930Y813D02*
X937Y813D01*
X975Y813D02*
X983Y813D01*
X994Y813D02*
X1000Y813D01*
X917Y812D02*
X923Y812D01*
X930Y812D02*
X937Y812D01*
X975Y812D02*
X982Y812D01*
X994Y812D02*
X1000Y812D01*
X917Y811D02*
X923Y811D01*
X930Y811D02*
X937Y811D01*
X974Y811D02*
X982Y811D01*
X994Y811D02*
X1000Y811D01*
X917Y810D02*
X923Y810D01*
X930Y810D02*
X937Y810D01*
X974Y810D02*
X981Y810D01*
X994Y810D02*
X1000Y810D01*
X917Y809D02*
X923Y809D01*
X930Y809D02*
X937Y809D01*
X973Y809D02*
X980Y809D01*
X994Y809D02*
X1000Y809D01*
X917Y808D02*
X923Y808D01*
X930Y808D02*
X937Y808D01*
X973Y808D02*
X980Y808D01*
X994Y808D02*
X1000Y808D01*
X917Y807D02*
X923Y807D01*
X930Y807D02*
X937Y807D01*
X972Y807D02*
X979Y807D01*
X994Y807D02*
X1000Y807D01*
X917Y806D02*
X923Y806D01*
X930Y806D02*
X937Y806D01*
X971Y806D02*
X979Y806D01*
X994Y806D02*
X1000Y806D01*
X917Y805D02*
X923Y805D01*
X930Y805D02*
X937Y805D01*
X971Y805D02*
X978Y805D01*
X994Y805D02*
X1000Y805D01*
X917Y804D02*
X923Y804D01*
X930Y804D02*
X937Y804D01*
X970Y804D02*
X977Y804D01*
X994Y804D02*
X1000Y804D01*
X917Y803D02*
X923Y803D01*
X930Y803D02*
X937Y803D01*
X970Y803D02*
X977Y803D01*
X994Y803D02*
X1000Y803D01*
X917Y802D02*
X923Y802D01*
X930Y802D02*
X937Y802D01*
X969Y802D02*
X976Y802D01*
X994Y802D02*
X1000Y802D01*
X917Y801D02*
X923Y801D01*
X930Y801D02*
X937Y801D01*
X968Y801D02*
X976Y801D01*
X994Y801D02*
X1000Y801D01*
X917Y800D02*
X949Y800D01*
X968Y800D02*
X975Y800D01*
X994Y800D02*
X1000Y800D01*
X917Y799D02*
X950Y799D01*
X967Y799D02*
X975Y799D01*
X994Y799D02*
X1000Y799D01*
X917Y798D02*
X950Y798D01*
X967Y798D02*
X974Y798D01*
X994Y798D02*
X1000Y798D01*
X917Y797D02*
X950Y797D01*
X967Y797D02*
X973Y797D01*
X994Y797D02*
X1000Y797D01*
X917Y796D02*
X950Y796D01*
X967Y796D02*
X973Y796D01*
X995Y796D02*
X1000Y796D01*
X918Y795D02*
X949Y795D01*
X968Y795D02*
X972Y795D01*
X995Y795D02*
X1000Y795D01*
X919Y794D02*
X948Y794D01*
X969Y794D02*
X971Y794D01*
X997Y794D02*
X998Y794D01*
X1189Y725D02*
X1220Y725D01*
X1372Y725D02*
X1404Y725D01*
X1189Y724D02*
X1220Y724D01*
X1371Y724D02*
X1403Y724D01*
X1189Y723D02*
X1220Y723D01*
X1371Y723D02*
X1403Y723D01*
X1189Y722D02*
X1220Y722D01*
X1371Y722D02*
X1403Y722D01*
X1189Y721D02*
X1220Y721D01*
X1371Y721D02*
X1403Y721D01*
X1189Y720D02*
X1220Y720D01*
X1371Y720D02*
X1403Y720D01*
X1189Y719D02*
X1220Y719D01*
X1371Y719D02*
X1403Y719D01*
X1189Y718D02*
X1220Y718D01*
X1371Y718D02*
X1403Y718D01*
X1189Y717D02*
X1220Y717D01*
X1371Y717D02*
X1403Y717D01*
X1189Y716D02*
X1220Y716D01*
X1371Y716D02*
X1403Y716D01*
X1203Y645D02*
X1219Y645D01*
X1200Y644D02*
X1219Y644D01*
X1199Y643D02*
X1218Y643D01*
X1198Y642D02*
X1218Y642D01*
X1197Y641D02*
X1217Y641D01*
X1196Y640D02*
X1217Y640D01*
X1195Y639D02*
X1216Y639D01*
X1195Y638D02*
X1203Y638D01*
X1195Y637D02*
X1202Y637D01*
X1195Y636D02*
X1201Y636D01*
X1195Y635D02*
X1201Y635D01*
X1195Y634D02*
X1201Y634D01*
X1195Y633D02*
X1201Y633D01*
X1195Y632D02*
X1201Y632D01*
X1195Y631D02*
X1201Y631D01*
X1195Y630D02*
X1201Y630D01*
X1195Y629D02*
X1201Y629D01*
X1195Y628D02*
X1202Y628D01*
X1195Y627D02*
X1213Y627D01*
X1196Y626D02*
X1213Y626D01*
X1196Y625D02*
X1213Y625D01*
X1197Y624D02*
X1213Y624D01*
X1198Y623D02*
X1213Y623D01*
X1200Y622D02*
X1213Y622D01*
X1202Y621D02*
X1213Y621D01*
X1209Y620D02*
X1213Y620D01*
X1208Y619D02*
X1213Y619D01*
X1208Y618D02*
X1213Y618D01*
X1207Y617D02*
X1214Y617D01*
X1206Y616D02*
X1214Y616D01*
X1206Y615D02*
X1213Y615D01*
X1205Y614D02*
X1213Y614D01*
X1205Y613D02*
X1212Y613D01*
X1204Y612D02*
X1211Y612D01*
X1204Y611D02*
X1211Y611D01*
X1203Y610D02*
X1210Y610D01*
X1202Y609D02*
X1210Y609D01*
X1202Y608D02*
X1209Y608D01*
X1201Y607D02*
X1208Y607D01*
X1201Y606D02*
X1208Y606D01*
X1200Y605D02*
X1207Y605D01*
X1199Y604D02*
X1207Y604D01*
X1199Y603D02*
X1206Y603D01*
X1198Y602D02*
X1205Y602D01*
X1198Y601D02*
X1205Y601D01*
X1197Y600D02*
X1204Y600D01*
X1197Y599D02*
X1204Y599D01*
X1196Y598D02*
X1203Y598D01*
X1195Y597D02*
X1203Y597D01*
X1195Y596D02*
X1202Y596D01*
X1222Y596D02*
X1222Y596D01*
X1195Y595D02*
X1201Y595D01*
X1222Y595D02*
X1223Y595D01*
X1195Y594D02*
X1201Y594D01*
X1222Y594D02*
X1224Y594D01*
X1195Y593D02*
X1200Y593D01*
X1223Y593D02*
X1225Y593D01*
X1196Y592D02*
X1199Y592D01*
X1223Y592D02*
X1226Y592D01*
X1464Y580D02*
X1465Y580D01*
X1472Y580D02*
X1473Y580D01*
X1464Y579D02*
X1473Y579D01*
X1464Y578D02*
X1473Y578D01*
X1464Y577D02*
X1473Y577D01*
X1464Y576D02*
X1473Y576D01*
X1464Y575D02*
X1473Y575D01*
X1464Y574D02*
X1473Y574D01*
X1464Y573D02*
X1473Y573D01*
X1464Y572D02*
X1473Y572D01*
X1464Y571D02*
X1473Y571D01*
X1464Y570D02*
X1473Y570D01*
X1464Y569D02*
X1473Y569D01*
X1464Y568D02*
X1473Y568D01*
X1464Y567D02*
X1473Y567D01*
X1464Y566D02*
X1473Y566D01*
X1464Y565D02*
X1473Y565D01*
X1464Y564D02*
X1473Y564D01*
X1464Y563D02*
X1473Y563D01*
X1464Y562D02*
X1473Y562D01*
X1464Y561D02*
X1473Y561D01*
X1464Y560D02*
X1473Y560D01*
X1464Y559D02*
X1473Y559D01*
X1464Y558D02*
X1473Y558D01*
X1464Y557D02*
X1473Y557D01*
X1464Y556D02*
X1473Y556D01*
X1464Y555D02*
X1473Y555D01*
X1464Y554D02*
X1473Y554D01*
X1464Y553D02*
X1473Y553D01*
X1464Y552D02*
X1473Y552D01*
X1464Y551D02*
X1473Y551D01*
X1464Y550D02*
X1473Y550D01*
X1464Y549D02*
X1473Y549D01*
X1465Y548D02*
X1473Y548D01*
X1464Y397D02*
X1473Y397D01*
X1464Y396D02*
X1473Y396D01*
X1464Y395D02*
X1473Y395D01*
X1464Y394D02*
X1473Y394D01*
X1464Y393D02*
X1473Y393D01*
X1464Y392D02*
X1473Y392D01*
X1464Y391D02*
X1473Y391D01*
X1464Y390D02*
X1473Y390D01*
X1464Y389D02*
X1473Y389D01*
X1464Y388D02*
X1473Y388D01*
X1464Y387D02*
X1473Y387D01*
X1464Y386D02*
X1473Y386D01*
X1464Y385D02*
X1473Y385D01*
X1464Y384D02*
X1473Y384D01*
X1464Y383D02*
X1473Y383D01*
X1464Y382D02*
X1473Y382D01*
X1464Y381D02*
X1473Y381D01*
X1464Y380D02*
X1473Y380D01*
X1464Y379D02*
X1473Y379D01*
X1464Y378D02*
X1473Y378D01*
X1464Y377D02*
X1473Y377D01*
X1464Y376D02*
X1473Y376D01*
X1464Y375D02*
X1473Y375D01*
X1464Y374D02*
X1473Y374D01*
X1464Y373D02*
X1473Y373D01*
X1464Y372D02*
X1473Y372D01*
X1464Y371D02*
X1473Y371D01*
X1464Y370D02*
X1473Y370D01*
X1464Y369D02*
X1473Y369D01*
X1464Y368D02*
X1473Y368D01*
X1464Y367D02*
X1473Y367D01*
X1464Y366D02*
X1473Y366D01*
X1464Y365D02*
X1473Y365D01*
D02*
G04 End of Silk0*
M02*