; NON-PLATED HOLES START AT T1
; THROUGH (PLATED) HOLES START AT T100
M48
INCH
T100C0.035000
T101C0.038000
%
T100
X014471Y007184
X011471Y007184
X014693Y006211
X014693Y003211
T101
X008640Y008742
X003640Y008742
X013612Y000686
X012585Y006214
X008633Y001678
X005640Y008742
X003612Y000686
X007633Y001678
X000612Y000686
X005166Y004136
X004166Y003136
X014612Y000686
X013585Y006214
X002640Y008742
X012585Y003214
X012585Y004214
X005612Y000686
X004166Y006136
X004166Y004136
X010640Y008742
X001640Y008742
X006640Y008742
X012612Y000686
X012585Y005214
X011640Y008742
X007640Y008742
X002612Y000686
X011476Y006209
X010612Y000686
X004166Y005136
X012640Y008742
X014640Y008742
X011476Y005209
X006612Y000686
X011612Y000686
X005166Y003136
X007612Y000686
X011476Y004209
X007633Y004021
X011476Y003209
X013585Y005214
X005166Y006136
X001612Y000686
X010070Y003657
X010443Y007369
X009640Y008742
X004612Y000686
X013585Y004214
X013640Y008742
X004640Y008742
X000971Y005038
X013585Y003214
X008633Y004021
X005166Y005136
X009612Y000686
X000640Y008742
X008612Y000686
T00
M30
