G04 MADE WITH FRITZING*
G04 WWW.FRITZING.ORG*
G04 DOUBLE SIDED*
G04 HOLES PLATED*
G04 CONTOUR ON CENTER OF CONTOUR VECTOR*
%ASAXBY*%
%FSLAX23Y23*%
%MOIN*%
%OFA0B0*%
%SFA1.0B1.0*%
%ADD10C,0.085000*%
%ADD11C,0.088000*%
%LNMASK0*%
G90*
G70*
G54D10*
X1147Y718D03*
X1447Y718D03*
X1147Y718D03*
X1447Y718D03*
X1469Y621D03*
X1469Y321D03*
X1469Y621D03*
X1469Y321D03*
G54D11*
X97Y504D03*
X763Y402D03*
X863Y402D03*
X763Y168D03*
X863Y168D03*
X1044Y737D03*
X1007Y366D03*
X417Y614D03*
X417Y514D03*
X417Y414D03*
X417Y314D03*
X417Y614D03*
X417Y514D03*
X417Y414D03*
X417Y314D03*
X517Y314D03*
X517Y414D03*
X517Y514D03*
X517Y614D03*
X1148Y321D03*
X1148Y421D03*
X1148Y521D03*
X1148Y621D03*
X1359Y321D03*
X1359Y421D03*
X1359Y521D03*
X1359Y621D03*
X1359Y321D03*
X1359Y421D03*
X1359Y521D03*
X1359Y621D03*
X1259Y621D03*
X1259Y521D03*
X1259Y421D03*
X1259Y321D03*
X61Y69D03*
X161Y69D03*
X261Y69D03*
X361Y69D03*
X461Y69D03*
X561Y69D03*
X661Y69D03*
X761Y69D03*
X861Y69D03*
X961Y69D03*
X1061Y69D03*
X1161Y69D03*
X1261Y69D03*
X1361Y69D03*
X1461Y69D03*
X64Y874D03*
X164Y874D03*
X264Y874D03*
X364Y874D03*
X464Y874D03*
X564Y874D03*
X664Y874D03*
X764Y874D03*
X864Y874D03*
X964Y874D03*
X1064Y874D03*
X1164Y874D03*
X1264Y874D03*
X1364Y874D03*
X1464Y874D03*
G04 End of Mask0*
M02*