G04 MADE WITH FRITZING*
G04 WWW.FRITZING.ORG*
G04 DOUBLE SIDED*
G04 HOLES PLATED*
G04 CONTOUR ON CENTER OF CONTOUR VECTOR*
%ASAXBY*%
%FSLAX23Y23*%
%MOIN*%
%OFA0B0*%
%SFA1.0B1.0*%
%ADD10C,0.075000*%
%ADD11C,0.070000*%
%ADD12C,0.078000*%
%ADD13R,0.070000X0.069972*%
%ADD14C,0.024000*%
%LNCOPPER1*%
G90*
G70*
G54D10*
X385Y673D03*
X385Y373D03*
X385Y673D03*
X385Y373D03*
X790Y73D03*
X390Y73D03*
X790Y73D03*
X390Y73D03*
G54D11*
X1491Y873D03*
X1391Y873D03*
X1291Y873D03*
X1191Y873D03*
X1091Y873D03*
X991Y873D03*
X891Y873D03*
X791Y873D03*
X691Y873D03*
X591Y873D03*
X491Y873D03*
X391Y873D03*
X291Y873D03*
X191Y873D03*
X91Y873D03*
X1491Y273D03*
X1391Y273D03*
X1291Y273D03*
X1191Y273D03*
X1091Y273D03*
X991Y273D03*
X891Y273D03*
X791Y273D03*
X691Y273D03*
X591Y273D03*
X491Y273D03*
X391Y273D03*
X291Y273D03*
X191Y273D03*
X91Y273D03*
G54D12*
X1440Y523D03*
X1940Y373D03*
X1740Y373D03*
X990Y373D03*
X690Y373D03*
X490Y373D03*
X590Y373D03*
X1090Y773D03*
X2090Y823D03*
X1990Y823D03*
X2090Y573D03*
X2190Y573D03*
X1790Y623D03*
X2090Y473D03*
X2190Y473D03*
X1790Y173D03*
X1890Y173D03*
X1990Y173D03*
X1790Y1023D03*
X1890Y1023D03*
X1990Y1023D03*
X2090Y1023D03*
X2190Y1023D03*
X1790Y1123D03*
X1890Y1123D03*
X1990Y1123D03*
X2090Y1123D03*
X2190Y1123D03*
X1790Y73D03*
X1890Y73D03*
X1990Y73D03*
X2090Y73D03*
X2190Y73D03*
X1491Y973D03*
X1391Y973D03*
X1291Y973D03*
X1191Y973D03*
X1091Y973D03*
X991Y973D03*
X891Y973D03*
X791Y973D03*
X691Y973D03*
X591Y973D03*
X491Y973D03*
X391Y973D03*
X291Y973D03*
X191Y973D03*
X91Y973D03*
X1491Y173D03*
X1391Y173D03*
X1291Y173D03*
X1191Y173D03*
X1091Y173D03*
X991Y173D03*
X891Y173D03*
X791Y173D03*
X691Y173D03*
X591Y173D03*
X491Y173D03*
X391Y173D03*
X291Y173D03*
X191Y173D03*
X91Y173D03*
G54D13*
X1491Y873D03*
G54D14*
X1990Y673D02*
X1819Y630D01*
D02*
X2189Y673D02*
X1990Y673D01*
D02*
X2190Y503D02*
X2189Y673D01*
D02*
X1091Y723D02*
X1091Y844D01*
D02*
X1391Y723D02*
X1091Y723D01*
D02*
X1740Y924D02*
X1391Y723D01*
D02*
X2189Y924D02*
X1740Y924D01*
D02*
X2190Y993D02*
X2189Y924D01*
D02*
X2091Y723D02*
X2090Y793D01*
D02*
X1290Y523D02*
X1641Y723D01*
D02*
X1641Y723D02*
X2091Y723D01*
D02*
X591Y302D02*
X590Y523D01*
D02*
X590Y523D02*
X1290Y523D01*
D02*
X489Y624D02*
X1339Y624D01*
D02*
X1339Y624D02*
X1690Y823D01*
D02*
X1690Y823D02*
X1990Y823D01*
D02*
X491Y302D02*
X489Y624D01*
D02*
X2090Y543D02*
X2090Y503D01*
D02*
X1140Y474D02*
X690Y474D01*
D02*
X1290Y423D02*
X1140Y474D01*
D02*
X1489Y423D02*
X1290Y423D01*
D02*
X1590Y474D02*
X1489Y423D01*
D02*
X2039Y373D02*
X1990Y474D01*
D02*
X1690Y273D02*
X1540Y373D01*
D02*
X1540Y373D02*
X1020Y373D01*
D02*
X1890Y1053D02*
X1890Y1093D01*
D02*
X1790Y1053D02*
X1790Y1093D01*
D02*
X1990Y103D02*
X1990Y143D01*
D02*
X1890Y103D02*
X1890Y143D01*
D02*
X1790Y143D02*
X1790Y103D01*
D02*
X1890Y273D02*
X1690Y273D01*
D02*
X1890Y203D02*
X1890Y273D01*
D02*
X991Y302D02*
X990Y343D01*
D02*
X1990Y474D02*
X1590Y474D01*
D02*
X1997Y202D02*
X2039Y373D01*
D02*
X690Y474D02*
X690Y403D01*
D02*
X690Y343D02*
X691Y302D01*
D02*
X1641Y624D02*
X1760Y623D01*
D02*
X1467Y537D02*
X1641Y624D01*
D02*
X1910Y373D02*
X1770Y373D01*
D02*
X2190Y1053D02*
X2190Y1093D01*
D02*
X2090Y1053D02*
X2090Y1093D01*
D02*
X1990Y1053D02*
X1990Y1093D01*
D02*
X791Y203D02*
X791Y244D01*
D02*
X691Y203D02*
X691Y244D01*
D02*
X391Y203D02*
X391Y244D01*
D02*
X491Y203D02*
X491Y244D01*
D02*
X591Y203D02*
X591Y244D01*
D02*
X1491Y203D02*
X1491Y244D01*
D02*
X1391Y203D02*
X1391Y244D01*
D02*
X1291Y203D02*
X1291Y244D01*
D02*
X1191Y203D02*
X1191Y244D01*
D02*
X1091Y203D02*
X1091Y244D01*
D02*
X991Y203D02*
X991Y244D01*
D02*
X891Y203D02*
X891Y244D01*
D02*
X691Y902D02*
X691Y943D01*
D02*
X591Y902D02*
X591Y943D01*
D02*
X491Y902D02*
X491Y943D01*
D02*
X391Y902D02*
X391Y943D01*
D02*
X291Y902D02*
X291Y943D01*
D02*
X191Y902D02*
X191Y943D01*
D02*
X91Y902D02*
X91Y943D01*
D02*
X91Y203D02*
X91Y244D01*
D02*
X191Y203D02*
X191Y244D01*
D02*
X291Y203D02*
X291Y244D01*
D02*
X1491Y902D02*
X1491Y943D01*
D02*
X1391Y902D02*
X1391Y943D01*
D02*
X1291Y902D02*
X1291Y943D01*
D02*
X1191Y902D02*
X1191Y943D01*
D02*
X1091Y902D02*
X1091Y943D01*
D02*
X991Y902D02*
X991Y943D01*
D02*
X891Y902D02*
X891Y943D01*
D02*
X791Y902D02*
X791Y943D01*
D02*
X391Y143D02*
X390Y102D01*
D02*
X386Y345D02*
X389Y302D01*
G04 End of Copper1*
M02*