G04 MADE WITH FRITZING*
G04 WWW.FRITZING.ORG*
G04 DOUBLE SIDED*
G04 HOLES PLATED*
G04 CONTOUR ON CENTER OF CONTOUR VECTOR*
%ASAXBY*%
%FSLAX23Y23*%
%MOIN*%
%OFA0B0*%
%SFA1.0B1.0*%
%ADD10C,0.085000*%
%ADD11C,0.080000*%
%ADD12C,0.088000*%
%ADD13R,0.080000X0.079972*%
%LNMASK1*%
G90*
G70*
G54D10*
X385Y673D03*
X385Y373D03*
X385Y673D03*
X385Y373D03*
X790Y73D03*
X390Y73D03*
X790Y73D03*
X390Y73D03*
G54D11*
X1491Y873D03*
X1391Y873D03*
X1291Y873D03*
X1191Y873D03*
X1091Y873D03*
X991Y873D03*
X891Y873D03*
X791Y873D03*
X691Y873D03*
X591Y873D03*
X491Y873D03*
X391Y873D03*
X291Y873D03*
X191Y873D03*
X91Y873D03*
X1491Y273D03*
X1391Y273D03*
X1291Y273D03*
X1191Y273D03*
X1091Y273D03*
X991Y273D03*
X891Y273D03*
X791Y273D03*
X691Y273D03*
X591Y273D03*
X491Y273D03*
X391Y273D03*
X291Y273D03*
X191Y273D03*
X91Y273D03*
G54D12*
X1440Y523D03*
X1940Y373D03*
X1740Y373D03*
X990Y373D03*
X690Y373D03*
X490Y373D03*
X590Y373D03*
X1090Y773D03*
X2090Y823D03*
X1990Y823D03*
X2090Y573D03*
X2190Y573D03*
X1790Y623D03*
X2090Y473D03*
X2190Y473D03*
X1790Y173D03*
X1890Y173D03*
X1990Y173D03*
X1790Y1023D03*
X1890Y1023D03*
X1990Y1023D03*
X2090Y1023D03*
X2190Y1023D03*
X1790Y1123D03*
X1890Y1123D03*
X1990Y1123D03*
X2090Y1123D03*
X2190Y1123D03*
X1790Y73D03*
X1890Y73D03*
X1990Y73D03*
X2090Y73D03*
X2190Y73D03*
X1491Y973D03*
X1391Y973D03*
X1291Y973D03*
X1191Y973D03*
X1091Y973D03*
X991Y973D03*
X891Y973D03*
X791Y973D03*
X691Y973D03*
X591Y973D03*
X491Y973D03*
X391Y973D03*
X291Y973D03*
X191Y973D03*
X91Y973D03*
X1491Y173D03*
X1391Y173D03*
X1291Y173D03*
X1191Y173D03*
X1091Y173D03*
X991Y173D03*
X891Y173D03*
X791Y173D03*
X691Y173D03*
X591Y173D03*
X491Y173D03*
X391Y173D03*
X291Y173D03*
X191Y173D03*
X91Y173D03*
G54D13*
X1491Y873D03*
G04 End of Mask1*
M02*