G04 MADE WITH FRITZING*
G04 WWW.FRITZING.ORG*
G04 DOUBLE SIDED*
G04 HOLES PLATED*
G04 CONTOUR ON CENTER OF CONTOUR VECTOR*
%ASAXBY*%
%FSLAX23Y23*%
%MOIN*%
%OFA0B0*%
%SFA1.0B1.0*%
%ADD10C,0.008*%
%LNCONTOUR*%
G90*
G70*
G54D10*
X64Y1183D02*
X65Y1183D01*
X66Y1183D01*
X67Y1183D01*
X68Y1183D01*
X69Y1183D01*
X70Y1183D01*
X71Y1183D01*
X72Y1183D01*
X73Y1183D01*
X74Y1183D01*
X75Y1183D01*
X76Y1183D01*
X77Y1183D01*
X78Y1183D01*
X79Y1183D01*
X80Y1183D01*
X81Y1183D01*
X82Y1183D01*
X83Y1183D01*
X84Y1183D01*
X85Y1183D01*
X86Y1183D01*
X87Y1183D01*
X88Y1183D01*
X89Y1183D01*
X90Y1183D01*
X91Y1183D01*
X92Y1183D01*
X93Y1183D01*
X94Y1183D01*
X95Y1183D01*
X96Y1183D01*
X97Y1183D01*
X98Y1183D01*
X99Y1183D01*
X100Y1183D01*
X101Y1183D01*
X102Y1183D01*
X103Y1183D01*
X104Y1183D01*
X105Y1183D01*
X106Y1183D01*
X107Y1183D01*
X108Y1183D01*
X109Y1183D01*
X110Y1183D01*
X111Y1183D01*
X112Y1183D01*
X113Y1183D01*
X114Y1183D01*
X115Y1183D01*
X116Y1183D01*
X117Y1183D01*
X118Y1183D01*
X119Y1183D01*
X120Y1183D01*
X121Y1183D01*
X122Y1183D01*
X123Y1183D01*
X124Y1183D01*
X125Y1183D01*
X126Y1183D01*
X127Y1183D01*
X128Y1183D01*
X129Y1183D01*
X130Y1183D01*
X131Y1183D01*
X132Y1183D01*
X133Y1183D01*
X134Y1183D01*
X135Y1183D01*
X136Y1183D01*
X137Y1183D01*
X138Y1183D01*
X139Y1183D01*
X140Y1183D01*
X141Y1183D01*
X142Y1183D01*
X143Y1183D01*
X144Y1183D01*
X145Y1183D01*
X146Y1183D01*
X147Y1183D01*
X148Y1183D01*
X149Y1183D01*
X150Y1183D01*
X151Y1183D01*
X152Y1183D01*
X153Y1183D01*
X154Y1183D01*
X155Y1183D01*
X156Y1183D01*
X157Y1183D01*
X158Y1183D01*
X159Y1183D01*
X160Y1183D01*
X161Y1183D01*
X162Y1183D01*
X163Y1183D01*
X164Y1183D01*
X165Y1183D01*
X166Y1183D01*
X167Y1183D01*
X168Y1183D01*
X169Y1183D01*
X170Y1183D01*
X171Y1183D01*
X172Y1183D01*
X173Y1183D01*
X174Y1183D01*
X175Y1183D01*
X176Y1183D01*
X177Y1183D01*
X178Y1183D01*
X179Y1183D01*
X180Y1183D01*
X181Y1183D01*
X182Y1183D01*
X183Y1183D01*
X184Y1183D01*
X185Y1183D01*
X186Y1183D01*
X187Y1183D01*
X188Y1183D01*
X189Y1183D01*
X190Y1183D01*
X191Y1183D01*
X192Y1183D01*
X193Y1183D01*
X194Y1183D01*
X195Y1183D01*
X196Y1183D01*
X197Y1183D01*
X198Y1183D01*
X199Y1183D01*
X200Y1183D01*
X201Y1183D01*
X202Y1183D01*
X203Y1183D01*
X204Y1183D01*
X205Y1183D01*
X206Y1183D01*
X207Y1183D01*
X208Y1183D01*
X209Y1183D01*
X210Y1183D01*
X211Y1183D01*
X212Y1183D01*
X213Y1183D01*
X214Y1183D01*
X215Y1183D01*
X216Y1183D01*
X217Y1183D01*
X218Y1183D01*
X219Y1183D01*
X220Y1183D01*
X221Y1183D01*
X222Y1183D01*
X223Y1183D01*
X224Y1183D01*
X225Y1183D01*
X226Y1183D01*
X227Y1183D01*
X228Y1183D01*
X229Y1183D01*
X230Y1183D01*
X231Y1183D01*
X232Y1183D01*
X233Y1183D01*
X234Y1183D01*
X235Y1183D01*
X236Y1183D01*
X237Y1183D01*
X238Y1183D01*
X239Y1183D01*
X240Y1183D01*
X241Y1183D01*
X242Y1183D01*
X243Y1183D01*
X244Y1183D01*
X245Y1183D01*
X246Y1183D01*
X247Y1183D01*
X248Y1183D01*
X249Y1183D01*
X250Y1183D01*
X251Y1183D01*
X252Y1183D01*
X253Y1183D01*
X254Y1183D01*
X255Y1183D01*
X256Y1183D01*
X257Y1183D01*
X258Y1183D01*
X259Y1183D01*
X260Y1183D01*
X261Y1183D01*
X262Y1183D01*
X263Y1183D01*
X264Y1183D01*
X265Y1183D01*
X266Y1183D01*
X267Y1183D01*
X268Y1183D01*
X269Y1183D01*
X270Y1183D01*
X271Y1183D01*
X272Y1183D01*
X273Y1183D01*
X274Y1183D01*
X275Y1183D01*
X276Y1183D01*
X277Y1183D01*
X278Y1183D01*
X279Y1183D01*
X280Y1183D01*
X281Y1183D01*
X282Y1183D01*
X283Y1183D01*
X284Y1183D01*
X285Y1183D01*
X286Y1183D01*
X287Y1183D01*
X288Y1183D01*
X289Y1183D01*
X290Y1183D01*
X291Y1183D01*
X292Y1183D01*
X293Y1183D01*
X294Y1183D01*
X295Y1183D01*
X296Y1183D01*
X297Y1183D01*
X298Y1183D01*
X299Y1183D01*
X300Y1183D01*
X301Y1183D01*
X302Y1183D01*
X303Y1183D01*
X304Y1183D01*
X305Y1183D01*
X306Y1183D01*
X307Y1183D01*
X308Y1183D01*
X309Y1183D01*
X310Y1183D01*
X311Y1183D01*
X312Y1183D01*
X313Y1183D01*
X314Y1183D01*
X315Y1183D01*
X316Y1183D01*
X317Y1183D01*
X318Y1183D01*
X319Y1183D01*
X320Y1183D01*
X321Y1183D01*
X322Y1183D01*
X323Y1183D01*
X324Y1183D01*
X325Y1183D01*
X326Y1183D01*
X327Y1183D01*
X328Y1183D01*
X329Y1183D01*
X330Y1183D01*
X331Y1183D01*
X332Y1183D01*
X333Y1183D01*
X334Y1183D01*
X335Y1183D01*
X336Y1183D01*
X337Y1183D01*
X338Y1183D01*
X339Y1183D01*
X340Y1183D01*
X341Y1183D01*
X342Y1183D01*
X343Y1183D01*
X344Y1183D01*
X345Y1183D01*
X346Y1183D01*
X347Y1183D01*
X348Y1183D01*
X349Y1183D01*
X350Y1183D01*
X351Y1183D01*
X352Y1183D01*
X353Y1183D01*
X354Y1183D01*
X355Y1183D01*
X356Y1183D01*
X357Y1183D01*
X358Y1183D01*
X359Y1183D01*
X360Y1183D01*
X361Y1183D01*
X362Y1183D01*
X363Y1183D01*
X364Y1183D01*
X365Y1183D01*
X366Y1183D01*
X367Y1183D01*
X368Y1183D01*
X369Y1183D01*
X370Y1183D01*
X371Y1183D01*
X372Y1183D01*
X373Y1183D01*
X374Y1183D01*
X375Y1183D01*
X376Y1183D01*
X377Y1183D01*
X378Y1183D01*
X379Y1183D01*
X380Y1183D01*
X381Y1183D01*
X382Y1183D01*
X383Y1183D01*
X384Y1183D01*
X385Y1183D01*
X386Y1183D01*
X387Y1183D01*
X388Y1183D01*
X389Y1183D01*
X390Y1183D01*
X391Y1183D01*
X392Y1183D01*
X393Y1183D01*
X394Y1183D01*
X395Y1183D01*
X396Y1183D01*
X397Y1183D01*
X398Y1183D01*
X399Y1183D01*
X400Y1183D01*
X401Y1183D01*
X402Y1183D01*
X403Y1183D01*
X404Y1183D01*
X405Y1183D01*
X406Y1183D01*
X407Y1183D01*
X408Y1183D01*
X409Y1183D01*
X410Y1183D01*
X411Y1183D01*
X412Y1183D01*
X413Y1183D01*
X414Y1183D01*
X415Y1183D01*
X416Y1183D01*
X417Y1183D01*
X418Y1183D01*
X419Y1183D01*
X420Y1183D01*
X421Y1183D01*
X422Y1183D01*
X423Y1183D01*
X424Y1183D01*
X425Y1183D01*
X426Y1183D01*
X427Y1183D01*
X428Y1183D01*
X429Y1183D01*
X430Y1183D01*
X431Y1183D01*
X432Y1183D01*
X433Y1183D01*
X434Y1183D01*
X435Y1183D01*
X436Y1183D01*
X437Y1183D01*
X438Y1183D01*
X439Y1183D01*
X440Y1183D01*
X441Y1183D01*
X442Y1183D01*
X443Y1183D01*
X444Y1183D01*
X445Y1183D01*
X446Y1183D01*
X447Y1183D01*
X448Y1183D01*
X449Y1183D01*
X450Y1183D01*
X451Y1183D01*
X452Y1183D01*
X453Y1183D01*
X454Y1183D01*
X455Y1183D01*
X456Y1183D01*
X457Y1183D01*
X458Y1183D01*
X459Y1183D01*
X460Y1183D01*
X461Y1183D01*
X462Y1183D01*
X463Y1183D01*
X464Y1183D01*
X465Y1183D01*
X466Y1183D01*
X467Y1183D01*
X468Y1183D01*
X469Y1183D01*
X470Y1183D01*
X471Y1183D01*
X472Y1183D01*
X473Y1183D01*
X474Y1183D01*
X475Y1183D01*
X476Y1183D01*
X477Y1183D01*
X478Y1183D01*
X479Y1183D01*
X480Y1183D01*
X481Y1183D01*
X482Y1183D01*
X483Y1183D01*
X484Y1183D01*
X485Y1183D01*
X486Y1183D01*
X487Y1183D01*
X488Y1183D01*
X489Y1183D01*
X490Y1183D01*
X491Y1183D01*
X492Y1183D01*
X493Y1183D01*
X494Y1183D01*
X495Y1183D01*
X496Y1183D01*
X497Y1183D01*
X498Y1183D01*
X499Y1183D01*
X500Y1183D01*
X501Y1183D01*
X502Y1183D01*
X503Y1183D01*
X504Y1183D01*
X505Y1183D01*
X506Y1183D01*
X507Y1183D01*
X508Y1183D01*
X509Y1183D01*
X510Y1183D01*
X511Y1183D01*
X512Y1183D01*
X513Y1183D01*
X514Y1183D01*
X515Y1183D01*
X516Y1183D01*
X517Y1183D01*
X518Y1183D01*
X519Y1183D01*
X520Y1183D01*
X521Y1183D01*
X522Y1183D01*
X523Y1183D01*
X524Y1183D01*
X525Y1183D01*
X526Y1183D01*
X527Y1183D01*
X528Y1183D01*
X529Y1183D01*
X530Y1183D01*
X531Y1183D01*
X532Y1183D01*
X533Y1183D01*
X534Y1183D01*
X535Y1183D01*
X536Y1183D01*
X537Y1183D01*
X538Y1183D01*
X539Y1183D01*
X540Y1183D01*
X541Y1183D01*
X542Y1183D01*
X543Y1183D01*
X544Y1183D01*
X545Y1183D01*
X546Y1183D01*
X547Y1183D01*
X548Y1183D01*
X549Y1183D01*
X550Y1183D01*
X551Y1183D01*
X552Y1183D01*
X553Y1183D01*
X554Y1183D01*
X555Y1183D01*
X556Y1183D01*
X557Y1183D01*
X558Y1183D01*
X559Y1183D01*
X560Y1183D01*
X561Y1183D01*
X562Y1183D01*
X563Y1183D01*
X564Y1183D01*
X565Y1183D01*
X566Y1183D01*
X567Y1183D01*
X568Y1183D01*
X569Y1183D01*
X570Y1183D01*
X571Y1183D01*
X572Y1183D01*
X573Y1183D01*
X574Y1183D01*
X575Y1183D01*
X576Y1183D01*
X577Y1183D01*
X578Y1183D01*
X579Y1183D01*
X580Y1183D01*
X581Y1183D01*
X582Y1183D01*
X583Y1183D01*
X584Y1183D01*
X585Y1183D01*
X586Y1183D01*
X587Y1183D01*
X588Y1183D01*
X589Y1183D01*
X590Y1183D01*
X591Y1183D01*
X592Y1183D01*
X593Y1183D01*
X594Y1183D01*
X595Y1183D01*
X596Y1183D01*
X597Y1183D01*
X598Y1183D01*
X599Y1183D01*
X600Y1183D01*
X601Y1183D01*
X602Y1183D01*
X603Y1183D01*
X604Y1183D01*
X605Y1183D01*
X606Y1183D01*
X607Y1183D01*
X608Y1183D01*
X609Y1183D01*
X610Y1183D01*
X611Y1183D01*
X612Y1183D01*
X613Y1183D01*
X614Y1183D01*
X615Y1183D01*
X616Y1183D01*
X617Y1183D01*
X618Y1183D01*
X619Y1183D01*
X620Y1183D01*
X621Y1183D01*
X622Y1183D01*
X623Y1183D01*
X624Y1183D01*
X625Y1183D01*
X626Y1183D01*
X627Y1183D01*
X628Y1183D01*
X629Y1183D01*
X630Y1183D01*
X631Y1183D01*
X632Y1183D01*
X633Y1183D01*
X634Y1183D01*
X635Y1183D01*
X636Y1183D01*
X637Y1183D01*
X638Y1183D01*
X639Y1183D01*
X640Y1183D01*
X641Y1183D01*
X642Y1183D01*
X643Y1183D01*
X644Y1183D01*
X645Y1183D01*
X646Y1183D01*
X647Y1183D01*
X648Y1183D01*
X649Y1183D01*
X650Y1183D01*
X651Y1183D01*
X652Y1183D01*
X653Y1183D01*
X654Y1183D01*
X655Y1183D01*
X656Y1183D01*
X657Y1183D01*
X658Y1183D01*
X659Y1183D01*
X660Y1183D01*
X661Y1183D01*
X662Y1183D01*
X663Y1183D01*
X664Y1183D01*
X665Y1183D01*
X666Y1183D01*
X667Y1183D01*
X668Y1183D01*
X669Y1183D01*
X670Y1183D01*
X671Y1183D01*
X672Y1183D01*
X673Y1183D01*
X674Y1183D01*
X675Y1183D01*
X676Y1183D01*
X677Y1183D01*
X678Y1183D01*
X679Y1183D01*
X680Y1183D01*
X681Y1183D01*
X682Y1183D01*
X683Y1183D01*
X684Y1183D01*
X685Y1183D01*
X686Y1183D01*
X687Y1183D01*
X688Y1183D01*
X689Y1183D01*
X690Y1183D01*
X691Y1183D01*
X692Y1183D01*
X693Y1183D01*
X694Y1183D01*
X695Y1183D01*
X696Y1183D01*
X697Y1183D01*
X698Y1183D01*
X699Y1183D01*
X700Y1183D01*
X701Y1183D01*
X702Y1183D01*
X703Y1183D01*
X704Y1183D01*
X705Y1183D01*
X706Y1183D01*
X707Y1183D01*
X708Y1183D01*
X709Y1183D01*
X710Y1183D01*
X711Y1183D01*
X712Y1183D01*
X713Y1183D01*
X714Y1183D01*
X715Y1183D01*
X716Y1183D01*
X717Y1183D01*
X718Y1183D01*
X719Y1183D01*
X720Y1183D01*
X721Y1183D01*
X722Y1183D01*
X723Y1183D01*
X724Y1183D01*
X725Y1183D01*
X726Y1183D01*
X727Y1183D01*
X728Y1183D01*
X729Y1183D01*
X730Y1183D01*
X731Y1183D01*
X732Y1183D01*
X733Y1183D01*
X734Y1183D01*
X735Y1183D01*
X736Y1183D01*
X737Y1183D01*
X738Y1183D01*
X739Y1183D01*
X740Y1183D01*
X741Y1183D01*
X742Y1183D01*
X743Y1183D01*
X744Y1183D01*
X745Y1183D01*
X746Y1183D01*
X747Y1183D01*
X748Y1183D01*
X749Y1183D01*
X750Y1183D01*
X751Y1183D01*
X752Y1183D01*
X753Y1183D01*
X754Y1183D01*
X755Y1183D01*
X756Y1183D01*
X757Y1183D01*
X758Y1183D01*
X759Y1183D01*
X760Y1183D01*
X761Y1183D01*
X762Y1183D01*
X763Y1183D01*
X764Y1183D01*
X765Y1183D01*
X766Y1183D01*
X767Y1183D01*
X768Y1183D01*
X769Y1183D01*
X770Y1183D01*
X771Y1183D01*
X772Y1183D01*
X773Y1183D01*
X774Y1183D01*
X775Y1183D01*
X776Y1183D01*
X777Y1183D01*
X778Y1183D01*
X779Y1183D01*
X780Y1183D01*
X781Y1183D01*
X782Y1183D01*
X783Y1183D01*
X784Y1183D01*
X785Y1183D01*
X786Y1183D01*
X787Y1183D01*
X788Y1183D01*
X789Y1183D01*
X790Y1183D01*
X791Y1183D01*
X792Y1183D01*
X793Y1183D01*
X794Y1183D01*
X795Y1183D01*
X796Y1183D01*
X797Y1183D01*
X798Y1183D01*
X799Y1183D01*
X800Y1183D01*
X801Y1183D01*
X802Y1183D01*
X803Y1183D01*
X804Y1183D01*
X805Y1183D01*
X806Y1183D01*
X807Y1183D01*
X808Y1183D01*
X809Y1183D01*
X810Y1183D01*
X811Y1183D01*
X812Y1183D01*
X813Y1183D01*
X814Y1183D01*
X815Y1183D01*
X816Y1183D01*
X817Y1183D01*
X818Y1183D01*
X819Y1183D01*
X820Y1183D01*
X821Y1183D01*
X822Y1183D01*
X823Y1183D01*
X824Y1183D01*
X825Y1183D01*
X826Y1183D01*
X827Y1183D01*
X828Y1183D01*
X829Y1183D01*
X830Y1183D01*
X831Y1183D01*
X832Y1183D01*
X833Y1183D01*
X834Y1183D01*
X835Y1183D01*
X836Y1183D01*
X837Y1183D01*
X838Y1183D01*
X839Y1183D01*
X840Y1183D01*
X841Y1183D01*
X842Y1183D01*
X843Y1183D01*
X844Y1183D01*
X845Y1183D01*
X846Y1183D01*
X847Y1183D01*
X848Y1183D01*
X849Y1183D01*
X850Y1183D01*
X851Y1183D01*
X852Y1183D01*
X853Y1183D01*
X854Y1183D01*
X855Y1183D01*
X856Y1183D01*
X857Y1183D01*
X858Y1183D01*
X859Y1183D01*
X860Y1183D01*
X861Y1183D01*
X862Y1183D01*
X863Y1183D01*
X864Y1183D01*
X865Y1183D01*
X866Y1183D01*
X867Y1183D01*
X868Y1183D01*
X869Y1183D01*
X870Y1183D01*
X871Y1183D01*
X872Y1183D01*
X873Y1183D01*
X874Y1183D01*
X875Y1183D01*
X876Y1183D01*
X877Y1183D01*
X878Y1183D01*
X879Y1183D01*
X880Y1183D01*
X881Y1183D01*
X882Y1183D01*
X883Y1183D01*
X884Y1183D01*
X885Y1183D01*
X886Y1183D01*
X887Y1183D01*
X888Y1183D01*
X889Y1183D01*
X890Y1183D01*
X891Y1183D01*
X892Y1183D01*
X893Y1183D01*
X894Y1183D01*
X895Y1183D01*
X896Y1183D01*
X897Y1183D01*
X898Y1183D01*
X899Y1183D01*
X900Y1183D01*
X901Y1183D01*
X902Y1183D01*
X903Y1183D01*
X904Y1183D01*
X905Y1183D01*
X906Y1183D01*
X907Y1183D01*
X908Y1183D01*
X909Y1183D01*
X910Y1183D01*
X911Y1183D01*
X912Y1183D01*
X913Y1183D01*
X914Y1183D01*
X915Y1183D01*
X916Y1183D01*
X917Y1183D01*
X918Y1183D01*
X919Y1183D01*
X920Y1183D01*
X921Y1183D01*
X922Y1183D01*
X923Y1183D01*
X924Y1183D01*
X925Y1183D01*
X926Y1183D01*
X927Y1183D01*
X928Y1183D01*
X929Y1183D01*
X930Y1183D01*
X931Y1183D01*
X932Y1183D01*
X933Y1183D01*
X934Y1183D01*
X935Y1183D01*
X936Y1183D01*
X937Y1183D01*
X938Y1183D01*
X939Y1183D01*
X940Y1183D01*
X941Y1183D01*
X942Y1183D01*
X943Y1183D01*
X944Y1183D01*
X945Y1183D01*
X946Y1183D01*
X947Y1183D01*
X948Y1183D01*
X949Y1183D01*
X950Y1183D01*
X951Y1183D01*
X952Y1183D01*
X953Y1183D01*
X954Y1183D01*
X955Y1183D01*
X956Y1183D01*
X957Y1183D01*
X958Y1183D01*
X959Y1183D01*
X960Y1183D01*
X961Y1183D01*
X962Y1183D01*
X963Y1183D01*
X964Y1183D01*
X965Y1183D01*
X966Y1183D01*
X967Y1183D01*
X968Y1183D01*
X969Y1183D01*
X970Y1183D01*
X971Y1183D01*
X972Y1183D01*
X973Y1183D01*
X974Y1183D01*
X975Y1183D01*
X976Y1183D01*
X977Y1183D01*
X978Y1183D01*
X979Y1183D01*
X980Y1183D01*
X981Y1183D01*
X982Y1183D01*
X983Y1183D01*
X984Y1183D01*
X985Y1183D01*
X986Y1183D01*
X987Y1183D01*
X988Y1183D01*
X989Y1183D01*
X990Y1183D01*
X991Y1183D01*
X992Y1183D01*
X993Y1183D01*
X994Y1183D01*
X995Y1183D01*
X996Y1183D01*
X997Y1183D01*
X998Y1183D01*
X999Y1183D01*
X1000Y1183D01*
X1001Y1183D01*
X1002Y1183D01*
X1003Y1183D01*
X1004Y1183D01*
X1005Y1183D01*
X1006Y1183D01*
X1007Y1183D01*
X1008Y1183D01*
X1009Y1183D01*
X1010Y1183D01*
X1011Y1183D01*
X1012Y1183D01*
X1013Y1183D01*
X1014Y1183D01*
X1015Y1183D01*
X1016Y1183D01*
X1017Y1183D01*
X1018Y1183D01*
X1019Y1183D01*
X1020Y1183D01*
X1021Y1183D01*
X1022Y1183D01*
X1023Y1183D01*
X1024Y1183D01*
X1025Y1183D01*
X1026Y1183D01*
X1027Y1183D01*
X1028Y1183D01*
X1029Y1183D01*
X1030Y1183D01*
X1031Y1183D01*
X1032Y1183D01*
X1033Y1183D01*
X1034Y1183D01*
X1035Y1183D01*
X1036Y1183D01*
X1037Y1183D01*
X1038Y1183D01*
X1039Y1183D01*
X1040Y1183D01*
X1041Y1183D01*
X1042Y1183D01*
X1043Y1183D01*
X1044Y1183D01*
X1045Y1183D01*
X1046Y1183D01*
X1047Y1183D01*
X1048Y1183D01*
X1049Y1183D01*
X1050Y1183D01*
X1051Y1183D01*
X1052Y1183D01*
X1053Y1183D01*
X1054Y1183D01*
X1055Y1183D01*
X1056Y1183D01*
X1057Y1183D01*
X1058Y1183D01*
X1059Y1183D01*
X1060Y1183D01*
X1061Y1183D01*
X1062Y1183D01*
X1063Y1183D01*
X1064Y1183D01*
X1065Y1183D01*
X1066Y1183D01*
X1067Y1183D01*
X1068Y1183D01*
X1069Y1183D01*
X1070Y1183D01*
X1071Y1183D01*
X1072Y1183D01*
X1073Y1183D01*
X1074Y1183D01*
X1075Y1183D01*
X1076Y1183D01*
X1077Y1183D01*
X1078Y1183D01*
X1079Y1183D01*
X1080Y1183D01*
X1081Y1183D01*
X1082Y1183D01*
X1083Y1183D01*
X1084Y1183D01*
X1085Y1183D01*
X1086Y1183D01*
X1087Y1183D01*
X1088Y1183D01*
X1089Y1183D01*
X1090Y1183D01*
X1091Y1183D01*
X1092Y1183D01*
X1093Y1183D01*
X1094Y1183D01*
X1095Y1183D01*
X1096Y1183D01*
X1097Y1183D01*
X1098Y1183D01*
X1099Y1183D01*
X1100Y1183D01*
X1101Y1183D01*
X1102Y1183D01*
X1103Y1183D01*
X1104Y1183D01*
X1105Y1183D01*
X1106Y1183D01*
X1107Y1183D01*
X1108Y1183D01*
X1109Y1183D01*
X1110Y1183D01*
X1111Y1183D01*
X1112Y1183D01*
X1113Y1183D01*
X1114Y1183D01*
X1115Y1183D01*
X1116Y1183D01*
X1117Y1183D01*
X1118Y1183D01*
X1119Y1183D01*
X1120Y1183D01*
X1121Y1183D01*
X1122Y1183D01*
X1123Y1183D01*
X1124Y1183D01*
X1125Y1183D01*
X1126Y1183D01*
X1127Y1183D01*
X1128Y1183D01*
X1129Y1183D01*
X1130Y1183D01*
X1131Y1183D01*
X1132Y1183D01*
X1133Y1183D01*
X1134Y1183D01*
X1135Y1183D01*
X1136Y1183D01*
X1137Y1183D01*
X1138Y1183D01*
X1139Y1183D01*
X1140Y1183D01*
X1141Y1183D01*
X1142Y1183D01*
X1143Y1183D01*
X1144Y1183D01*
X1145Y1183D01*
X1146Y1183D01*
X1147Y1183D01*
X1148Y1183D01*
X1149Y1183D01*
X1150Y1183D01*
X1151Y1183D01*
X1152Y1183D01*
X1153Y1183D01*
X1154Y1183D01*
X1155Y1183D01*
X1156Y1183D01*
X1157Y1183D01*
X1158Y1183D01*
X1159Y1183D01*
X1160Y1183D01*
X1161Y1183D01*
X1162Y1183D01*
X1163Y1183D01*
X1164Y1183D01*
X1165Y1183D01*
X1166Y1183D01*
X1167Y1183D01*
X1168Y1183D01*
X1169Y1183D01*
X1170Y1183D01*
X1171Y1183D01*
X1172Y1183D01*
X1173Y1183D01*
X1174Y1183D01*
X1175Y1183D01*
X1176Y1183D01*
X1177Y1183D01*
X1178Y1183D01*
X1179Y1183D01*
X1180Y1183D01*
X1181Y1183D01*
X1182Y1183D01*
X1183Y1183D01*
X1184Y1183D01*
X1185Y1183D01*
X1186Y1183D01*
X1187Y1183D01*
X1188Y1183D01*
X1189Y1183D01*
X1190Y1183D01*
X1191Y1183D01*
X1192Y1183D01*
X1193Y1183D01*
X1194Y1183D01*
X1195Y1183D01*
X1196Y1183D01*
X1197Y1183D01*
X1198Y1183D01*
X1199Y1183D01*
X1200Y1183D01*
X1201Y1183D01*
X1202Y1183D01*
X1203Y1183D01*
X1204Y1183D01*
X1205Y1183D01*
X1206Y1183D01*
X1207Y1183D01*
X1208Y1183D01*
X1209Y1183D01*
X1210Y1183D01*
X1211Y1183D01*
X1212Y1183D01*
X1213Y1183D01*
X1214Y1183D01*
X1215Y1183D01*
X1216Y1183D01*
X1217Y1183D01*
X1218Y1183D01*
X1219Y1183D01*
X1220Y1183D01*
X1221Y1183D01*
X1222Y1183D01*
X1223Y1183D01*
X1224Y1183D01*
X1225Y1183D01*
X1226Y1183D01*
X1227Y1183D01*
X1228Y1183D01*
X1229Y1183D01*
X1230Y1183D01*
X1231Y1183D01*
X1232Y1183D01*
X1233Y1183D01*
X1234Y1183D01*
X1235Y1183D01*
X1236Y1183D01*
X1237Y1183D01*
X1238Y1183D01*
X1239Y1183D01*
X1240Y1183D01*
X1241Y1183D01*
X1242Y1183D01*
X1243Y1183D01*
X1244Y1183D01*
X1245Y1183D01*
X1246Y1183D01*
X1247Y1183D01*
X1248Y1183D01*
X1249Y1183D01*
X1250Y1183D01*
X1251Y1183D01*
X1252Y1183D01*
X1253Y1183D01*
X1254Y1183D01*
X1255Y1183D01*
X1256Y1183D01*
X1257Y1183D01*
X1258Y1183D01*
X1259Y1183D01*
X1260Y1183D01*
X1261Y1183D01*
X1262Y1183D01*
X1263Y1183D01*
X1264Y1183D01*
X1265Y1183D01*
X1266Y1183D01*
X1267Y1183D01*
X1268Y1183D01*
X1269Y1183D01*
X1270Y1183D01*
X1271Y1183D01*
X1272Y1183D01*
X1273Y1183D01*
X1274Y1183D01*
X1275Y1183D01*
X1276Y1183D01*
X1277Y1183D01*
X1278Y1183D01*
X1279Y1183D01*
X1280Y1183D01*
X1281Y1183D01*
X1282Y1183D01*
X1283Y1183D01*
X1284Y1183D01*
X1285Y1183D01*
X1286Y1183D01*
X1287Y1183D01*
X1288Y1183D01*
X1289Y1183D01*
X1290Y1183D01*
X1291Y1183D01*
X1292Y1183D01*
X1293Y1183D01*
X1294Y1183D01*
X1295Y1183D01*
X1296Y1183D01*
X1297Y1183D01*
X1298Y1183D01*
X1299Y1183D01*
X1300Y1183D01*
X1301Y1183D01*
X1302Y1183D01*
X1303Y1183D01*
X1304Y1183D01*
X1305Y1183D01*
X1306Y1183D01*
X1307Y1183D01*
X1308Y1183D01*
X1309Y1183D01*
X1310Y1183D01*
X1311Y1183D01*
X1312Y1183D01*
X1313Y1183D01*
X1314Y1183D01*
X1315Y1183D01*
X1316Y1183D01*
X1317Y1183D01*
X1318Y1183D01*
X1319Y1183D01*
X1320Y1183D01*
X1321Y1183D01*
X1322Y1183D01*
X1323Y1183D01*
X1324Y1183D01*
X1325Y1183D01*
X1326Y1183D01*
X1327Y1183D01*
X1328Y1183D01*
X1329Y1183D01*
X1330Y1183D01*
X1331Y1183D01*
X1332Y1183D01*
X1333Y1183D01*
X1334Y1183D01*
X1335Y1183D01*
X1336Y1183D01*
X1337Y1183D01*
X1338Y1183D01*
X1339Y1183D01*
X1340Y1183D01*
X1341Y1183D01*
X1342Y1183D01*
X1343Y1183D01*
X1344Y1183D01*
X1345Y1183D01*
X1346Y1183D01*
X1347Y1183D01*
X1348Y1183D01*
X1349Y1183D01*
X1350Y1183D01*
X1351Y1183D01*
X1352Y1183D01*
X1353Y1183D01*
X1354Y1183D01*
X1355Y1183D01*
X1356Y1183D01*
X1357Y1183D01*
X1358Y1183D01*
X1359Y1183D01*
X1360Y1183D01*
X1361Y1183D01*
X1362Y1183D01*
X1363Y1183D01*
X1364Y1183D01*
X1365Y1183D01*
X1366Y1183D01*
X1367Y1183D01*
X1368Y1183D01*
X1369Y1183D01*
X1370Y1183D01*
X1371Y1183D01*
X1372Y1183D01*
X1373Y1183D01*
X1374Y1183D01*
X1375Y1183D01*
X1376Y1183D01*
X1377Y1183D01*
X1378Y1183D01*
X1379Y1183D01*
X1380Y1183D01*
X1381Y1183D01*
X1382Y1183D01*
X1383Y1183D01*
X1384Y1183D01*
X1385Y1183D01*
X1386Y1183D01*
X1387Y1183D01*
X1388Y1183D01*
X1389Y1183D01*
X1390Y1183D01*
X1391Y1183D01*
X1392Y1183D01*
X1393Y1183D01*
X1394Y1183D01*
X1395Y1183D01*
X1396Y1183D01*
X1397Y1183D01*
X1398Y1183D01*
X1399Y1183D01*
X1400Y1183D01*
X1401Y1183D01*
X1402Y1183D01*
X1403Y1183D01*
X1404Y1183D01*
X1405Y1183D01*
X1406Y1183D01*
X1407Y1183D01*
X1408Y1183D01*
X1409Y1183D01*
X1410Y1183D01*
X1411Y1183D01*
X1412Y1183D01*
X1413Y1183D01*
X1414Y1183D01*
X1415Y1183D01*
X1416Y1183D01*
X1417Y1183D01*
X1418Y1183D01*
X1419Y1183D01*
X1420Y1183D01*
X1421Y1183D01*
X1422Y1183D01*
X1423Y1183D01*
X1424Y1183D01*
X1425Y1183D01*
X1426Y1183D01*
X1427Y1183D01*
X1428Y1183D01*
X1429Y1183D01*
X1430Y1183D01*
X1431Y1183D01*
X1432Y1183D01*
X1433Y1183D01*
X1434Y1183D01*
X1435Y1183D01*
X1436Y1183D01*
X1437Y1183D01*
X1438Y1183D01*
X1439Y1183D01*
X1440Y1183D01*
X1441Y1183D01*
X1442Y1183D01*
X1443Y1183D01*
X1444Y1183D01*
X1445Y1183D01*
X1446Y1183D01*
X1447Y1183D01*
X1448Y1183D01*
X1449Y1183D01*
X1450Y1183D01*
X1451Y1183D01*
X1452Y1183D01*
X1453Y1183D01*
X1454Y1183D01*
X1455Y1183D01*
X1456Y1183D01*
X1457Y1183D01*
X1458Y1183D01*
X1459Y1183D01*
X1460Y1183D01*
X1461Y1183D01*
X1462Y1183D01*
X1463Y1183D01*
X1464Y1183D01*
X1465Y1183D01*
X1466Y1183D01*
X1467Y1183D01*
X1468Y1183D01*
X1469Y1183D01*
X1470Y1183D01*
X1471Y1183D01*
X1472Y1183D01*
X1473Y1183D01*
X1474Y1183D01*
X1475Y1183D01*
X1476Y1183D01*
X1477Y1183D01*
X1478Y1183D01*
X1479Y1183D01*
X1480Y1183D01*
X1481Y1183D01*
X1482Y1183D01*
X1483Y1183D01*
X1484Y1183D01*
X1485Y1183D01*
X1486Y1183D01*
X1487Y1183D01*
X1488Y1183D01*
X1489Y1183D01*
X1490Y1183D01*
X1491Y1183D01*
X1492Y1183D01*
X1493Y1183D01*
X1494Y1183D01*
X1495Y1183D01*
X1496Y1183D01*
X1497Y1183D01*
X1498Y1183D01*
X1499Y1183D01*
X1500Y1183D01*
X1501Y1183D01*
X1502Y1183D01*
X1503Y1183D01*
X1504Y1183D01*
X1505Y1183D01*
X1506Y1183D01*
X1507Y1183D01*
X1508Y1183D01*
X1509Y1183D01*
X1510Y1183D01*
X1511Y1183D01*
X1512Y1183D01*
X1513Y1183D01*
X1514Y1183D01*
X1515Y1183D01*
X1516Y1183D01*
X1517Y1183D01*
X1518Y1183D01*
X1519Y1183D01*
X1520Y1183D01*
X1521Y1183D01*
X1522Y1183D01*
X1523Y1183D01*
X1524Y1183D01*
X1525Y1183D01*
X1526Y1183D01*
X1527Y1183D01*
X1528Y1183D01*
X1529Y1183D01*
X1530Y1183D01*
X1531Y1183D01*
X1532Y1183D01*
X1533Y1183D01*
X1534Y1183D01*
X1535Y1183D01*
X1536Y1183D01*
X1537Y1183D01*
X1538Y1183D01*
X1539Y1183D01*
X1540Y1183D01*
X1541Y1183D01*
X1542Y1183D01*
X1543Y1183D01*
X1544Y1183D01*
X1545Y1183D01*
X1546Y1183D01*
X1547Y1183D01*
X1548Y1183D01*
X1549Y1183D01*
X1550Y1183D01*
X1551Y1183D01*
X1552Y1183D01*
X1553Y1183D01*
X1554Y1183D01*
X1555Y1183D01*
X1556Y1183D01*
X1557Y1183D01*
X1558Y1183D01*
X1559Y1183D01*
X1560Y1183D01*
X1561Y1183D01*
X1562Y1183D01*
X1563Y1183D01*
X1564Y1183D01*
X1565Y1183D01*
X1566Y1183D01*
X1567Y1183D01*
X1568Y1183D01*
X1569Y1183D01*
X1570Y1183D01*
X1571Y1183D01*
X1572Y1183D01*
X1573Y1183D01*
X1574Y1183D01*
X1575Y1183D01*
X1576Y1183D01*
X1577Y1183D01*
X1578Y1183D01*
X1579Y1183D01*
X1580Y1183D01*
X1581Y1183D01*
X1582Y1183D01*
X1583Y1183D01*
X1584Y1183D01*
X1585Y1183D01*
X1586Y1183D01*
X1587Y1183D01*
X1588Y1183D01*
X1589Y1183D01*
X1590Y1183D01*
X1591Y1183D01*
X1592Y1183D01*
X1593Y1183D01*
X1594Y1183D01*
X1595Y1183D01*
X1596Y1183D01*
X1597Y1183D01*
X1598Y1183D01*
X1599Y1183D01*
X1600Y1183D01*
X1601Y1183D01*
X1602Y1183D01*
X1603Y1183D01*
X1604Y1183D01*
X1605Y1183D01*
X1606Y1183D01*
X1607Y1183D01*
X1608Y1183D01*
X1609Y1183D01*
X1610Y1183D01*
X1611Y1183D01*
X1612Y1183D01*
X1613Y1183D01*
X1614Y1183D01*
X1615Y1183D01*
X1616Y1183D01*
X1617Y1183D01*
X1618Y1183D01*
X1619Y1183D01*
X1620Y1183D01*
X1621Y1183D01*
X1622Y1183D01*
X1623Y1183D01*
X1624Y1183D01*
X1625Y1183D01*
X1626Y1183D01*
X1627Y1183D01*
X1628Y1183D01*
X1629Y1183D01*
X1630Y1183D01*
X1631Y1183D01*
X1632Y1183D01*
X1633Y1183D01*
X1634Y1183D01*
X1635Y1183D01*
X1636Y1183D01*
X1637Y1183D01*
X1638Y1183D01*
X1639Y1183D01*
X1640Y1183D01*
X1641Y1183D01*
X1642Y1183D01*
X1643Y1183D01*
X1644Y1183D01*
X1645Y1183D01*
X1646Y1183D01*
X1647Y1183D01*
X1648Y1183D01*
X1649Y1183D01*
X1650Y1183D01*
X1651Y1183D01*
X1652Y1183D01*
X1653Y1183D01*
X1654Y1183D01*
X1655Y1183D01*
X1656Y1183D01*
X1657Y1183D01*
X1658Y1183D01*
X1659Y1183D01*
X1660Y1183D01*
X1661Y1183D01*
X1662Y1183D01*
X1663Y1183D01*
X1664Y1183D01*
X1665Y1183D01*
X1666Y1183D01*
X1667Y1183D01*
X1668Y1183D01*
X1669Y1183D01*
X1670Y1183D01*
X1671Y1183D01*
X1672Y1183D01*
X1673Y1183D01*
X1674Y1183D01*
X1675Y1183D01*
X1676Y1183D01*
X1677Y1183D01*
X1678Y1183D01*
X1679Y1183D01*
X1680Y1183D01*
X1681Y1183D01*
X1682Y1183D01*
X1683Y1183D01*
X1684Y1183D01*
X1685Y1183D01*
X1686Y1183D01*
X1687Y1183D01*
X1688Y1183D01*
X1689Y1183D01*
X1690Y1183D01*
X1691Y1183D01*
X1692Y1183D01*
X1693Y1183D01*
X1694Y1183D01*
X1695Y1183D01*
X1696Y1183D01*
X1697Y1183D01*
X1698Y1183D01*
X1699Y1183D01*
X1700Y1183D01*
X1701Y1183D01*
X1702Y1183D01*
X1703Y1183D01*
X1704Y1183D01*
X1705Y1183D01*
X1706Y1183D01*
X1707Y1183D01*
X1708Y1183D01*
X1709Y1183D01*
X1710Y1183D01*
X1711Y1183D01*
X1712Y1183D01*
X1713Y1183D01*
X1714Y1183D01*
X1715Y1183D01*
X1716Y1183D01*
X1717Y1183D01*
X1718Y1183D01*
X1719Y1183D01*
X1720Y1183D01*
X1721Y1183D01*
X1722Y1183D01*
X1723Y1183D01*
X1724Y1183D01*
X1725Y1183D01*
X1726Y1183D01*
X1727Y1183D01*
X1728Y1183D01*
X1729Y1183D01*
X1730Y1183D01*
X1731Y1183D01*
X1732Y1183D01*
X1733Y1183D01*
X1734Y1183D01*
X1735Y1183D01*
X1736Y1183D01*
X1737Y1183D01*
X1738Y1183D01*
X1739Y1183D01*
X1740Y1183D01*
X1741Y1183D01*
X1742Y1183D01*
X1743Y1183D01*
X1744Y1183D01*
X1745Y1183D01*
X1746Y1183D01*
X1747Y1183D01*
X1748Y1183D01*
X1749Y1183D01*
X1750Y1183D01*
X1751Y1183D01*
X1752Y1183D01*
X1753Y1183D01*
X1754Y1183D01*
X1755Y1183D01*
X1756Y1183D01*
X1757Y1183D01*
X1758Y1183D01*
X1759Y1183D01*
X1760Y1183D01*
X1761Y1183D01*
X1762Y1183D01*
X1763Y1183D01*
X1764Y1183D01*
X1765Y1183D01*
X1766Y1183D01*
X1767Y1183D01*
X1768Y1183D01*
X1769Y1183D01*
X1770Y1183D01*
X1771Y1183D01*
X1772Y1183D01*
X1773Y1183D01*
X1774Y1183D01*
X1775Y1183D01*
X1776Y1183D01*
X1777Y1183D01*
X1778Y1183D01*
X1779Y1183D01*
X1780Y1183D01*
X1781Y1183D01*
X1782Y1183D01*
X1783Y1183D01*
X1784Y1183D01*
X1785Y1183D01*
X1786Y1183D01*
X1787Y1183D01*
X1788Y1183D01*
X1789Y1183D01*
X1790Y1183D01*
X1791Y1183D01*
X1792Y1183D01*
X1793Y1183D01*
X1794Y1183D01*
X1795Y1183D01*
X1796Y1183D01*
X1797Y1183D01*
X1798Y1183D01*
X1799Y1183D01*
X1800Y1183D01*
X1801Y1183D01*
X1802Y1183D01*
X1803Y1183D01*
X1804Y1183D01*
X1805Y1183D01*
X1806Y1183D01*
X1807Y1183D01*
X1808Y1183D01*
X1809Y1183D01*
X1810Y1183D01*
X1811Y1183D01*
X1812Y1183D01*
X1813Y1183D01*
X1814Y1183D01*
X1815Y1183D01*
X1816Y1183D01*
X1817Y1183D01*
X1818Y1183D01*
X1819Y1183D01*
X1820Y1183D01*
X1821Y1183D01*
X1822Y1183D01*
X1823Y1183D01*
X1824Y1183D01*
X1825Y1183D01*
X1826Y1183D01*
X1827Y1183D01*
X1828Y1183D01*
X1829Y1183D01*
X1830Y1183D01*
X1831Y1183D01*
X1832Y1183D01*
X1833Y1183D01*
X1834Y1183D01*
X1835Y1183D01*
X1836Y1183D01*
X1837Y1183D01*
X1838Y1183D01*
X1839Y1183D01*
X1840Y1183D01*
X1841Y1183D01*
X1842Y1183D01*
X1843Y1183D01*
X1844Y1183D01*
X1845Y1183D01*
X1846Y1183D01*
X1847Y1183D01*
X1848Y1183D01*
X1849Y1183D01*
X1850Y1183D01*
X1851Y1183D01*
X1852Y1183D01*
X1853Y1183D01*
X1854Y1183D01*
X1855Y1183D01*
X1856Y1183D01*
X1857Y1183D01*
X1858Y1183D01*
X1859Y1183D01*
X1860Y1183D01*
X1861Y1183D01*
X1862Y1183D01*
X1863Y1183D01*
X1864Y1183D01*
X1865Y1183D01*
X1866Y1183D01*
X1867Y1183D01*
X1868Y1183D01*
X1869Y1183D01*
X1870Y1183D01*
X1871Y1183D01*
X1872Y1183D01*
X1873Y1183D01*
X1874Y1183D01*
X1875Y1183D01*
X1876Y1183D01*
X1877Y1183D01*
X1878Y1183D01*
X1879Y1183D01*
X1880Y1183D01*
X1881Y1183D01*
X1882Y1183D01*
X1883Y1183D01*
X1884Y1183D01*
X1885Y1183D01*
X1886Y1183D01*
X1887Y1183D01*
X1888Y1183D01*
X1889Y1183D01*
X1890Y1183D01*
X1891Y1183D01*
X1892Y1183D01*
X1893Y1183D01*
X1894Y1183D01*
X1895Y1183D01*
X1896Y1183D01*
X1897Y1183D01*
X1898Y1183D01*
X1899Y1183D01*
X1900Y1183D01*
X1901Y1183D01*
X1902Y1183D01*
X1903Y1183D01*
X1904Y1183D01*
X1905Y1183D01*
X1906Y1183D01*
X1907Y1183D01*
X1908Y1183D01*
X1909Y1183D01*
X1910Y1183D01*
X1911Y1183D01*
X1912Y1183D01*
X1913Y1183D01*
X1914Y1183D01*
X1915Y1183D01*
X1916Y1183D01*
X1917Y1183D01*
X1918Y1183D01*
X1919Y1183D01*
X1920Y1183D01*
X1921Y1183D01*
X1922Y1183D01*
X1923Y1183D01*
X1924Y1183D01*
X1925Y1183D01*
X1926Y1183D01*
X1927Y1183D01*
X1928Y1183D01*
X1929Y1183D01*
X1930Y1183D01*
X1931Y1183D01*
X1932Y1183D01*
X1933Y1183D01*
X1934Y1183D01*
X1935Y1183D01*
X1936Y1183D01*
X1937Y1183D01*
X1938Y1183D01*
X1939Y1183D01*
X1940Y1183D01*
X1941Y1183D01*
X1942Y1183D01*
X1943Y1183D01*
X1944Y1183D01*
X1945Y1183D01*
X1946Y1183D01*
X1947Y1183D01*
X1948Y1183D01*
X1949Y1183D01*
X1950Y1183D01*
X1951Y1183D01*
X1952Y1183D01*
X1953Y1183D01*
X1954Y1183D01*
X1955Y1183D01*
X1956Y1183D01*
X1957Y1183D01*
X1958Y1183D01*
X1959Y1183D01*
X1960Y1183D01*
X1961Y1183D01*
X1962Y1183D01*
X1963Y1183D01*
X1964Y1183D01*
X1965Y1183D01*
X1966Y1183D01*
X1967Y1183D01*
X1968Y1183D01*
X1969Y1183D01*
X1970Y1183D01*
X1971Y1183D01*
X1972Y1183D01*
X1973Y1183D01*
X1974Y1183D01*
X1975Y1183D01*
X1976Y1183D01*
X1977Y1183D01*
X1978Y1183D01*
X1979Y1183D01*
X1980Y1183D01*
X1981Y1183D01*
X1982Y1183D01*
X1983Y1183D01*
X1984Y1183D01*
X1985Y1183D01*
X1986Y1183D01*
X1987Y1183D01*
X1988Y1183D01*
X1989Y1183D01*
X1990Y1183D01*
X1991Y1183D01*
X1992Y1183D01*
X1993Y1183D01*
X1994Y1183D01*
X1995Y1183D01*
X1996Y1183D01*
X1997Y1183D01*
X1998Y1183D01*
X1999Y1183D01*
X2000Y1183D01*
X2001Y1183D01*
X2002Y1183D01*
X2003Y1183D01*
X2004Y1183D01*
X2005Y1183D01*
X2006Y1183D01*
X2007Y1183D01*
X2008Y1183D01*
X2009Y1183D01*
X2010Y1183D01*
X2011Y1183D01*
X2012Y1183D01*
X2013Y1183D01*
X2014Y1183D01*
X2015Y1183D01*
X2016Y1183D01*
X2017Y1183D01*
X2018Y1183D01*
X2019Y1183D01*
X2020Y1183D01*
X2021Y1183D01*
X2022Y1183D01*
X2023Y1183D01*
X2024Y1183D01*
X2025Y1183D01*
X2026Y1183D01*
X2027Y1183D01*
X2028Y1183D01*
X2029Y1183D01*
X2030Y1183D01*
X2031Y1183D01*
X2032Y1183D01*
X2033Y1183D01*
X2034Y1183D01*
X2035Y1183D01*
X2036Y1183D01*
X2037Y1183D01*
X2038Y1183D01*
X2039Y1183D01*
X2040Y1183D01*
X2041Y1183D01*
X2042Y1183D01*
X2043Y1183D01*
X2044Y1183D01*
X2045Y1183D01*
X2046Y1183D01*
X2047Y1183D01*
X2048Y1183D01*
X2049Y1183D01*
X2050Y1183D01*
X2051Y1183D01*
X2052Y1183D01*
X2053Y1183D01*
X2054Y1183D01*
X2055Y1183D01*
X2056Y1183D01*
X2057Y1183D01*
X2058Y1183D01*
X2059Y1183D01*
X2060Y1183D01*
X2061Y1183D01*
X2062Y1183D01*
X2063Y1183D01*
X2064Y1183D01*
X2065Y1183D01*
X2066Y1183D01*
X2067Y1183D01*
X2068Y1183D01*
X2069Y1183D01*
X2070Y1183D01*
X2071Y1183D01*
X2072Y1183D01*
X2073Y1183D01*
X2074Y1183D01*
X2075Y1183D01*
X2076Y1183D01*
X2077Y1183D01*
X2078Y1183D01*
X2079Y1183D01*
X2080Y1183D01*
X2081Y1183D01*
X2082Y1183D01*
X2083Y1183D01*
X2084Y1183D01*
X2085Y1183D01*
X2086Y1183D01*
X2087Y1183D01*
X2088Y1183D01*
X2089Y1183D01*
X2090Y1183D01*
X2091Y1183D01*
X2092Y1183D01*
X2093Y1183D01*
X2094Y1183D01*
X2095Y1183D01*
X2096Y1183D01*
X2097Y1183D01*
X2098Y1183D01*
X2099Y1183D01*
X2100Y1183D01*
X2101Y1183D01*
X2102Y1183D01*
X2103Y1183D01*
X2104Y1183D01*
X2105Y1183D01*
X2106Y1183D01*
X2107Y1183D01*
X2108Y1183D01*
X2109Y1183D01*
X2110Y1183D01*
X2111Y1183D01*
X2112Y1183D01*
X2113Y1183D01*
X2114Y1183D01*
X2115Y1183D01*
X2116Y1183D01*
X2117Y1183D01*
X2118Y1183D01*
X2119Y1183D01*
X2120Y1183D01*
X2121Y1183D01*
X2122Y1183D01*
X2123Y1183D01*
X2124Y1183D01*
X2125Y1183D01*
X2126Y1183D01*
X2127Y1183D01*
X2128Y1183D01*
X2129Y1183D01*
X2130Y1183D01*
X2131Y1183D01*
X2132Y1183D01*
X2133Y1183D01*
X2134Y1183D01*
X2135Y1183D01*
X2136Y1183D01*
X2137Y1183D01*
X2138Y1183D01*
X2139Y1183D01*
X2140Y1183D01*
X2141Y1183D01*
X2142Y1183D01*
X2143Y1183D01*
X2144Y1183D01*
X2145Y1183D01*
X2146Y1183D01*
X2147Y1183D01*
X2148Y1183D01*
X2149Y1183D01*
X2150Y1183D01*
X2151Y1183D01*
X2152Y1183D01*
X2153Y1183D01*
X2154Y1183D01*
X2155Y1183D01*
X2156Y1183D01*
X2157Y1183D01*
X2158Y1183D01*
X2159Y1183D01*
X2160Y1183D01*
X2161Y1183D01*
X2162Y1183D01*
X2163Y1183D01*
X2164Y1183D01*
X2165Y1183D01*
X2166Y1183D01*
X2167Y1183D01*
X2168Y1183D01*
X2169Y1183D01*
X2170Y1183D01*
X2171Y1183D01*
X2172Y1183D01*
X2173Y1183D01*
X2174Y1183D01*
X2175Y1183D01*
X2176Y1183D01*
X2177Y1183D01*
X2178Y1183D01*
X2179Y1183D01*
X2180Y1183D01*
X2181Y1183D01*
X2182Y1183D01*
X2183Y1183D01*
X2184Y1183D01*
X2185Y1183D01*
X2186Y1183D01*
X2187Y1183D01*
X2188Y1183D01*
X2189Y1183D01*
X2190Y1183D01*
X2191Y1183D01*
X2192Y1183D01*
X2193Y1183D01*
X2194Y1183D01*
X2195Y1183D01*
X2196Y1183D01*
X2197Y1183D01*
X2198Y1183D01*
X2199Y1183D01*
X2200Y1183D01*
X2201Y1183D01*
X2202Y1183D01*
X2203Y1183D01*
X2204Y1183D01*
X2205Y1183D01*
X2206Y1183D01*
X2207Y1183D01*
X2208Y1183D01*
X2209Y1183D01*
X2210Y1183D01*
X2211Y1183D01*
X2212Y1183D01*
X2213Y1183D01*
X2214Y1183D01*
X2215Y1183D01*
X2216Y1183D01*
X2217Y1183D01*
X2218Y1183D01*
X2219Y1182D01*
X2220Y1182D01*
X2221Y1182D01*
X2222Y1182D01*
X2223Y1182D01*
X2224Y1182D01*
X2225Y1181D01*
X2226Y1181D01*
X2227Y1181D01*
X2228Y1181D01*
X2229Y1180D01*
X2230Y1180D01*
X2231Y1180D01*
X2232Y1179D01*
X2233Y1179D01*
X2234Y1179D01*
X2235Y1178D01*
X2236Y1178D01*
X2237Y1177D01*
X2238Y1177D01*
X2239Y1176D01*
X2240Y1176D01*
X2241Y1175D01*
X2242Y1175D01*
X2243Y1174D01*
X2244Y1174D01*
X2245Y1173D01*
X2246Y1172D01*
X2247Y1172D01*
X2248Y1171D01*
X2249Y1170D01*
X2250Y1170D01*
X2251Y1169D01*
X2252Y1168D01*
X2253Y1167D01*
X2254Y1167D01*
X2255Y1166D01*
X2256Y1165D01*
X2257Y1164D01*
X2258Y1163D01*
X2259Y1162D01*
X2260Y1161D01*
X2260Y1160D01*
X2261Y1159D01*
X2262Y1158D01*
X2263Y1157D01*
X2264Y1156D01*
X2264Y1155D01*
X2265Y1154D01*
X2266Y1153D01*
X2267Y1152D01*
X2267Y1151D01*
X2268Y1150D01*
X2268Y1149D01*
X2269Y1148D01*
X2269Y1147D01*
X2270Y1146D01*
X2270Y1145D01*
X2271Y1144D01*
X2271Y1143D01*
X2272Y1142D01*
X2272Y1141D01*
X2273Y1140D01*
X2273Y1138D01*
X2274Y1137D01*
X2274Y1136D01*
X2275Y1135D01*
X2275Y1132D01*
X2276Y1131D01*
X2276Y1128D01*
X2277Y1127D01*
X2277Y1122D01*
X2278Y1121D01*
X2278Y67D01*
X2277Y66D01*
X2277Y61D01*
X2276Y60D01*
X2276Y57D01*
X2275Y56D01*
X2275Y53D01*
X2274Y52D01*
X2274Y51D01*
X2273Y50D01*
X2273Y48D01*
X2272Y47D01*
X2272Y46D01*
X2271Y45D01*
X2271Y44D01*
X2270Y43D01*
X2270Y42D01*
X2269Y41D01*
X2269Y40D01*
X2268Y39D01*
X2268Y38D01*
X2267Y37D01*
X2267Y36D01*
X2266Y35D01*
X2265Y34D01*
X2264Y33D01*
X2264Y32D01*
X2263Y31D01*
X2262Y30D01*
X2261Y29D01*
X2260Y28D01*
X2260Y27D01*
X2259Y26D01*
X2258Y25D01*
X2257Y24D01*
X2256Y23D01*
X2255Y22D01*
X2254Y21D01*
X2253Y21D01*
X2252Y20D01*
X2251Y19D01*
X2250Y18D01*
X2249Y18D01*
X2248Y17D01*
X2247Y16D01*
X2246Y16D01*
X2245Y15D01*
X2244Y14D01*
X2243Y14D01*
X2242Y13D01*
X2241Y13D01*
X2240Y12D01*
X2239Y12D01*
X2238Y11D01*
X2237Y11D01*
X2236Y10D01*
X2235Y10D01*
X2234Y9D01*
X2233Y9D01*
X2232Y9D01*
X2231Y8D01*
X2230Y8D01*
X2229Y8D01*
X2228Y7D01*
X2227Y7D01*
X2226Y7D01*
X2225Y7D01*
X2224Y6D01*
X2223Y6D01*
X2222Y6D01*
X2221Y6D01*
X2220Y6D01*
X2219Y6D01*
X2218Y5D01*
X2217Y5D01*
X2216Y5D01*
X2215Y5D01*
X2214Y5D01*
X2213Y5D01*
X2212Y5D01*
X2211Y5D01*
X2210Y5D01*
X2209Y5D01*
X2208Y5D01*
X2207Y5D01*
X2206Y5D01*
X2205Y5D01*
X2204Y5D01*
X2203Y5D01*
X2202Y5D01*
X2201Y5D01*
X2200Y5D01*
X2199Y5D01*
X2198Y5D01*
X2197Y5D01*
X2196Y5D01*
X2195Y5D01*
X2194Y5D01*
X2193Y5D01*
X2192Y5D01*
X2191Y5D01*
X2190Y5D01*
X2189Y5D01*
X2188Y5D01*
X2187Y5D01*
X2186Y5D01*
X2185Y5D01*
X2184Y5D01*
X2183Y5D01*
X2182Y5D01*
X2181Y5D01*
X2180Y5D01*
X2179Y5D01*
X2178Y5D01*
X2177Y5D01*
X2176Y5D01*
X2175Y5D01*
X2174Y5D01*
X2173Y5D01*
X2172Y5D01*
X2171Y5D01*
X2170Y5D01*
X2169Y5D01*
X2168Y5D01*
X2167Y5D01*
X2166Y5D01*
X2165Y5D01*
X2164Y5D01*
X2163Y5D01*
X2162Y5D01*
X2161Y5D01*
X2160Y5D01*
X2159Y5D01*
X2158Y5D01*
X2157Y5D01*
X2156Y5D01*
X2155Y5D01*
X2154Y5D01*
X2153Y5D01*
X2152Y5D01*
X2151Y5D01*
X2150Y5D01*
X2149Y5D01*
X2148Y5D01*
X2147Y5D01*
X2146Y5D01*
X2145Y5D01*
X2144Y5D01*
X2143Y5D01*
X2142Y5D01*
X2141Y5D01*
X2140Y5D01*
X2139Y5D01*
X2138Y5D01*
X2137Y5D01*
X2136Y5D01*
X2135Y5D01*
X2134Y5D01*
X2133Y5D01*
X2132Y5D01*
X2131Y5D01*
X2130Y5D01*
X2129Y5D01*
X2128Y5D01*
X2127Y5D01*
X2126Y5D01*
X2125Y5D01*
X2124Y5D01*
X2123Y5D01*
X2122Y5D01*
X2121Y5D01*
X2120Y5D01*
X2119Y5D01*
X2118Y5D01*
X2117Y5D01*
X2116Y5D01*
X2115Y5D01*
X2114Y5D01*
X2113Y5D01*
X2112Y5D01*
X2111Y5D01*
X2110Y5D01*
X2109Y5D01*
X2108Y5D01*
X2107Y5D01*
X2106Y5D01*
X2105Y5D01*
X2104Y5D01*
X2103Y5D01*
X2102Y5D01*
X2101Y5D01*
X2100Y5D01*
X2099Y5D01*
X2098Y5D01*
X2097Y5D01*
X2096Y5D01*
X2095Y5D01*
X2094Y5D01*
X2093Y5D01*
X2092Y5D01*
X2091Y5D01*
X2090Y5D01*
X2089Y5D01*
X2088Y5D01*
X2087Y5D01*
X2086Y5D01*
X2085Y5D01*
X2084Y5D01*
X2083Y5D01*
X2082Y5D01*
X2081Y5D01*
X2080Y5D01*
X2079Y5D01*
X2078Y5D01*
X2077Y5D01*
X2076Y5D01*
X2075Y5D01*
X2074Y5D01*
X2073Y5D01*
X2072Y5D01*
X2071Y5D01*
X2070Y5D01*
X2069Y5D01*
X2068Y5D01*
X2067Y5D01*
X2066Y5D01*
X2065Y5D01*
X2064Y5D01*
X2063Y5D01*
X2062Y5D01*
X2061Y5D01*
X2060Y5D01*
X2059Y5D01*
X2058Y5D01*
X2057Y5D01*
X2056Y5D01*
X2055Y5D01*
X2054Y5D01*
X2053Y5D01*
X2052Y5D01*
X2051Y5D01*
X2050Y5D01*
X2049Y5D01*
X2048Y5D01*
X2047Y5D01*
X2046Y5D01*
X2045Y5D01*
X2044Y5D01*
X2043Y5D01*
X2042Y5D01*
X2041Y5D01*
X2040Y5D01*
X2039Y5D01*
X2038Y5D01*
X2037Y5D01*
X2036Y5D01*
X2035Y5D01*
X2034Y5D01*
X2033Y5D01*
X2032Y5D01*
X2031Y5D01*
X2030Y5D01*
X2029Y5D01*
X2028Y5D01*
X2027Y5D01*
X2026Y5D01*
X2025Y5D01*
X2024Y5D01*
X2023Y5D01*
X2022Y5D01*
X2021Y5D01*
X2020Y5D01*
X2019Y5D01*
X2018Y5D01*
X2017Y5D01*
X2016Y5D01*
X2015Y5D01*
X2014Y5D01*
X2013Y5D01*
X2012Y5D01*
X2011Y5D01*
X2010Y5D01*
X2009Y5D01*
X2008Y5D01*
X2007Y5D01*
X2006Y5D01*
X2005Y5D01*
X2004Y5D01*
X2003Y5D01*
X2002Y5D01*
X2001Y5D01*
X2000Y5D01*
X1999Y5D01*
X1998Y5D01*
X1997Y5D01*
X1996Y5D01*
X1995Y5D01*
X1994Y5D01*
X1993Y5D01*
X1992Y5D01*
X1991Y5D01*
X1990Y5D01*
X1989Y5D01*
X1988Y5D01*
X1987Y5D01*
X1986Y5D01*
X1985Y5D01*
X1984Y5D01*
X1983Y5D01*
X1982Y5D01*
X1981Y5D01*
X1980Y5D01*
X1979Y5D01*
X1978Y5D01*
X1977Y5D01*
X1976Y5D01*
X1975Y5D01*
X1974Y5D01*
X1973Y5D01*
X1972Y5D01*
X1971Y5D01*
X1970Y5D01*
X1969Y5D01*
X1968Y5D01*
X1967Y5D01*
X1966Y5D01*
X1965Y5D01*
X1964Y5D01*
X1963Y5D01*
X1962Y5D01*
X1961Y5D01*
X1960Y5D01*
X1959Y5D01*
X1958Y5D01*
X1957Y5D01*
X1956Y5D01*
X1955Y5D01*
X1954Y5D01*
X1953Y5D01*
X1952Y5D01*
X1951Y5D01*
X1950Y5D01*
X1949Y5D01*
X1948Y5D01*
X1947Y5D01*
X1946Y5D01*
X1945Y5D01*
X1944Y5D01*
X1943Y5D01*
X1942Y5D01*
X1941Y5D01*
X1940Y5D01*
X1939Y5D01*
X1938Y5D01*
X1937Y5D01*
X1936Y5D01*
X1935Y5D01*
X1934Y5D01*
X1933Y5D01*
X1932Y5D01*
X1931Y5D01*
X1930Y5D01*
X1929Y5D01*
X1928Y5D01*
X1927Y5D01*
X1926Y5D01*
X1925Y5D01*
X1924Y5D01*
X1923Y5D01*
X1922Y5D01*
X1921Y5D01*
X1920Y5D01*
X1919Y5D01*
X1918Y5D01*
X1917Y5D01*
X1916Y5D01*
X1915Y5D01*
X1914Y5D01*
X1913Y5D01*
X1912Y5D01*
X1911Y5D01*
X1910Y5D01*
X1909Y5D01*
X1908Y5D01*
X1907Y5D01*
X1906Y5D01*
X1905Y5D01*
X1904Y5D01*
X1903Y5D01*
X1902Y5D01*
X1901Y5D01*
X1900Y5D01*
X1899Y5D01*
X1898Y5D01*
X1897Y5D01*
X1896Y5D01*
X1895Y5D01*
X1894Y5D01*
X1893Y5D01*
X1892Y5D01*
X1891Y5D01*
X1890Y5D01*
X1889Y5D01*
X1888Y5D01*
X1887Y5D01*
X1886Y5D01*
X1885Y5D01*
X1884Y5D01*
X1883Y5D01*
X1882Y5D01*
X1881Y5D01*
X1880Y5D01*
X1879Y5D01*
X1878Y5D01*
X1877Y5D01*
X1876Y5D01*
X1875Y5D01*
X1874Y5D01*
X1873Y5D01*
X1872Y5D01*
X1871Y5D01*
X1870Y5D01*
X1869Y5D01*
X1868Y5D01*
X1867Y5D01*
X1866Y5D01*
X1865Y5D01*
X1864Y5D01*
X1863Y5D01*
X1862Y5D01*
X1861Y5D01*
X1860Y5D01*
X1859Y5D01*
X1858Y5D01*
X1857Y5D01*
X1856Y5D01*
X1855Y5D01*
X1854Y5D01*
X1853Y5D01*
X1852Y5D01*
X1851Y5D01*
X1850Y5D01*
X1849Y5D01*
X1848Y5D01*
X1847Y5D01*
X1846Y5D01*
X1845Y5D01*
X1844Y5D01*
X1843Y5D01*
X1842Y5D01*
X1841Y5D01*
X1840Y5D01*
X1839Y5D01*
X1838Y5D01*
X1837Y5D01*
X1836Y5D01*
X1835Y5D01*
X1834Y5D01*
X1833Y5D01*
X1832Y5D01*
X1831Y5D01*
X1830Y5D01*
X1829Y5D01*
X1828Y5D01*
X1827Y5D01*
X1826Y5D01*
X1825Y5D01*
X1824Y5D01*
X1823Y5D01*
X1822Y5D01*
X1821Y5D01*
X1820Y5D01*
X1819Y5D01*
X1818Y5D01*
X1817Y5D01*
X1816Y5D01*
X1815Y5D01*
X1814Y5D01*
X1813Y5D01*
X1812Y5D01*
X1811Y5D01*
X1810Y5D01*
X1809Y5D01*
X1808Y5D01*
X1807Y5D01*
X1806Y5D01*
X1805Y5D01*
X1804Y5D01*
X1803Y5D01*
X1802Y5D01*
X1801Y5D01*
X1800Y5D01*
X1799Y5D01*
X1798Y5D01*
X1797Y5D01*
X1796Y5D01*
X1795Y5D01*
X1794Y5D01*
X1793Y5D01*
X1792Y5D01*
X1791Y5D01*
X1790Y5D01*
X1789Y5D01*
X1788Y5D01*
X1787Y5D01*
X1786Y5D01*
X1785Y5D01*
X1784Y5D01*
X1783Y5D01*
X1782Y5D01*
X1781Y5D01*
X1780Y5D01*
X1779Y5D01*
X1778Y5D01*
X1777Y5D01*
X1776Y5D01*
X1775Y5D01*
X1774Y5D01*
X1773Y5D01*
X1772Y5D01*
X1771Y5D01*
X1770Y5D01*
X1769Y5D01*
X1768Y5D01*
X1767Y5D01*
X1766Y5D01*
X1765Y5D01*
X1764Y5D01*
X1763Y5D01*
X1762Y5D01*
X1761Y5D01*
X1760Y5D01*
X1759Y5D01*
X1758Y5D01*
X1757Y5D01*
X1756Y5D01*
X1755Y5D01*
X1754Y5D01*
X1753Y5D01*
X1752Y5D01*
X1751Y5D01*
X1750Y5D01*
X1749Y5D01*
X1748Y5D01*
X1747Y5D01*
X1746Y5D01*
X1745Y5D01*
X1744Y5D01*
X1743Y5D01*
X1742Y5D01*
X1741Y5D01*
X1740Y5D01*
X1739Y5D01*
X1738Y5D01*
X1737Y5D01*
X1736Y5D01*
X1735Y5D01*
X1734Y5D01*
X1733Y5D01*
X1732Y5D01*
X1731Y5D01*
X1730Y5D01*
X1729Y5D01*
X1728Y5D01*
X1727Y5D01*
X1726Y5D01*
X1725Y5D01*
X1724Y5D01*
X1723Y5D01*
X1722Y5D01*
X1721Y5D01*
X1720Y5D01*
X1719Y5D01*
X1718Y5D01*
X1717Y5D01*
X1716Y5D01*
X1715Y5D01*
X1714Y5D01*
X1713Y5D01*
X1712Y5D01*
X1711Y5D01*
X1710Y5D01*
X1709Y5D01*
X1708Y5D01*
X1707Y5D01*
X1706Y5D01*
X1705Y5D01*
X1704Y5D01*
X1703Y5D01*
X1702Y5D01*
X1701Y5D01*
X1700Y5D01*
X1699Y5D01*
X1698Y5D01*
X1697Y5D01*
X1696Y5D01*
X1695Y5D01*
X1694Y5D01*
X1693Y5D01*
X1692Y5D01*
X1691Y5D01*
X1690Y5D01*
X1689Y5D01*
X1688Y5D01*
X1687Y5D01*
X1686Y5D01*
X1685Y5D01*
X1684Y5D01*
X1683Y5D01*
X1682Y5D01*
X1681Y5D01*
X1680Y5D01*
X1679Y5D01*
X1678Y5D01*
X1677Y5D01*
X1676Y5D01*
X1675Y5D01*
X1674Y5D01*
X1673Y5D01*
X1672Y5D01*
X1671Y5D01*
X1670Y5D01*
X1669Y5D01*
X1668Y5D01*
X1667Y5D01*
X1666Y5D01*
X1665Y5D01*
X1664Y5D01*
X1663Y5D01*
X1662Y5D01*
X1661Y5D01*
X1660Y5D01*
X1659Y5D01*
X1658Y5D01*
X1657Y5D01*
X1656Y5D01*
X1655Y5D01*
X1654Y5D01*
X1653Y5D01*
X1652Y5D01*
X1651Y5D01*
X1650Y5D01*
X1649Y5D01*
X1648Y5D01*
X1647Y5D01*
X1646Y5D01*
X1645Y5D01*
X1644Y5D01*
X1643Y5D01*
X1642Y5D01*
X1641Y5D01*
X1640Y5D01*
X1639Y5D01*
X1638Y5D01*
X1637Y5D01*
X1636Y5D01*
X1635Y5D01*
X1634Y5D01*
X1633Y5D01*
X1632Y5D01*
X1631Y5D01*
X1630Y5D01*
X1629Y5D01*
X1628Y5D01*
X1627Y5D01*
X1626Y5D01*
X1625Y5D01*
X1624Y5D01*
X1623Y5D01*
X1622Y5D01*
X1621Y5D01*
X1620Y5D01*
X1619Y5D01*
X1618Y5D01*
X1617Y5D01*
X1616Y5D01*
X1615Y5D01*
X1614Y5D01*
X1613Y5D01*
X1612Y5D01*
X1611Y5D01*
X1610Y5D01*
X1609Y5D01*
X1608Y5D01*
X1607Y5D01*
X1606Y5D01*
X1605Y5D01*
X1604Y5D01*
X1603Y5D01*
X1602Y5D01*
X1601Y5D01*
X1600Y5D01*
X1599Y5D01*
X1598Y5D01*
X1597Y5D01*
X1596Y5D01*
X1595Y5D01*
X1594Y5D01*
X1593Y5D01*
X1592Y5D01*
X1591Y5D01*
X1590Y5D01*
X1589Y5D01*
X1588Y5D01*
X1587Y5D01*
X1586Y5D01*
X1585Y5D01*
X1584Y5D01*
X1583Y5D01*
X1582Y5D01*
X1581Y5D01*
X1580Y5D01*
X1579Y5D01*
X1578Y5D01*
X1577Y5D01*
X1576Y5D01*
X1575Y5D01*
X1574Y5D01*
X1573Y5D01*
X1572Y5D01*
X1571Y5D01*
X1570Y5D01*
X1569Y5D01*
X1568Y5D01*
X1567Y5D01*
X1566Y5D01*
X1565Y5D01*
X1564Y5D01*
X1563Y5D01*
X1562Y5D01*
X1561Y5D01*
X1560Y5D01*
X1559Y5D01*
X1558Y5D01*
X1557Y5D01*
X1556Y5D01*
X1555Y5D01*
X1554Y5D01*
X1553Y5D01*
X1552Y5D01*
X1551Y5D01*
X1550Y5D01*
X1549Y5D01*
X1548Y5D01*
X1547Y5D01*
X1546Y5D01*
X1545Y5D01*
X1544Y5D01*
X1543Y5D01*
X1542Y5D01*
X1541Y5D01*
X1540Y5D01*
X1539Y5D01*
X1538Y5D01*
X1537Y5D01*
X1536Y5D01*
X1535Y5D01*
X1534Y5D01*
X1533Y5D01*
X1532Y5D01*
X1531Y5D01*
X1530Y5D01*
X1529Y5D01*
X1528Y5D01*
X1527Y5D01*
X1526Y5D01*
X1525Y5D01*
X1524Y5D01*
X1523Y5D01*
X1522Y5D01*
X1521Y5D01*
X1520Y5D01*
X1519Y5D01*
X1518Y5D01*
X1517Y5D01*
X1516Y5D01*
X1515Y5D01*
X1514Y5D01*
X1513Y5D01*
X1512Y5D01*
X1511Y5D01*
X1510Y5D01*
X1509Y5D01*
X1508Y5D01*
X1507Y5D01*
X1506Y5D01*
X1505Y5D01*
X1504Y5D01*
X1503Y5D01*
X1502Y5D01*
X1501Y5D01*
X1500Y5D01*
X1499Y5D01*
X1498Y5D01*
X1497Y5D01*
X1496Y5D01*
X1495Y5D01*
X1494Y5D01*
X1493Y5D01*
X1492Y5D01*
X1491Y5D01*
X1490Y5D01*
X1489Y5D01*
X1488Y5D01*
X1487Y5D01*
X1486Y5D01*
X1485Y5D01*
X1484Y5D01*
X1483Y5D01*
X1482Y5D01*
X1481Y5D01*
X1480Y5D01*
X1479Y5D01*
X1478Y5D01*
X1477Y5D01*
X1476Y5D01*
X1475Y5D01*
X1474Y5D01*
X1473Y5D01*
X1472Y5D01*
X1471Y5D01*
X1470Y5D01*
X1469Y5D01*
X1468Y5D01*
X1467Y5D01*
X1466Y5D01*
X1465Y5D01*
X1464Y5D01*
X1463Y5D01*
X1462Y5D01*
X1461Y5D01*
X1460Y5D01*
X1459Y5D01*
X1458Y5D01*
X1457Y5D01*
X1456Y5D01*
X1455Y5D01*
X1454Y5D01*
X1453Y5D01*
X1452Y5D01*
X1451Y5D01*
X1450Y5D01*
X1449Y5D01*
X1448Y5D01*
X1447Y5D01*
X1446Y5D01*
X1445Y5D01*
X1444Y5D01*
X1443Y5D01*
X1442Y5D01*
X1441Y5D01*
X1440Y5D01*
X1439Y5D01*
X1438Y5D01*
X1437Y5D01*
X1436Y5D01*
X1435Y5D01*
X1434Y5D01*
X1433Y5D01*
X1432Y5D01*
X1431Y5D01*
X1430Y5D01*
X1429Y5D01*
X1428Y5D01*
X1427Y5D01*
X1426Y5D01*
X1425Y5D01*
X1424Y5D01*
X1423Y5D01*
X1422Y5D01*
X1421Y5D01*
X1420Y5D01*
X1419Y5D01*
X1418Y5D01*
X1417Y5D01*
X1416Y5D01*
X1415Y5D01*
X1414Y5D01*
X1413Y5D01*
X1412Y5D01*
X1411Y5D01*
X1410Y5D01*
X1409Y5D01*
X1408Y5D01*
X1407Y5D01*
X1406Y5D01*
X1405Y5D01*
X1404Y5D01*
X1403Y5D01*
X1402Y5D01*
X1401Y5D01*
X1400Y5D01*
X1399Y5D01*
X1398Y5D01*
X1397Y5D01*
X1396Y5D01*
X1395Y5D01*
X1394Y5D01*
X1393Y5D01*
X1392Y5D01*
X1391Y5D01*
X1390Y5D01*
X1389Y5D01*
X1388Y5D01*
X1387Y5D01*
X1386Y5D01*
X1385Y5D01*
X1384Y5D01*
X1383Y5D01*
X1382Y5D01*
X1381Y5D01*
X1380Y5D01*
X1379Y5D01*
X1378Y5D01*
X1377Y5D01*
X1376Y5D01*
X1375Y5D01*
X1374Y5D01*
X1373Y5D01*
X1372Y5D01*
X1371Y5D01*
X1370Y5D01*
X1369Y5D01*
X1368Y5D01*
X1367Y5D01*
X1366Y5D01*
X1365Y5D01*
X1364Y5D01*
X1363Y5D01*
X1362Y5D01*
X1361Y5D01*
X1360Y5D01*
X1359Y5D01*
X1358Y5D01*
X1357Y5D01*
X1356Y5D01*
X1355Y5D01*
X1354Y5D01*
X1353Y5D01*
X1352Y5D01*
X1351Y5D01*
X1350Y5D01*
X1349Y5D01*
X1348Y5D01*
X1347Y5D01*
X1346Y5D01*
X1345Y5D01*
X1344Y5D01*
X1343Y5D01*
X1342Y5D01*
X1341Y5D01*
X1340Y5D01*
X1339Y5D01*
X1338Y5D01*
X1337Y5D01*
X1336Y5D01*
X1335Y5D01*
X1334Y5D01*
X1333Y5D01*
X1332Y5D01*
X1331Y5D01*
X1330Y5D01*
X1329Y5D01*
X1328Y5D01*
X1327Y5D01*
X1326Y5D01*
X1325Y5D01*
X1324Y5D01*
X1323Y5D01*
X1322Y5D01*
X1321Y5D01*
X1320Y5D01*
X1319Y5D01*
X1318Y5D01*
X1317Y5D01*
X1316Y5D01*
X1315Y5D01*
X1314Y5D01*
X1313Y5D01*
X1312Y5D01*
X1311Y5D01*
X1310Y5D01*
X1309Y5D01*
X1308Y5D01*
X1307Y5D01*
X1306Y5D01*
X1305Y5D01*
X1304Y5D01*
X1303Y5D01*
X1302Y5D01*
X1301Y5D01*
X1300Y5D01*
X1299Y5D01*
X1298Y5D01*
X1297Y5D01*
X1296Y5D01*
X1295Y5D01*
X1294Y5D01*
X1293Y5D01*
X1292Y5D01*
X1291Y5D01*
X1290Y5D01*
X1289Y5D01*
X1288Y5D01*
X1287Y5D01*
X1286Y5D01*
X1285Y5D01*
X1284Y5D01*
X1283Y5D01*
X1282Y5D01*
X1281Y5D01*
X1280Y5D01*
X1279Y5D01*
X1278Y5D01*
X1277Y5D01*
X1276Y5D01*
X1275Y5D01*
X1274Y5D01*
X1273Y5D01*
X1272Y5D01*
X1271Y5D01*
X1270Y5D01*
X1269Y5D01*
X1268Y5D01*
X1267Y5D01*
X1266Y5D01*
X1265Y5D01*
X1264Y5D01*
X1263Y5D01*
X1262Y5D01*
X1261Y5D01*
X1260Y5D01*
X1259Y5D01*
X1258Y5D01*
X1257Y5D01*
X1256Y5D01*
X1255Y5D01*
X1254Y5D01*
X1253Y5D01*
X1252Y5D01*
X1251Y5D01*
X1250Y5D01*
X1249Y5D01*
X1248Y5D01*
X1247Y5D01*
X1246Y5D01*
X1245Y5D01*
X1244Y5D01*
X1243Y5D01*
X1242Y5D01*
X1241Y5D01*
X1240Y5D01*
X1239Y5D01*
X1238Y5D01*
X1237Y5D01*
X1236Y5D01*
X1235Y5D01*
X1234Y5D01*
X1233Y5D01*
X1232Y5D01*
X1231Y5D01*
X1230Y5D01*
X1229Y5D01*
X1228Y5D01*
X1227Y5D01*
X1226Y5D01*
X1225Y5D01*
X1224Y5D01*
X1223Y5D01*
X1222Y5D01*
X1221Y5D01*
X1220Y5D01*
X1219Y5D01*
X1218Y5D01*
X1217Y5D01*
X1216Y5D01*
X1215Y5D01*
X1214Y5D01*
X1213Y5D01*
X1212Y5D01*
X1211Y5D01*
X1210Y5D01*
X1209Y5D01*
X1208Y5D01*
X1207Y5D01*
X1206Y5D01*
X1205Y5D01*
X1204Y5D01*
X1203Y5D01*
X1202Y5D01*
X1201Y5D01*
X1200Y5D01*
X1199Y5D01*
X1198Y5D01*
X1197Y5D01*
X1196Y5D01*
X1195Y5D01*
X1194Y5D01*
X1193Y5D01*
X1192Y5D01*
X1191Y5D01*
X1190Y5D01*
X1189Y5D01*
X1188Y5D01*
X1187Y5D01*
X1186Y5D01*
X1185Y5D01*
X1184Y5D01*
X1183Y5D01*
X1182Y5D01*
X1181Y5D01*
X1180Y5D01*
X1179Y5D01*
X1178Y5D01*
X1177Y5D01*
X1176Y5D01*
X1175Y5D01*
X1174Y5D01*
X1173Y5D01*
X1172Y5D01*
X1171Y5D01*
X1170Y5D01*
X1169Y5D01*
X1168Y5D01*
X1167Y5D01*
X1166Y5D01*
X1165Y5D01*
X1164Y5D01*
X1163Y5D01*
X1162Y5D01*
X1161Y5D01*
X1160Y5D01*
X1159Y5D01*
X1158Y5D01*
X1157Y5D01*
X1156Y5D01*
X1155Y5D01*
X1154Y5D01*
X1153Y5D01*
X1152Y5D01*
X1151Y5D01*
X1150Y5D01*
X1149Y5D01*
X1148Y5D01*
X1147Y5D01*
X1146Y5D01*
X1145Y5D01*
X1144Y5D01*
X1143Y5D01*
X1142Y5D01*
X1141Y5D01*
X1140Y5D01*
X1139Y5D01*
X1138Y5D01*
X1137Y5D01*
X1136Y5D01*
X1135Y5D01*
X1134Y5D01*
X1133Y5D01*
X1132Y5D01*
X1131Y5D01*
X1130Y5D01*
X1129Y5D01*
X1128Y5D01*
X1127Y5D01*
X1126Y5D01*
X1125Y5D01*
X1124Y5D01*
X1123Y5D01*
X1122Y5D01*
X1121Y5D01*
X1120Y5D01*
X1119Y5D01*
X1118Y5D01*
X1117Y5D01*
X1116Y5D01*
X1115Y5D01*
X1114Y5D01*
X1113Y5D01*
X1112Y5D01*
X1111Y5D01*
X1110Y5D01*
X1109Y5D01*
X1108Y5D01*
X1107Y5D01*
X1106Y5D01*
X1105Y5D01*
X1104Y5D01*
X1103Y5D01*
X1102Y5D01*
X1101Y5D01*
X1100Y5D01*
X1099Y5D01*
X1098Y5D01*
X1097Y5D01*
X1096Y5D01*
X1095Y5D01*
X1094Y5D01*
X1093Y5D01*
X1092Y5D01*
X1091Y5D01*
X1090Y5D01*
X1089Y5D01*
X1088Y5D01*
X1087Y5D01*
X1086Y5D01*
X1085Y5D01*
X1084Y5D01*
X1083Y5D01*
X1082Y5D01*
X1081Y5D01*
X1080Y5D01*
X1079Y5D01*
X1078Y5D01*
X1077Y5D01*
X1076Y5D01*
X1075Y5D01*
X1074Y5D01*
X1073Y5D01*
X1072Y5D01*
X1071Y5D01*
X1070Y5D01*
X1069Y5D01*
X1068Y5D01*
X1067Y5D01*
X1066Y5D01*
X1065Y5D01*
X1064Y5D01*
X1063Y5D01*
X1062Y5D01*
X1061Y5D01*
X1060Y5D01*
X1059Y5D01*
X1058Y5D01*
X1057Y5D01*
X1056Y5D01*
X1055Y5D01*
X1054Y5D01*
X1053Y5D01*
X1052Y5D01*
X1051Y5D01*
X1050Y5D01*
X1049Y5D01*
X1048Y5D01*
X1047Y5D01*
X1046Y5D01*
X1045Y5D01*
X1044Y5D01*
X1043Y5D01*
X1042Y5D01*
X1041Y5D01*
X1040Y5D01*
X1039Y5D01*
X1038Y5D01*
X1037Y5D01*
X1036Y5D01*
X1035Y5D01*
X1034Y5D01*
X1033Y5D01*
X1032Y5D01*
X1031Y5D01*
X1030Y5D01*
X1029Y5D01*
X1028Y5D01*
X1027Y5D01*
X1026Y5D01*
X1025Y5D01*
X1024Y5D01*
X1023Y5D01*
X1022Y5D01*
X1021Y5D01*
X1020Y5D01*
X1019Y5D01*
X1018Y5D01*
X1017Y5D01*
X1016Y5D01*
X1015Y5D01*
X1014Y5D01*
X1013Y5D01*
X1012Y5D01*
X1011Y5D01*
X1010Y5D01*
X1009Y5D01*
X1008Y5D01*
X1007Y5D01*
X1006Y5D01*
X1005Y5D01*
X1004Y5D01*
X1003Y5D01*
X1002Y5D01*
X1001Y5D01*
X1000Y5D01*
X999Y5D01*
X998Y5D01*
X997Y5D01*
X996Y5D01*
X995Y5D01*
X994Y5D01*
X993Y5D01*
X992Y5D01*
X991Y5D01*
X990Y5D01*
X989Y5D01*
X988Y5D01*
X987Y5D01*
X986Y5D01*
X985Y5D01*
X984Y5D01*
X983Y5D01*
X982Y5D01*
X981Y5D01*
X980Y5D01*
X979Y5D01*
X978Y5D01*
X977Y5D01*
X976Y5D01*
X975Y5D01*
X974Y5D01*
X973Y5D01*
X972Y5D01*
X971Y5D01*
X970Y5D01*
X969Y5D01*
X968Y5D01*
X967Y5D01*
X966Y5D01*
X965Y5D01*
X964Y5D01*
X963Y5D01*
X962Y5D01*
X961Y5D01*
X960Y5D01*
X959Y5D01*
X958Y5D01*
X957Y5D01*
X956Y5D01*
X955Y5D01*
X954Y5D01*
X953Y5D01*
X952Y5D01*
X951Y5D01*
X950Y5D01*
X949Y5D01*
X948Y5D01*
X947Y5D01*
X946Y5D01*
X945Y5D01*
X944Y5D01*
X943Y5D01*
X942Y5D01*
X941Y5D01*
X940Y5D01*
X939Y5D01*
X938Y5D01*
X937Y5D01*
X936Y5D01*
X935Y5D01*
X934Y5D01*
X933Y5D01*
X932Y5D01*
X931Y5D01*
X930Y5D01*
X929Y5D01*
X928Y5D01*
X927Y5D01*
X926Y5D01*
X925Y5D01*
X924Y5D01*
X923Y5D01*
X922Y5D01*
X921Y5D01*
X920Y5D01*
X919Y5D01*
X918Y5D01*
X917Y5D01*
X916Y5D01*
X915Y5D01*
X914Y5D01*
X913Y5D01*
X912Y5D01*
X911Y5D01*
X910Y5D01*
X909Y5D01*
X908Y5D01*
X907Y5D01*
X906Y5D01*
X905Y5D01*
X904Y5D01*
X903Y5D01*
X902Y5D01*
X901Y5D01*
X900Y5D01*
X899Y5D01*
X898Y5D01*
X897Y5D01*
X896Y5D01*
X895Y5D01*
X894Y5D01*
X893Y5D01*
X892Y5D01*
X891Y5D01*
X890Y5D01*
X889Y5D01*
X888Y5D01*
X887Y5D01*
X886Y5D01*
X885Y5D01*
X884Y5D01*
X883Y5D01*
X882Y5D01*
X881Y5D01*
X880Y5D01*
X879Y5D01*
X878Y5D01*
X877Y5D01*
X876Y5D01*
X875Y5D01*
X874Y5D01*
X873Y5D01*
X872Y5D01*
X871Y5D01*
X870Y5D01*
X869Y5D01*
X868Y5D01*
X867Y5D01*
X866Y5D01*
X865Y5D01*
X864Y5D01*
X863Y5D01*
X862Y5D01*
X861Y5D01*
X860Y5D01*
X859Y5D01*
X858Y5D01*
X857Y5D01*
X856Y5D01*
X855Y5D01*
X854Y5D01*
X853Y5D01*
X852Y5D01*
X851Y5D01*
X850Y5D01*
X849Y5D01*
X848Y5D01*
X847Y5D01*
X846Y5D01*
X845Y5D01*
X844Y5D01*
X843Y5D01*
X842Y5D01*
X841Y5D01*
X840Y5D01*
X839Y5D01*
X838Y5D01*
X837Y5D01*
X836Y5D01*
X835Y5D01*
X834Y5D01*
X833Y5D01*
X832Y5D01*
X831Y5D01*
X830Y5D01*
X829Y5D01*
X828Y5D01*
X827Y5D01*
X826Y5D01*
X825Y5D01*
X824Y5D01*
X823Y5D01*
X822Y5D01*
X821Y5D01*
X820Y5D01*
X819Y5D01*
X818Y5D01*
X817Y5D01*
X816Y5D01*
X815Y5D01*
X814Y5D01*
X813Y5D01*
X812Y5D01*
X811Y5D01*
X810Y5D01*
X809Y5D01*
X808Y5D01*
X807Y5D01*
X806Y5D01*
X805Y5D01*
X804Y5D01*
X803Y5D01*
X802Y5D01*
X801Y5D01*
X800Y5D01*
X799Y5D01*
X798Y5D01*
X797Y5D01*
X796Y5D01*
X795Y5D01*
X794Y5D01*
X793Y5D01*
X792Y5D01*
X791Y5D01*
X790Y5D01*
X789Y5D01*
X788Y5D01*
X787Y5D01*
X786Y5D01*
X785Y5D01*
X784Y5D01*
X783Y5D01*
X782Y5D01*
X781Y5D01*
X780Y5D01*
X779Y5D01*
X778Y5D01*
X777Y5D01*
X776Y5D01*
X775Y5D01*
X774Y5D01*
X773Y5D01*
X772Y5D01*
X771Y5D01*
X770Y5D01*
X769Y5D01*
X768Y5D01*
X767Y5D01*
X766Y5D01*
X765Y5D01*
X764Y5D01*
X763Y5D01*
X762Y5D01*
X761Y5D01*
X760Y5D01*
X759Y5D01*
X758Y5D01*
X757Y5D01*
X756Y5D01*
X755Y5D01*
X754Y5D01*
X753Y5D01*
X752Y5D01*
X751Y5D01*
X750Y5D01*
X749Y5D01*
X748Y5D01*
X747Y5D01*
X746Y5D01*
X745Y5D01*
X744Y5D01*
X743Y5D01*
X742Y5D01*
X741Y5D01*
X740Y5D01*
X739Y5D01*
X738Y5D01*
X737Y5D01*
X736Y5D01*
X735Y5D01*
X734Y5D01*
X733Y5D01*
X732Y5D01*
X731Y5D01*
X730Y5D01*
X729Y5D01*
X728Y5D01*
X727Y5D01*
X726Y5D01*
X725Y5D01*
X724Y5D01*
X723Y5D01*
X722Y5D01*
X721Y5D01*
X720Y5D01*
X719Y5D01*
X718Y5D01*
X717Y5D01*
X716Y5D01*
X715Y5D01*
X714Y5D01*
X713Y5D01*
X712Y5D01*
X711Y5D01*
X710Y5D01*
X709Y5D01*
X708Y5D01*
X707Y5D01*
X706Y5D01*
X705Y5D01*
X704Y5D01*
X703Y5D01*
X702Y5D01*
X701Y5D01*
X700Y5D01*
X699Y5D01*
X698Y5D01*
X697Y5D01*
X696Y5D01*
X695Y5D01*
X694Y5D01*
X693Y5D01*
X692Y5D01*
X691Y5D01*
X690Y5D01*
X689Y5D01*
X688Y5D01*
X687Y5D01*
X686Y5D01*
X685Y5D01*
X684Y5D01*
X683Y5D01*
X682Y5D01*
X681Y5D01*
X680Y5D01*
X679Y5D01*
X678Y5D01*
X677Y5D01*
X676Y5D01*
X675Y5D01*
X674Y5D01*
X673Y5D01*
X672Y5D01*
X671Y5D01*
X670Y5D01*
X669Y5D01*
X668Y5D01*
X667Y5D01*
X666Y5D01*
X665Y5D01*
X664Y5D01*
X663Y5D01*
X662Y5D01*
X661Y5D01*
X660Y5D01*
X659Y5D01*
X658Y5D01*
X657Y5D01*
X656Y5D01*
X655Y5D01*
X654Y5D01*
X653Y5D01*
X652Y5D01*
X651Y5D01*
X650Y5D01*
X649Y5D01*
X648Y5D01*
X647Y5D01*
X646Y5D01*
X645Y5D01*
X644Y5D01*
X643Y5D01*
X642Y5D01*
X641Y5D01*
X640Y5D01*
X639Y5D01*
X638Y5D01*
X637Y5D01*
X636Y5D01*
X635Y5D01*
X634Y5D01*
X633Y5D01*
X632Y5D01*
X631Y5D01*
X630Y5D01*
X629Y5D01*
X628Y5D01*
X627Y5D01*
X626Y5D01*
X625Y5D01*
X624Y5D01*
X623Y5D01*
X622Y5D01*
X621Y5D01*
X620Y5D01*
X619Y5D01*
X618Y5D01*
X617Y5D01*
X616Y5D01*
X615Y5D01*
X614Y5D01*
X613Y5D01*
X612Y5D01*
X611Y5D01*
X610Y5D01*
X609Y5D01*
X608Y5D01*
X607Y5D01*
X606Y5D01*
X605Y5D01*
X604Y5D01*
X603Y5D01*
X602Y5D01*
X601Y5D01*
X600Y5D01*
X599Y5D01*
X598Y5D01*
X597Y5D01*
X596Y5D01*
X595Y5D01*
X594Y5D01*
X593Y5D01*
X592Y5D01*
X591Y5D01*
X590Y5D01*
X589Y5D01*
X588Y5D01*
X587Y5D01*
X586Y5D01*
X585Y5D01*
X584Y5D01*
X583Y5D01*
X582Y5D01*
X581Y5D01*
X580Y5D01*
X579Y5D01*
X578Y5D01*
X577Y5D01*
X576Y5D01*
X575Y5D01*
X574Y5D01*
X573Y5D01*
X572Y5D01*
X571Y5D01*
X570Y5D01*
X569Y5D01*
X568Y5D01*
X567Y5D01*
X566Y5D01*
X565Y5D01*
X564Y5D01*
X563Y5D01*
X562Y5D01*
X561Y5D01*
X560Y5D01*
X559Y5D01*
X558Y5D01*
X557Y5D01*
X556Y5D01*
X555Y5D01*
X554Y5D01*
X553Y5D01*
X552Y5D01*
X551Y5D01*
X550Y5D01*
X549Y5D01*
X548Y5D01*
X547Y5D01*
X546Y5D01*
X545Y5D01*
X544Y5D01*
X543Y5D01*
X542Y5D01*
X541Y5D01*
X540Y5D01*
X539Y5D01*
X538Y5D01*
X537Y5D01*
X536Y5D01*
X535Y5D01*
X534Y5D01*
X533Y5D01*
X532Y5D01*
X531Y5D01*
X530Y5D01*
X529Y5D01*
X528Y5D01*
X527Y5D01*
X526Y5D01*
X525Y5D01*
X524Y5D01*
X523Y5D01*
X522Y5D01*
X521Y5D01*
X520Y5D01*
X519Y5D01*
X518Y5D01*
X517Y5D01*
X516Y5D01*
X515Y5D01*
X514Y5D01*
X513Y5D01*
X512Y5D01*
X511Y5D01*
X510Y5D01*
X509Y5D01*
X508Y5D01*
X507Y5D01*
X506Y5D01*
X505Y5D01*
X504Y5D01*
X503Y5D01*
X502Y5D01*
X501Y5D01*
X500Y5D01*
X499Y5D01*
X498Y5D01*
X497Y5D01*
X496Y5D01*
X495Y5D01*
X494Y5D01*
X493Y5D01*
X492Y5D01*
X491Y5D01*
X490Y5D01*
X489Y5D01*
X488Y5D01*
X487Y5D01*
X486Y5D01*
X485Y5D01*
X484Y5D01*
X483Y5D01*
X482Y5D01*
X481Y5D01*
X480Y5D01*
X479Y5D01*
X478Y5D01*
X477Y5D01*
X476Y5D01*
X475Y5D01*
X474Y5D01*
X473Y5D01*
X472Y5D01*
X471Y5D01*
X470Y5D01*
X469Y5D01*
X468Y5D01*
X467Y5D01*
X466Y5D01*
X465Y5D01*
X464Y5D01*
X463Y5D01*
X462Y5D01*
X461Y5D01*
X460Y5D01*
X459Y5D01*
X458Y5D01*
X457Y5D01*
X456Y5D01*
X455Y5D01*
X454Y5D01*
X453Y5D01*
X452Y5D01*
X451Y5D01*
X450Y5D01*
X449Y5D01*
X448Y5D01*
X447Y5D01*
X446Y5D01*
X445Y5D01*
X444Y5D01*
X443Y5D01*
X442Y5D01*
X441Y5D01*
X440Y5D01*
X439Y5D01*
X438Y5D01*
X437Y5D01*
X436Y5D01*
X435Y5D01*
X434Y5D01*
X433Y5D01*
X432Y5D01*
X431Y5D01*
X430Y5D01*
X429Y5D01*
X428Y5D01*
X427Y5D01*
X426Y5D01*
X425Y5D01*
X424Y5D01*
X423Y5D01*
X422Y5D01*
X421Y5D01*
X420Y5D01*
X419Y5D01*
X418Y5D01*
X417Y5D01*
X416Y5D01*
X415Y5D01*
X414Y5D01*
X413Y5D01*
X412Y5D01*
X411Y5D01*
X410Y5D01*
X409Y5D01*
X408Y5D01*
X407Y5D01*
X406Y5D01*
X405Y5D01*
X404Y5D01*
X403Y5D01*
X402Y5D01*
X401Y5D01*
X400Y5D01*
X399Y5D01*
X398Y5D01*
X397Y5D01*
X396Y5D01*
X395Y5D01*
X394Y5D01*
X393Y5D01*
X392Y5D01*
X391Y5D01*
X390Y5D01*
X389Y5D01*
X388Y5D01*
X387Y5D01*
X386Y5D01*
X385Y5D01*
X384Y5D01*
X383Y5D01*
X382Y5D01*
X381Y5D01*
X380Y5D01*
X379Y5D01*
X378Y5D01*
X377Y5D01*
X376Y5D01*
X375Y5D01*
X374Y5D01*
X373Y5D01*
X372Y5D01*
X371Y5D01*
X370Y5D01*
X369Y5D01*
X368Y5D01*
X367Y5D01*
X366Y5D01*
X365Y5D01*
X364Y5D01*
X363Y5D01*
X362Y5D01*
X361Y5D01*
X360Y5D01*
X359Y5D01*
X358Y5D01*
X357Y5D01*
X356Y5D01*
X355Y5D01*
X354Y5D01*
X353Y5D01*
X352Y5D01*
X351Y5D01*
X350Y5D01*
X349Y5D01*
X348Y5D01*
X347Y5D01*
X346Y5D01*
X345Y5D01*
X344Y5D01*
X343Y5D01*
X342Y5D01*
X341Y5D01*
X340Y5D01*
X339Y5D01*
X338Y5D01*
X337Y5D01*
X336Y5D01*
X335Y5D01*
X334Y5D01*
X333Y5D01*
X332Y5D01*
X331Y5D01*
X330Y5D01*
X329Y5D01*
X328Y5D01*
X327Y5D01*
X326Y5D01*
X325Y5D01*
X324Y5D01*
X323Y5D01*
X322Y5D01*
X321Y5D01*
X320Y5D01*
X319Y5D01*
X318Y5D01*
X317Y5D01*
X316Y5D01*
X315Y5D01*
X314Y5D01*
X313Y5D01*
X312Y5D01*
X311Y5D01*
X310Y5D01*
X309Y5D01*
X308Y5D01*
X307Y5D01*
X306Y5D01*
X305Y5D01*
X304Y5D01*
X303Y5D01*
X302Y5D01*
X301Y5D01*
X300Y5D01*
X299Y5D01*
X298Y5D01*
X297Y5D01*
X296Y5D01*
X295Y5D01*
X294Y5D01*
X293Y5D01*
X292Y5D01*
X291Y5D01*
X290Y5D01*
X289Y5D01*
X288Y5D01*
X287Y5D01*
X286Y5D01*
X285Y5D01*
X284Y5D01*
X283Y5D01*
X282Y5D01*
X281Y5D01*
X280Y5D01*
X279Y5D01*
X278Y5D01*
X277Y5D01*
X276Y5D01*
X275Y5D01*
X274Y5D01*
X273Y5D01*
X272Y5D01*
X271Y5D01*
X270Y5D01*
X269Y5D01*
X268Y5D01*
X267Y5D01*
X266Y5D01*
X265Y5D01*
X264Y5D01*
X263Y5D01*
X262Y5D01*
X261Y5D01*
X260Y5D01*
X259Y5D01*
X258Y5D01*
X257Y5D01*
X256Y5D01*
X255Y5D01*
X254Y5D01*
X253Y5D01*
X252Y5D01*
X251Y5D01*
X250Y5D01*
X249Y5D01*
X248Y5D01*
X247Y5D01*
X246Y5D01*
X245Y5D01*
X244Y5D01*
X243Y5D01*
X242Y5D01*
X241Y5D01*
X240Y5D01*
X239Y5D01*
X238Y5D01*
X237Y5D01*
X236Y5D01*
X235Y5D01*
X234Y5D01*
X233Y5D01*
X232Y5D01*
X231Y5D01*
X230Y5D01*
X229Y5D01*
X228Y5D01*
X227Y5D01*
X226Y5D01*
X225Y5D01*
X224Y5D01*
X223Y5D01*
X222Y5D01*
X221Y5D01*
X220Y5D01*
X219Y5D01*
X218Y5D01*
X217Y5D01*
X216Y5D01*
X215Y5D01*
X214Y5D01*
X213Y5D01*
X212Y5D01*
X211Y5D01*
X210Y5D01*
X209Y5D01*
X208Y5D01*
X207Y5D01*
X206Y5D01*
X205Y5D01*
X204Y5D01*
X203Y5D01*
X202Y5D01*
X201Y5D01*
X200Y5D01*
X199Y5D01*
X198Y5D01*
X197Y5D01*
X196Y5D01*
X195Y5D01*
X194Y5D01*
X193Y5D01*
X192Y5D01*
X191Y5D01*
X190Y5D01*
X189Y5D01*
X188Y5D01*
X187Y5D01*
X186Y5D01*
X185Y5D01*
X184Y5D01*
X183Y5D01*
X182Y5D01*
X181Y5D01*
X180Y5D01*
X179Y5D01*
X178Y5D01*
X177Y5D01*
X176Y5D01*
X175Y5D01*
X174Y5D01*
X173Y5D01*
X172Y5D01*
X171Y5D01*
X170Y5D01*
X169Y5D01*
X168Y5D01*
X167Y5D01*
X166Y5D01*
X165Y5D01*
X164Y5D01*
X163Y5D01*
X162Y5D01*
X161Y5D01*
X160Y5D01*
X159Y5D01*
X158Y5D01*
X157Y5D01*
X156Y5D01*
X155Y5D01*
X154Y5D01*
X153Y5D01*
X152Y5D01*
X151Y5D01*
X150Y5D01*
X149Y5D01*
X148Y5D01*
X147Y5D01*
X146Y5D01*
X145Y5D01*
X144Y5D01*
X143Y5D01*
X142Y5D01*
X141Y5D01*
X140Y5D01*
X139Y5D01*
X138Y5D01*
X137Y5D01*
X136Y5D01*
X135Y5D01*
X134Y5D01*
X133Y5D01*
X132Y5D01*
X131Y5D01*
X130Y5D01*
X129Y5D01*
X128Y5D01*
X127Y5D01*
X126Y5D01*
X125Y5D01*
X124Y5D01*
X123Y5D01*
X122Y5D01*
X121Y5D01*
X120Y5D01*
X119Y5D01*
X118Y5D01*
X117Y5D01*
X116Y5D01*
X115Y5D01*
X114Y5D01*
X113Y5D01*
X112Y5D01*
X111Y5D01*
X110Y5D01*
X109Y5D01*
X108Y5D01*
X107Y5D01*
X106Y5D01*
X105Y5D01*
X104Y5D01*
X103Y5D01*
X102Y5D01*
X101Y5D01*
X100Y5D01*
X99Y5D01*
X98Y5D01*
X97Y5D01*
X96Y5D01*
X95Y5D01*
X94Y5D01*
X93Y5D01*
X92Y5D01*
X91Y5D01*
X90Y5D01*
X89Y5D01*
X88Y5D01*
X87Y5D01*
X86Y5D01*
X85Y5D01*
X84Y5D01*
X83Y5D01*
X82Y5D01*
X81Y5D01*
X80Y5D01*
X79Y5D01*
X78Y5D01*
X77Y5D01*
X76Y5D01*
X75Y5D01*
X74Y5D01*
X73Y5D01*
X72Y5D01*
X71Y5D01*
X70Y5D01*
X69Y5D01*
X68Y5D01*
X67Y5D01*
X66Y5D01*
X65Y5D01*
X64Y5D01*
X63Y6D01*
X62Y6D01*
X61Y6D01*
X60Y6D01*
X59Y6D01*
X58Y6D01*
X57Y7D01*
X56Y7D01*
X55Y7D01*
X54Y7D01*
X53Y8D01*
X52Y8D01*
X51Y8D01*
X50Y9D01*
X49Y9D01*
X48Y9D01*
X47Y10D01*
X46Y10D01*
X45Y11D01*
X44Y11D01*
X43Y12D01*
X42Y12D01*
X41Y13D01*
X40Y13D01*
X39Y14D01*
X38Y14D01*
X37Y15D01*
X36Y16D01*
X35Y16D01*
X34Y17D01*
X33Y18D01*
X32Y18D01*
X31Y19D01*
X30Y20D01*
X29Y21D01*
X28Y21D01*
X27Y22D01*
X26Y23D01*
X25Y24D01*
X24Y25D01*
X23Y26D01*
X22Y27D01*
X22Y28D01*
X21Y29D01*
X20Y30D01*
X19Y31D01*
X18Y32D01*
X18Y33D01*
X17Y34D01*
X16Y35D01*
X15Y36D01*
X15Y37D01*
X14Y38D01*
X14Y39D01*
X13Y40D01*
X13Y41D01*
X12Y42D01*
X12Y43D01*
X11Y44D01*
X11Y45D01*
X10Y46D01*
X10Y47D01*
X9Y48D01*
X9Y50D01*
X8Y51D01*
X8Y52D01*
X7Y53D01*
X7Y56D01*
X6Y57D01*
X6Y60D01*
X5Y61D01*
X5Y66D01*
X4Y67D01*
X4Y1121D01*
X5Y1122D01*
X5Y1127D01*
X6Y1128D01*
X6Y1131D01*
X7Y1132D01*
X7Y1135D01*
X8Y1136D01*
X8Y1137D01*
X9Y1138D01*
X9Y1140D01*
X10Y1141D01*
X10Y1142D01*
X11Y1143D01*
X11Y1144D01*
X12Y1145D01*
X12Y1146D01*
X13Y1147D01*
X13Y1148D01*
X14Y1149D01*
X14Y1150D01*
X15Y1151D01*
X15Y1152D01*
X16Y1153D01*
X17Y1154D01*
X18Y1155D01*
X18Y1156D01*
X19Y1157D01*
X20Y1158D01*
X21Y1159D01*
X22Y1160D01*
X22Y1161D01*
X23Y1162D01*
X24Y1163D01*
X25Y1164D01*
X26Y1165D01*
X27Y1166D01*
X28Y1167D01*
X29Y1167D01*
X30Y1168D01*
X31Y1169D01*
X32Y1170D01*
X33Y1170D01*
X34Y1171D01*
X35Y1172D01*
X36Y1172D01*
X37Y1173D01*
X38Y1174D01*
X39Y1174D01*
X40Y1175D01*
X41Y1175D01*
X42Y1176D01*
X43Y1176D01*
X44Y1177D01*
X45Y1177D01*
X46Y1178D01*
X47Y1178D01*
X48Y1179D01*
X49Y1179D01*
X50Y1179D01*
X51Y1180D01*
X52Y1180D01*
X53Y1180D01*
X54Y1181D01*
X55Y1181D01*
X56Y1181D01*
X57Y1181D01*
X58Y1182D01*
X59Y1182D01*
X60Y1182D01*
X61Y1182D01*
X62Y1182D01*
X63Y1182D01*
X64Y1183D01*
D02*
G04 End of contour*
M02*