G04 MADE WITH FRITZING*
G04 WWW.FRITZING.ORG*
G04 DOUBLE SIDED*
G04 HOLES PLATED*
G04 CONTOUR ON CENTER OF CONTOUR VECTOR*
%ASAXBY*%
%FSLAX23Y23*%
%MOIN*%
%OFA0B0*%
%SFA1.0B1.0*%
%ADD10C,0.010000*%
%ADD11R,0.001000X0.001000*%
%LNSILK0*%
G90*
G70*
G54D10*
X360Y599D02*
X360Y449D01*
D02*
X360Y449D02*
X410Y449D01*
D02*
X410Y449D02*
X410Y599D01*
D02*
X410Y599D02*
X360Y599D01*
D02*
X681Y106D02*
X481Y106D01*
D02*
X481Y106D02*
X481Y40D01*
D02*
X481Y40D02*
X681Y40D01*
D02*
X681Y40D02*
X681Y106D01*
G54D11*
X380Y631D02*
X389Y631D01*
X380Y630D02*
X389Y630D01*
X380Y629D02*
X389Y629D01*
X380Y628D02*
X389Y628D01*
X380Y627D02*
X389Y627D01*
X380Y626D02*
X389Y626D01*
X380Y625D02*
X389Y625D01*
X380Y624D02*
X389Y624D01*
X380Y623D02*
X389Y623D01*
X380Y622D02*
X389Y622D01*
X380Y621D02*
X389Y621D01*
X380Y620D02*
X389Y620D01*
X380Y619D02*
X389Y619D01*
X380Y618D02*
X389Y618D01*
X380Y617D02*
X389Y617D01*
X380Y616D02*
X389Y616D01*
X380Y615D02*
X389Y615D01*
X380Y614D02*
X389Y614D01*
X380Y613D02*
X389Y613D01*
X380Y612D02*
X389Y612D01*
X380Y611D02*
X389Y611D01*
X380Y610D02*
X389Y610D01*
X380Y609D02*
X389Y609D01*
X380Y608D02*
X389Y608D01*
X380Y607D02*
X389Y607D01*
X380Y606D02*
X389Y606D01*
X380Y605D02*
X389Y605D01*
X380Y604D02*
X389Y604D01*
X380Y603D02*
X389Y603D01*
X380Y602D02*
X389Y602D01*
X380Y601D02*
X389Y601D01*
X380Y600D02*
X389Y600D01*
X380Y449D02*
X389Y449D01*
X380Y448D02*
X389Y448D01*
X380Y447D02*
X389Y447D01*
X380Y446D02*
X389Y446D01*
X380Y445D02*
X389Y445D01*
X380Y444D02*
X389Y444D01*
X380Y443D02*
X389Y443D01*
X380Y442D02*
X389Y442D01*
X380Y441D02*
X389Y441D01*
X380Y440D02*
X389Y440D01*
X380Y439D02*
X389Y439D01*
X380Y438D02*
X389Y438D01*
X380Y437D02*
X389Y437D01*
X380Y436D02*
X389Y436D01*
X380Y435D02*
X389Y435D01*
X380Y434D02*
X389Y434D01*
X380Y433D02*
X389Y433D01*
X380Y432D02*
X389Y432D01*
X380Y431D02*
X389Y431D01*
X380Y430D02*
X389Y430D01*
X380Y429D02*
X389Y429D01*
X380Y428D02*
X389Y428D01*
X380Y427D02*
X389Y427D01*
X380Y426D02*
X389Y426D01*
X380Y425D02*
X389Y425D01*
X380Y424D02*
X389Y424D01*
X380Y423D02*
X389Y423D01*
X380Y422D02*
X389Y422D01*
X380Y421D02*
X389Y421D01*
X380Y420D02*
X389Y420D01*
X380Y419D02*
X389Y419D01*
X380Y418D02*
X389Y418D01*
X380Y417D02*
X389Y417D01*
X380Y416D02*
X383Y416D01*
X385Y416D02*
X389Y416D01*
X267Y328D02*
X318Y328D01*
X267Y327D02*
X319Y327D01*
X267Y326D02*
X320Y326D01*
X267Y325D02*
X320Y325D01*
X267Y324D02*
X320Y324D01*
X267Y323D02*
X320Y323D01*
X267Y322D02*
X319Y322D01*
X267Y321D02*
X273Y321D01*
X285Y321D02*
X291Y321D01*
X267Y320D02*
X273Y320D01*
X285Y320D02*
X291Y320D01*
X267Y319D02*
X273Y319D01*
X285Y319D02*
X291Y319D01*
X267Y318D02*
X273Y318D01*
X285Y318D02*
X291Y318D01*
X267Y317D02*
X273Y317D01*
X285Y317D02*
X291Y317D01*
X267Y316D02*
X273Y316D01*
X285Y316D02*
X292Y316D01*
X267Y315D02*
X273Y315D01*
X285Y315D02*
X293Y315D01*
X267Y314D02*
X273Y314D01*
X285Y314D02*
X295Y314D01*
X267Y313D02*
X273Y313D01*
X297Y313D02*
X297Y313D01*
X267Y312D02*
X273Y312D01*
X267Y311D02*
X273Y311D01*
X267Y310D02*
X273Y310D01*
X267Y309D02*
X271Y309D01*
X267Y308D02*
X270Y308D01*
X267Y307D02*
X268Y307D01*
X320Y246D02*
X320Y246D01*
X319Y245D02*
X320Y245D01*
X318Y244D02*
X319Y244D01*
X328Y196D02*
X344Y196D01*
X329Y195D02*
X344Y195D01*
X330Y194D02*
X344Y194D01*
X330Y193D02*
X344Y193D01*
X331Y192D02*
X344Y192D01*
X331Y191D02*
X344Y191D01*
X331Y190D02*
X344Y190D01*
X338Y189D02*
X344Y189D01*
X338Y188D02*
X344Y188D01*
X338Y187D02*
X344Y187D01*
X338Y186D02*
X344Y186D01*
X338Y185D02*
X344Y185D01*
X338Y184D02*
X344Y184D01*
X338Y183D02*
X344Y183D01*
X338Y182D02*
X344Y182D01*
X338Y181D02*
X344Y181D01*
X338Y180D02*
X344Y180D01*
X338Y179D02*
X344Y179D01*
X334Y178D02*
X344Y178D01*
X334Y177D02*
X344Y177D01*
X335Y176D02*
X344Y176D01*
X335Y175D02*
X344Y175D01*
X335Y174D02*
X344Y174D01*
X335Y173D02*
X344Y173D01*
X335Y172D02*
X344Y172D01*
X338Y171D02*
X344Y171D01*
X338Y170D02*
X344Y170D01*
X338Y169D02*
X344Y169D01*
X338Y168D02*
X344Y168D01*
X338Y167D02*
X344Y167D01*
X338Y166D02*
X344Y166D01*
X338Y165D02*
X344Y165D01*
X338Y164D02*
X344Y164D01*
X338Y163D02*
X344Y163D01*
X338Y162D02*
X344Y162D01*
X338Y161D02*
X344Y161D01*
X338Y160D02*
X344Y160D01*
X338Y159D02*
X344Y159D01*
X338Y158D02*
X344Y158D01*
X338Y157D02*
X344Y157D01*
X338Y156D02*
X344Y156D01*
X338Y155D02*
X344Y155D01*
X338Y154D02*
X344Y154D01*
X338Y153D02*
X344Y153D01*
X338Y152D02*
X344Y152D01*
X338Y151D02*
X344Y151D01*
X338Y150D02*
X344Y150D01*
X338Y149D02*
X344Y149D01*
X338Y148D02*
X344Y148D01*
X338Y147D02*
X344Y147D01*
X338Y146D02*
X344Y146D01*
X338Y145D02*
X344Y145D01*
X338Y144D02*
X343Y144D01*
X339Y143D02*
X342Y143D01*
X432Y78D02*
X479Y78D01*
X680Y78D02*
X747Y78D01*
X432Y77D02*
X479Y77D01*
X680Y77D02*
X747Y77D01*
X432Y76D02*
X479Y76D01*
X680Y76D02*
X747Y76D01*
X432Y75D02*
X479Y75D01*
X680Y75D02*
X746Y75D01*
X432Y74D02*
X479Y74D01*
X680Y74D02*
X746Y74D01*
X432Y73D02*
X479Y73D01*
X680Y73D02*
X746Y73D01*
X432Y72D02*
X479Y72D01*
X680Y72D02*
X746Y72D01*
X432Y71D02*
X479Y71D01*
X680Y71D02*
X747Y71D01*
X432Y70D02*
X479Y70D01*
X680Y70D02*
X747Y70D01*
X432Y69D02*
X479Y69D01*
X680Y69D02*
X747Y69D01*
D02*
G04 End of Silk0*
M02*