; NON-PLATED HOLES START AT T1
; THROUGH (PLATED) HOLES START AT T100
M48
INCH
T100C0.036000
T101C0.035000
T102C0.038000
%
T100
X008908Y008730
X014908Y008730
X010908Y002730
X004908Y002730
X004908Y008730
X006908Y002730
X011908Y002730
X002908Y008730
X007908Y002730
X008908Y002730
X009908Y002730
X010908Y008730
X003908Y008730
X003908Y002730
X012908Y008730
X001908Y008730
X013908Y002730
X001908Y002730
X012908Y002730
X014908Y002730
X011908Y008730
X000908Y008730
X002908Y002730
X013908Y008730
X007908Y008730
X000908Y002730
X005908Y008730
X009908Y008730
X005908Y002730
X006908Y008730
T101
X003846Y006730
X003846Y003730
X007901Y000730
X003901Y000730
T102
X020901Y004730
X021901Y005730
X020901Y010230
X005908Y009730
X007908Y001730
X006901Y003730
X014908Y001730
X017901Y011230
X002908Y009730
X001908Y009730
X019901Y010230
X008908Y009730
X005908Y001730
X013908Y009730
X013908Y001730
X010908Y009730
X014908Y009730
X017901Y006230
X019901Y000730
X018901Y000730
X021901Y011230
X021901Y010230
X012908Y001730
X019901Y001730
X002908Y001730
X003908Y009730
X014401Y005230
X000908Y001730
X004908Y009730
X020901Y008230
X005901Y003730
X001908Y001730
X006908Y009730
X011908Y009730
X000908Y009730
X009908Y001730
X019401Y003730
X019901Y008230
X021901Y000730
X018901Y001730
X020901Y000730
X017401Y003730
X011908Y001730
X010908Y001730
X017901Y001730
X020901Y011230
X004908Y001730
X017901Y010230
X009901Y003730
X006908Y001730
X012908Y009730
X007908Y009730
X008908Y001730
X018901Y011230
X003908Y001730
X010901Y007730
X004901Y003730
X017901Y000730
X021901Y004730
X009908Y009730
X020901Y005730
X019901Y011230
X018901Y010230
T00
M30
