G04 MADE WITH FRITZING*
G04 WWW.FRITZING.ORG*
G04 DOUBLE SIDED*
G04 HOLES PLATED*
G04 CONTOUR ON CENTER OF CONTOUR VECTOR*
%ASAXBY*%
%FSLAX23Y23*%
%MOIN*%
%OFA0B0*%
%SFA1.0B1.0*%
%ADD10C,0.075000*%
%ADD11C,0.078000*%
%ADD12C,0.024000*%
%LNCOPPER0*%
G90*
G70*
G54D10*
X1154Y775D03*
X1154Y475D03*
X1154Y775D03*
X1154Y475D03*
X1019Y304D03*
X1319Y304D03*
X1019Y304D03*
X1319Y304D03*
G54D11*
X1358Y174D03*
X1458Y174D03*
X1358Y174D03*
X1458Y174D03*
X1365Y774D03*
X1465Y774D03*
X1365Y774D03*
X1465Y774D03*
X815Y705D03*
X815Y605D03*
X815Y505D03*
X815Y405D03*
X815Y305D03*
X815Y205D03*
X815Y705D03*
X815Y605D03*
X815Y505D03*
X815Y405D03*
X815Y305D03*
X815Y205D03*
X924Y704D03*
X924Y604D03*
X924Y504D03*
X924Y404D03*
X924Y304D03*
X924Y204D03*
X924Y704D03*
X924Y604D03*
X924Y504D03*
X924Y404D03*
X924Y304D03*
X924Y204D03*
X61Y69D03*
X161Y69D03*
X261Y69D03*
X361Y69D03*
X461Y69D03*
X561Y69D03*
X661Y69D03*
X761Y69D03*
X861Y69D03*
X961Y69D03*
X1061Y69D03*
X1161Y69D03*
X1261Y69D03*
X1361Y69D03*
X1461Y69D03*
X64Y874D03*
X164Y874D03*
X264Y874D03*
X364Y874D03*
X464Y874D03*
X564Y874D03*
X664Y874D03*
X764Y874D03*
X864Y874D03*
X964Y874D03*
X1064Y874D03*
X1164Y874D03*
X1264Y874D03*
X1364Y874D03*
X1464Y874D03*
G54D12*
X846Y605D02*
X893Y604D01*
D02*
X1469Y601D02*
X1465Y844D01*
D02*
X954Y604D02*
X1469Y601D01*
D02*
X846Y505D02*
X893Y504D01*
D02*
X846Y405D02*
X893Y404D01*
D02*
X893Y304D02*
X846Y305D01*
D02*
X1316Y475D02*
X1318Y333D01*
D02*
X1182Y475D02*
X1316Y475D01*
D02*
X673Y506D02*
X677Y779D01*
D02*
X677Y779D02*
X1365Y778D01*
D02*
X1365Y778D02*
X1364Y844D01*
D02*
X785Y505D02*
X673Y506D01*
D02*
X990Y304D02*
X954Y304D01*
D02*
X1460Y302D02*
X1347Y304D01*
D02*
X1461Y99D02*
X1460Y302D01*
D02*
X1118Y174D02*
X1111Y399D01*
D02*
X1359Y174D02*
X1118Y174D01*
D02*
X1111Y400D02*
X954Y403D01*
D02*
X1361Y99D02*
X1359Y174D01*
G04 End of Copper0*
M02*