; NON-PLATED HOLES START AT T1
; THROUGH (PLATED) HOLES START AT T100
M48
INCH
T100C0.035000
T101C0.038000
%
T100
X010187Y003041
X011538Y007749
X013187Y003041
X011538Y004749
T101
X010640Y008742
X008154Y002053
X008154Y003053
X012612Y000686
X007640Y008742
X014578Y001744
X001612Y000686
X013640Y008742
X013612Y000686
X001640Y008742
X000640Y008742
X012640Y008742
X002612Y000686
X008154Y007053
X003640Y008742
X011612Y000686
X006640Y008742
X008154Y004053
X014650Y007741
X009235Y002037
X003612Y000686
X014612Y000686
X006612Y000686
X007612Y000686
X013578Y001744
X009612Y000686
X008612Y000686
X002640Y008742
X011640Y008742
X000612Y000686
X009235Y003037
X004640Y008742
X009235Y005037
X009235Y006037
X008640Y008742
X005612Y000686
X010612Y000686
X009235Y007037
X008154Y005053
X014640Y008742
X009640Y008742
X013650Y007741
X008154Y006053
X009235Y004037
X004612Y000686
X005640Y008742
T00
M30
