G04 MADE WITH FRITZING*
G04 WWW.FRITZING.ORG*
G04 DOUBLE SIDED*
G04 HOLES PLATED*
G04 CONTOUR ON CENTER OF CONTOUR VECTOR*
%ASAXBY*%
%FSLAX23Y23*%
%MOIN*%
%OFA0B0*%
%SFA1.0B1.0*%
%ADD10C,0.010000*%
%ADD11R,0.001000X0.001000*%
%LNSILK1*%
G90*
G70*
G54D10*
X11Y19D02*
X1511Y19D01*
D02*
X1511Y19D02*
X1511Y119D01*
D02*
X1511Y119D02*
X11Y119D01*
D02*
X11Y119D02*
X11Y19D01*
D02*
X14Y824D02*
X1514Y824D01*
D02*
X1514Y824D02*
X1514Y924D01*
D02*
X1514Y924D02*
X14Y924D01*
D02*
X14Y924D02*
X14Y824D01*
G54D11*
X55Y946D02*
X1513Y946D01*
X49Y945D02*
X1519Y945D01*
X46Y944D02*
X1523Y944D01*
X42Y943D02*
X1526Y943D01*
X40Y942D02*
X1529Y942D01*
X37Y941D02*
X1531Y941D01*
X35Y940D02*
X1534Y940D01*
X33Y939D02*
X1536Y939D01*
X32Y938D02*
X54Y938D01*
X1514Y938D02*
X1537Y938D01*
X30Y937D02*
X49Y937D01*
X1520Y937D02*
X1539Y937D01*
X28Y936D02*
X45Y936D01*
X1524Y936D02*
X1541Y936D01*
X27Y935D02*
X42Y935D01*
X1526Y935D02*
X1542Y935D01*
X25Y934D02*
X40Y934D01*
X1529Y934D02*
X1544Y934D01*
X24Y933D02*
X38Y933D01*
X1531Y933D02*
X1545Y933D01*
X23Y932D02*
X36Y932D01*
X1533Y932D02*
X1546Y932D01*
X22Y931D02*
X34Y931D01*
X1535Y931D02*
X1547Y931D01*
X21Y930D02*
X33Y930D01*
X1536Y930D02*
X1548Y930D01*
X19Y929D02*
X31Y929D01*
X1538Y929D02*
X1550Y929D01*
X18Y928D02*
X30Y928D01*
X1539Y928D02*
X1551Y928D01*
X17Y927D02*
X28Y927D01*
X1541Y927D02*
X1552Y927D01*
X17Y926D02*
X27Y926D01*
X1542Y926D02*
X1552Y926D01*
X16Y925D02*
X26Y925D01*
X1543Y925D02*
X1553Y925D01*
X15Y924D02*
X25Y924D01*
X1544Y924D02*
X1554Y924D01*
X14Y923D02*
X24Y923D01*
X1545Y923D02*
X1555Y923D01*
X13Y922D02*
X23Y922D01*
X1546Y922D02*
X1556Y922D01*
X12Y921D02*
X22Y921D01*
X1547Y921D02*
X1557Y921D01*
X12Y920D02*
X21Y920D01*
X1548Y920D02*
X1557Y920D01*
X11Y919D02*
X20Y919D01*
X1549Y919D02*
X1558Y919D01*
X10Y918D02*
X19Y918D01*
X1550Y918D02*
X1559Y918D01*
X10Y917D02*
X18Y917D01*
X1551Y917D02*
X1559Y917D01*
X9Y916D02*
X18Y916D01*
X1551Y916D02*
X1560Y916D01*
X9Y915D02*
X17Y915D01*
X1552Y915D02*
X1560Y915D01*
X8Y914D02*
X16Y914D01*
X1553Y914D02*
X1561Y914D01*
X7Y913D02*
X16Y913D01*
X1553Y913D02*
X1562Y913D01*
X7Y912D02*
X15Y912D01*
X1554Y912D02*
X1562Y912D01*
X6Y911D02*
X14Y911D01*
X1555Y911D02*
X1563Y911D01*
X6Y910D02*
X14Y910D01*
X1555Y910D02*
X1563Y910D01*
X5Y909D02*
X13Y909D01*
X1556Y909D02*
X1564Y909D01*
X5Y908D02*
X13Y908D01*
X1556Y908D02*
X1564Y908D01*
X5Y907D02*
X12Y907D01*
X1557Y907D02*
X1564Y907D01*
X4Y906D02*
X12Y906D01*
X1557Y906D02*
X1565Y906D01*
X4Y905D02*
X11Y905D01*
X1558Y905D02*
X1565Y905D01*
X4Y904D02*
X11Y904D01*
X1558Y904D02*
X1565Y904D01*
X3Y903D02*
X11Y903D01*
X1558Y903D02*
X1566Y903D01*
X3Y902D02*
X10Y902D01*
X1559Y902D02*
X1566Y902D01*
X3Y901D02*
X10Y901D01*
X1559Y901D02*
X1566Y901D01*
X2Y900D02*
X9Y900D01*
X1560Y900D02*
X1567Y900D01*
X2Y899D02*
X9Y899D01*
X1560Y899D02*
X1567Y899D01*
X2Y898D02*
X9Y898D01*
X1560Y898D02*
X1567Y898D01*
X2Y897D02*
X9Y897D01*
X1560Y897D02*
X1567Y897D01*
X1Y896D02*
X8Y896D01*
X1561Y896D02*
X1568Y896D01*
X1Y895D02*
X8Y895D01*
X1561Y895D02*
X1568Y895D01*
X1Y894D02*
X8Y894D01*
X1561Y894D02*
X1568Y894D01*
X1Y893D02*
X8Y893D01*
X1561Y893D02*
X1568Y893D01*
X1Y892D02*
X8Y892D01*
X1561Y892D02*
X1568Y892D01*
X1Y891D02*
X8Y891D01*
X1561Y891D02*
X1569Y891D01*
X0Y890D02*
X7Y890D01*
X1562Y890D02*
X1569Y890D01*
X0Y889D02*
X7Y889D01*
X1562Y889D02*
X1569Y889D01*
X0Y888D02*
X7Y888D01*
X1562Y888D02*
X1569Y888D01*
X0Y887D02*
X7Y887D01*
X1562Y887D02*
X1569Y887D01*
X0Y886D02*
X7Y886D01*
X1562Y886D02*
X1569Y886D01*
X0Y885D02*
X7Y885D01*
X1562Y885D02*
X1569Y885D01*
X0Y884D02*
X7Y884D01*
X1562Y884D02*
X1569Y884D01*
X0Y883D02*
X7Y883D01*
X1562Y883D02*
X1569Y883D01*
X0Y882D02*
X7Y882D01*
X1562Y882D02*
X1569Y882D01*
X0Y881D02*
X7Y881D01*
X1562Y881D02*
X1569Y881D01*
X0Y880D02*
X7Y880D01*
X1562Y880D02*
X1569Y880D01*
X0Y879D02*
X7Y879D01*
X1562Y879D02*
X1569Y879D01*
X0Y878D02*
X7Y878D01*
X1562Y878D02*
X1569Y878D01*
X0Y877D02*
X7Y877D01*
X1562Y877D02*
X1569Y877D01*
X0Y876D02*
X7Y876D01*
X1562Y876D02*
X1569Y876D01*
X0Y875D02*
X7Y875D01*
X1562Y875D02*
X1569Y875D01*
X0Y874D02*
X7Y874D01*
X1562Y874D02*
X1569Y874D01*
X0Y873D02*
X7Y873D01*
X1562Y873D02*
X1569Y873D01*
X0Y872D02*
X7Y872D01*
X1562Y872D02*
X1569Y872D01*
X0Y871D02*
X7Y871D01*
X1562Y871D02*
X1569Y871D01*
X0Y870D02*
X7Y870D01*
X1562Y870D02*
X1569Y870D01*
X0Y869D02*
X7Y869D01*
X1562Y869D02*
X1569Y869D01*
X0Y868D02*
X7Y868D01*
X1562Y868D02*
X1569Y868D01*
X0Y867D02*
X7Y867D01*
X1562Y867D02*
X1569Y867D01*
X0Y866D02*
X7Y866D01*
X1562Y866D02*
X1569Y866D01*
X0Y865D02*
X7Y865D01*
X1562Y865D02*
X1569Y865D01*
X0Y864D02*
X7Y864D01*
X1562Y864D02*
X1569Y864D01*
X0Y863D02*
X7Y863D01*
X1562Y863D02*
X1569Y863D01*
X0Y862D02*
X7Y862D01*
X1562Y862D02*
X1569Y862D01*
X0Y861D02*
X7Y861D01*
X15Y861D02*
X16Y861D01*
X1562Y861D02*
X1569Y861D01*
X0Y860D02*
X7Y860D01*
X14Y860D02*
X17Y860D01*
X1562Y860D02*
X1569Y860D01*
X0Y859D02*
X7Y859D01*
X13Y859D02*
X18Y859D01*
X1562Y859D02*
X1569Y859D01*
X0Y858D02*
X7Y858D01*
X13Y858D02*
X19Y858D01*
X1562Y858D02*
X1569Y858D01*
X0Y857D02*
X7Y857D01*
X14Y857D02*
X20Y857D01*
X1562Y857D02*
X1569Y857D01*
X0Y856D02*
X7Y856D01*
X15Y856D02*
X21Y856D01*
X1562Y856D02*
X1569Y856D01*
X0Y855D02*
X7Y855D01*
X16Y855D02*
X22Y855D01*
X1562Y855D02*
X1569Y855D01*
X0Y854D02*
X7Y854D01*
X17Y854D02*
X23Y854D01*
X1562Y854D02*
X1569Y854D01*
X0Y853D02*
X7Y853D01*
X18Y853D02*
X24Y853D01*
X1562Y853D02*
X1569Y853D01*
X0Y852D02*
X7Y852D01*
X19Y852D02*
X25Y852D01*
X1562Y852D02*
X1569Y852D01*
X0Y851D02*
X7Y851D01*
X20Y851D02*
X26Y851D01*
X1562Y851D02*
X1569Y851D01*
X0Y850D02*
X7Y850D01*
X21Y850D02*
X27Y850D01*
X1562Y850D02*
X1569Y850D01*
X0Y849D02*
X7Y849D01*
X22Y849D02*
X28Y849D01*
X1562Y849D02*
X1569Y849D01*
X0Y848D02*
X7Y848D01*
X23Y848D02*
X29Y848D01*
X1562Y848D02*
X1569Y848D01*
X0Y847D02*
X7Y847D01*
X24Y847D02*
X29Y847D01*
X1562Y847D02*
X1569Y847D01*
X0Y846D02*
X7Y846D01*
X25Y846D02*
X30Y846D01*
X1562Y846D02*
X1569Y846D01*
X0Y845D02*
X7Y845D01*
X26Y845D02*
X31Y845D01*
X1562Y845D02*
X1569Y845D01*
X0Y844D02*
X7Y844D01*
X27Y844D02*
X32Y844D01*
X1562Y844D02*
X1569Y844D01*
X0Y843D02*
X7Y843D01*
X28Y843D02*
X33Y843D01*
X1562Y843D02*
X1569Y843D01*
X0Y842D02*
X7Y842D01*
X29Y842D02*
X34Y842D01*
X1562Y842D02*
X1569Y842D01*
X0Y841D02*
X7Y841D01*
X30Y841D02*
X36Y841D01*
X1562Y841D02*
X1569Y841D01*
X0Y840D02*
X7Y840D01*
X31Y840D02*
X37Y840D01*
X1562Y840D02*
X1569Y840D01*
X0Y839D02*
X7Y839D01*
X32Y839D02*
X38Y839D01*
X1562Y839D02*
X1569Y839D01*
X0Y838D02*
X7Y838D01*
X33Y838D02*
X39Y838D01*
X1562Y838D02*
X1569Y838D01*
X0Y837D02*
X7Y837D01*
X34Y837D02*
X40Y837D01*
X1562Y837D02*
X1569Y837D01*
X0Y836D02*
X7Y836D01*
X35Y836D02*
X41Y836D01*
X1562Y836D02*
X1569Y836D01*
X0Y835D02*
X7Y835D01*
X36Y835D02*
X42Y835D01*
X1562Y835D02*
X1569Y835D01*
X0Y834D02*
X7Y834D01*
X37Y834D02*
X43Y834D01*
X1562Y834D02*
X1569Y834D01*
X0Y833D02*
X7Y833D01*
X38Y833D02*
X44Y833D01*
X1562Y833D02*
X1569Y833D01*
X0Y832D02*
X7Y832D01*
X39Y832D02*
X45Y832D01*
X1562Y832D02*
X1569Y832D01*
X0Y831D02*
X7Y831D01*
X40Y831D02*
X46Y831D01*
X1562Y831D02*
X1569Y831D01*
X0Y830D02*
X7Y830D01*
X41Y830D02*
X47Y830D01*
X1562Y830D02*
X1569Y830D01*
X0Y829D02*
X7Y829D01*
X42Y829D02*
X48Y829D01*
X1562Y829D02*
X1569Y829D01*
X0Y828D02*
X7Y828D01*
X43Y828D02*
X49Y828D01*
X1562Y828D02*
X1569Y828D01*
X0Y827D02*
X7Y827D01*
X44Y827D02*
X50Y827D01*
X1562Y827D02*
X1569Y827D01*
X0Y826D02*
X7Y826D01*
X45Y826D02*
X49Y826D01*
X1562Y826D02*
X1569Y826D01*
X0Y825D02*
X7Y825D01*
X46Y825D02*
X48Y825D01*
X1562Y825D02*
X1569Y825D01*
X0Y824D02*
X7Y824D01*
X47Y824D02*
X47Y824D01*
X1562Y824D02*
X1569Y824D01*
X0Y823D02*
X7Y823D01*
X1562Y823D02*
X1569Y823D01*
X0Y822D02*
X7Y822D01*
X1562Y822D02*
X1569Y822D01*
X0Y821D02*
X7Y821D01*
X1562Y821D02*
X1569Y821D01*
X0Y820D02*
X7Y820D01*
X1562Y820D02*
X1569Y820D01*
X0Y819D02*
X7Y819D01*
X1562Y819D02*
X1569Y819D01*
X0Y818D02*
X7Y818D01*
X1562Y818D02*
X1569Y818D01*
X0Y817D02*
X7Y817D01*
X1562Y817D02*
X1569Y817D01*
X0Y816D02*
X7Y816D01*
X1562Y816D02*
X1569Y816D01*
X0Y815D02*
X7Y815D01*
X1562Y815D02*
X1569Y815D01*
X0Y814D02*
X7Y814D01*
X1562Y814D02*
X1569Y814D01*
X0Y813D02*
X7Y813D01*
X1562Y813D02*
X1569Y813D01*
X0Y812D02*
X7Y812D01*
X1562Y812D02*
X1569Y812D01*
X0Y811D02*
X7Y811D01*
X1562Y811D02*
X1569Y811D01*
X0Y810D02*
X7Y810D01*
X1562Y810D02*
X1569Y810D01*
X0Y809D02*
X7Y809D01*
X1562Y809D02*
X1569Y809D01*
X0Y808D02*
X7Y808D01*
X1562Y808D02*
X1569Y808D01*
X0Y807D02*
X7Y807D01*
X1562Y807D02*
X1569Y807D01*
X0Y806D02*
X7Y806D01*
X1562Y806D02*
X1569Y806D01*
X0Y805D02*
X7Y805D01*
X1562Y805D02*
X1569Y805D01*
X0Y804D02*
X7Y804D01*
X1562Y804D02*
X1569Y804D01*
X0Y803D02*
X7Y803D01*
X1562Y803D02*
X1569Y803D01*
X0Y802D02*
X7Y802D01*
X1562Y802D02*
X1569Y802D01*
X0Y801D02*
X7Y801D01*
X1562Y801D02*
X1569Y801D01*
X0Y800D02*
X7Y800D01*
X1562Y800D02*
X1569Y800D01*
X0Y799D02*
X7Y799D01*
X1562Y799D02*
X1569Y799D01*
X0Y798D02*
X7Y798D01*
X1562Y798D02*
X1569Y798D01*
X0Y797D02*
X7Y797D01*
X1562Y797D02*
X1569Y797D01*
X0Y796D02*
X7Y796D01*
X1562Y796D02*
X1569Y796D01*
X0Y795D02*
X7Y795D01*
X1562Y795D02*
X1569Y795D01*
X0Y794D02*
X7Y794D01*
X1562Y794D02*
X1569Y794D01*
X0Y793D02*
X7Y793D01*
X1562Y793D02*
X1569Y793D01*
X0Y792D02*
X7Y792D01*
X1562Y792D02*
X1569Y792D01*
X0Y791D02*
X7Y791D01*
X1562Y791D02*
X1569Y791D01*
X0Y790D02*
X7Y790D01*
X1562Y790D02*
X1569Y790D01*
X0Y789D02*
X7Y789D01*
X1562Y789D02*
X1569Y789D01*
X0Y788D02*
X7Y788D01*
X1562Y788D02*
X1569Y788D01*
X0Y787D02*
X7Y787D01*
X1562Y787D02*
X1569Y787D01*
X0Y786D02*
X7Y786D01*
X1562Y786D02*
X1569Y786D01*
X0Y785D02*
X7Y785D01*
X1562Y785D02*
X1569Y785D01*
X0Y784D02*
X7Y784D01*
X1562Y784D02*
X1569Y784D01*
X0Y783D02*
X7Y783D01*
X1562Y783D02*
X1569Y783D01*
X0Y782D02*
X7Y782D01*
X1562Y782D02*
X1569Y782D01*
X0Y781D02*
X7Y781D01*
X1562Y781D02*
X1569Y781D01*
X0Y780D02*
X7Y780D01*
X1562Y780D02*
X1569Y780D01*
X0Y779D02*
X7Y779D01*
X1562Y779D02*
X1569Y779D01*
X0Y778D02*
X7Y778D01*
X1562Y778D02*
X1569Y778D01*
X0Y777D02*
X7Y777D01*
X1562Y777D02*
X1569Y777D01*
X0Y776D02*
X7Y776D01*
X1562Y776D02*
X1569Y776D01*
X0Y775D02*
X7Y775D01*
X1562Y775D02*
X1569Y775D01*
X0Y774D02*
X7Y774D01*
X1562Y774D02*
X1569Y774D01*
X0Y773D02*
X7Y773D01*
X1562Y773D02*
X1569Y773D01*
X0Y772D02*
X7Y772D01*
X1562Y772D02*
X1569Y772D01*
X0Y771D02*
X7Y771D01*
X1562Y771D02*
X1569Y771D01*
X0Y770D02*
X7Y770D01*
X1562Y770D02*
X1569Y770D01*
X0Y769D02*
X7Y769D01*
X1562Y769D02*
X1569Y769D01*
X0Y768D02*
X7Y768D01*
X1562Y768D02*
X1569Y768D01*
X0Y767D02*
X7Y767D01*
X1562Y767D02*
X1569Y767D01*
X0Y766D02*
X7Y766D01*
X1562Y766D02*
X1569Y766D01*
X0Y765D02*
X7Y765D01*
X1562Y765D02*
X1569Y765D01*
X0Y764D02*
X7Y764D01*
X1562Y764D02*
X1569Y764D01*
X0Y763D02*
X7Y763D01*
X1562Y763D02*
X1569Y763D01*
X0Y762D02*
X7Y762D01*
X1562Y762D02*
X1569Y762D01*
X0Y761D02*
X7Y761D01*
X1562Y761D02*
X1569Y761D01*
X0Y760D02*
X7Y760D01*
X1562Y760D02*
X1569Y760D01*
X0Y759D02*
X7Y759D01*
X1562Y759D02*
X1569Y759D01*
X0Y758D02*
X7Y758D01*
X1562Y758D02*
X1569Y758D01*
X0Y757D02*
X7Y757D01*
X1562Y757D02*
X1569Y757D01*
X0Y756D02*
X7Y756D01*
X1562Y756D02*
X1569Y756D01*
X0Y755D02*
X7Y755D01*
X1562Y755D02*
X1569Y755D01*
X0Y754D02*
X7Y754D01*
X1562Y754D02*
X1569Y754D01*
X0Y753D02*
X7Y753D01*
X1562Y753D02*
X1569Y753D01*
X0Y752D02*
X7Y752D01*
X1562Y752D02*
X1569Y752D01*
X0Y751D02*
X7Y751D01*
X1562Y751D02*
X1569Y751D01*
X0Y750D02*
X7Y750D01*
X1562Y750D02*
X1569Y750D01*
X0Y749D02*
X7Y749D01*
X1562Y749D02*
X1569Y749D01*
X0Y748D02*
X7Y748D01*
X1562Y748D02*
X1569Y748D01*
X0Y747D02*
X7Y747D01*
X1562Y747D02*
X1569Y747D01*
X0Y746D02*
X7Y746D01*
X1562Y746D02*
X1569Y746D01*
X0Y745D02*
X7Y745D01*
X1562Y745D02*
X1569Y745D01*
X0Y744D02*
X7Y744D01*
X1562Y744D02*
X1569Y744D01*
X0Y743D02*
X7Y743D01*
X1562Y743D02*
X1569Y743D01*
X0Y742D02*
X7Y742D01*
X1562Y742D02*
X1569Y742D01*
X0Y741D02*
X7Y741D01*
X1562Y741D02*
X1569Y741D01*
X0Y740D02*
X7Y740D01*
X1562Y740D02*
X1569Y740D01*
X0Y739D02*
X7Y739D01*
X1562Y739D02*
X1569Y739D01*
X0Y738D02*
X7Y738D01*
X1562Y738D02*
X1569Y738D01*
X0Y737D02*
X7Y737D01*
X1562Y737D02*
X1569Y737D01*
X0Y736D02*
X7Y736D01*
X1562Y736D02*
X1569Y736D01*
X0Y735D02*
X7Y735D01*
X1562Y735D02*
X1569Y735D01*
X0Y734D02*
X7Y734D01*
X1562Y734D02*
X1569Y734D01*
X0Y733D02*
X7Y733D01*
X1562Y733D02*
X1569Y733D01*
X0Y732D02*
X7Y732D01*
X1562Y732D02*
X1569Y732D01*
X0Y731D02*
X7Y731D01*
X1562Y731D02*
X1569Y731D01*
X0Y730D02*
X7Y730D01*
X1562Y730D02*
X1569Y730D01*
X0Y729D02*
X7Y729D01*
X1562Y729D02*
X1569Y729D01*
X0Y728D02*
X7Y728D01*
X1562Y728D02*
X1569Y728D01*
X0Y727D02*
X7Y727D01*
X1562Y727D02*
X1569Y727D01*
X0Y726D02*
X7Y726D01*
X1562Y726D02*
X1569Y726D01*
X0Y725D02*
X7Y725D01*
X1562Y725D02*
X1569Y725D01*
X0Y724D02*
X7Y724D01*
X1562Y724D02*
X1569Y724D01*
X0Y723D02*
X7Y723D01*
X1562Y723D02*
X1569Y723D01*
X0Y722D02*
X7Y722D01*
X1562Y722D02*
X1569Y722D01*
X0Y721D02*
X7Y721D01*
X1562Y721D02*
X1569Y721D01*
X0Y720D02*
X7Y720D01*
X1562Y720D02*
X1569Y720D01*
X0Y719D02*
X7Y719D01*
X1562Y719D02*
X1569Y719D01*
X0Y718D02*
X7Y718D01*
X1562Y718D02*
X1569Y718D01*
X0Y717D02*
X7Y717D01*
X1562Y717D02*
X1569Y717D01*
X0Y716D02*
X7Y716D01*
X1562Y716D02*
X1569Y716D01*
X0Y715D02*
X7Y715D01*
X1562Y715D02*
X1569Y715D01*
X0Y714D02*
X7Y714D01*
X1562Y714D02*
X1569Y714D01*
X0Y713D02*
X7Y713D01*
X1562Y713D02*
X1569Y713D01*
X0Y712D02*
X7Y712D01*
X1562Y712D02*
X1569Y712D01*
X0Y711D02*
X7Y711D01*
X1562Y711D02*
X1569Y711D01*
X0Y710D02*
X7Y710D01*
X1562Y710D02*
X1569Y710D01*
X0Y709D02*
X7Y709D01*
X1562Y709D02*
X1569Y709D01*
X0Y708D02*
X7Y708D01*
X1562Y708D02*
X1569Y708D01*
X0Y707D02*
X7Y707D01*
X1562Y707D02*
X1569Y707D01*
X0Y706D02*
X7Y706D01*
X1562Y706D02*
X1569Y706D01*
X0Y705D02*
X7Y705D01*
X1562Y705D02*
X1569Y705D01*
X0Y704D02*
X7Y704D01*
X1562Y704D02*
X1569Y704D01*
X0Y703D02*
X7Y703D01*
X1562Y703D02*
X1569Y703D01*
X0Y702D02*
X7Y702D01*
X1562Y702D02*
X1569Y702D01*
X0Y701D02*
X7Y701D01*
X1562Y701D02*
X1569Y701D01*
X0Y700D02*
X7Y700D01*
X1562Y700D02*
X1569Y700D01*
X0Y699D02*
X7Y699D01*
X1562Y699D02*
X1569Y699D01*
X0Y698D02*
X7Y698D01*
X1562Y698D02*
X1569Y698D01*
X0Y697D02*
X7Y697D01*
X1562Y697D02*
X1569Y697D01*
X0Y696D02*
X7Y696D01*
X1562Y696D02*
X1569Y696D01*
X0Y695D02*
X7Y695D01*
X1562Y695D02*
X1569Y695D01*
X0Y694D02*
X7Y694D01*
X1562Y694D02*
X1569Y694D01*
X0Y693D02*
X7Y693D01*
X1562Y693D02*
X1569Y693D01*
X0Y692D02*
X7Y692D01*
X1562Y692D02*
X1569Y692D01*
X0Y691D02*
X7Y691D01*
X1562Y691D02*
X1569Y691D01*
X0Y690D02*
X7Y690D01*
X1562Y690D02*
X1569Y690D01*
X0Y689D02*
X7Y689D01*
X1562Y689D02*
X1569Y689D01*
X0Y688D02*
X7Y688D01*
X1562Y688D02*
X1569Y688D01*
X0Y687D02*
X7Y687D01*
X1562Y687D02*
X1569Y687D01*
X0Y686D02*
X7Y686D01*
X1562Y686D02*
X2295Y686D01*
X0Y685D02*
X7Y685D01*
X1562Y685D02*
X2297Y685D01*
X0Y684D02*
X7Y684D01*
X1562Y684D02*
X2298Y684D01*
X0Y683D02*
X7Y683D01*
X1562Y683D02*
X2298Y683D01*
X0Y682D02*
X7Y682D01*
X1562Y682D02*
X2298Y682D01*
X0Y681D02*
X7Y681D01*
X1562Y681D02*
X2298Y681D01*
X0Y680D02*
X7Y680D01*
X1563Y680D02*
X2298Y680D01*
X0Y679D02*
X7Y679D01*
X1564Y679D02*
X2298Y679D01*
X0Y678D02*
X7Y678D01*
X2291Y678D02*
X2298Y678D01*
X0Y677D02*
X7Y677D01*
X2291Y677D02*
X2298Y677D01*
X0Y676D02*
X7Y676D01*
X2291Y676D02*
X2298Y676D01*
X0Y675D02*
X7Y675D01*
X2291Y675D02*
X2298Y675D01*
X0Y674D02*
X7Y674D01*
X2291Y674D02*
X2298Y674D01*
X0Y673D02*
X7Y673D01*
X2291Y673D02*
X2298Y673D01*
X0Y672D02*
X7Y672D01*
X2291Y672D02*
X2298Y672D01*
X0Y671D02*
X7Y671D01*
X2291Y671D02*
X2298Y671D01*
X0Y670D02*
X7Y670D01*
X2291Y670D02*
X2298Y670D01*
X0Y669D02*
X7Y669D01*
X2291Y669D02*
X2298Y669D01*
X0Y668D02*
X7Y668D01*
X2291Y668D02*
X2298Y668D01*
X0Y667D02*
X7Y667D01*
X2291Y667D02*
X2298Y667D01*
X0Y666D02*
X7Y666D01*
X2291Y666D02*
X2298Y666D01*
X0Y665D02*
X7Y665D01*
X2291Y665D02*
X2298Y665D01*
X0Y664D02*
X7Y664D01*
X2291Y664D02*
X2298Y664D01*
X0Y663D02*
X7Y663D01*
X2291Y663D02*
X2298Y663D01*
X0Y662D02*
X7Y662D01*
X2291Y662D02*
X2298Y662D01*
X0Y661D02*
X7Y661D01*
X2291Y661D02*
X2298Y661D01*
X0Y660D02*
X7Y660D01*
X2291Y660D02*
X2298Y660D01*
X0Y659D02*
X7Y659D01*
X2291Y659D02*
X2298Y659D01*
X0Y658D02*
X7Y658D01*
X2291Y658D02*
X2298Y658D01*
X0Y657D02*
X7Y657D01*
X2291Y657D02*
X2298Y657D01*
X0Y656D02*
X7Y656D01*
X2291Y656D02*
X2298Y656D01*
X0Y655D02*
X7Y655D01*
X2291Y655D02*
X2298Y655D01*
X0Y654D02*
X7Y654D01*
X2291Y654D02*
X2298Y654D01*
X0Y653D02*
X7Y653D01*
X2291Y653D02*
X2298Y653D01*
X0Y652D02*
X7Y652D01*
X2291Y652D02*
X2298Y652D01*
X0Y651D02*
X7Y651D01*
X2291Y651D02*
X2298Y651D01*
X0Y650D02*
X7Y650D01*
X2291Y650D02*
X2298Y650D01*
X0Y649D02*
X7Y649D01*
X2291Y649D02*
X2298Y649D01*
X0Y648D02*
X7Y648D01*
X2291Y648D02*
X2298Y648D01*
X0Y647D02*
X7Y647D01*
X2291Y647D02*
X2298Y647D01*
X0Y646D02*
X7Y646D01*
X2291Y646D02*
X2298Y646D01*
X0Y645D02*
X7Y645D01*
X2291Y645D02*
X2298Y645D01*
X0Y644D02*
X7Y644D01*
X2291Y644D02*
X2298Y644D01*
X0Y643D02*
X7Y643D01*
X2291Y643D02*
X2298Y643D01*
X0Y642D02*
X7Y642D01*
X2291Y642D02*
X2298Y642D01*
X0Y641D02*
X7Y641D01*
X2291Y641D02*
X2298Y641D01*
X0Y640D02*
X7Y640D01*
X2291Y640D02*
X2298Y640D01*
X0Y639D02*
X7Y639D01*
X2291Y639D02*
X2298Y639D01*
X0Y638D02*
X7Y638D01*
X2291Y638D02*
X2298Y638D01*
X0Y637D02*
X7Y637D01*
X2291Y637D02*
X2298Y637D01*
X0Y636D02*
X7Y636D01*
X2291Y636D02*
X2298Y636D01*
X0Y635D02*
X7Y635D01*
X2291Y635D02*
X2298Y635D01*
X0Y634D02*
X7Y634D01*
X2291Y634D02*
X2298Y634D01*
X0Y633D02*
X7Y633D01*
X2291Y633D02*
X2298Y633D01*
X0Y632D02*
X7Y632D01*
X2291Y632D02*
X2298Y632D01*
X0Y631D02*
X7Y631D01*
X2291Y631D02*
X2298Y631D01*
X0Y630D02*
X7Y630D01*
X2291Y630D02*
X2298Y630D01*
X0Y629D02*
X7Y629D01*
X2291Y629D02*
X2298Y629D01*
X0Y628D02*
X7Y628D01*
X2291Y628D02*
X2298Y628D01*
X0Y627D02*
X7Y627D01*
X2291Y627D02*
X2298Y627D01*
X0Y626D02*
X7Y626D01*
X2291Y626D02*
X2298Y626D01*
X0Y625D02*
X7Y625D01*
X2291Y625D02*
X2298Y625D01*
X0Y624D02*
X7Y624D01*
X2291Y624D02*
X2298Y624D01*
X0Y623D02*
X7Y623D01*
X2291Y623D02*
X2298Y623D01*
X0Y622D02*
X7Y622D01*
X2291Y622D02*
X2298Y622D01*
X0Y621D02*
X7Y621D01*
X2291Y621D02*
X2298Y621D01*
X0Y620D02*
X7Y620D01*
X2291Y620D02*
X2298Y620D01*
X0Y619D02*
X7Y619D01*
X2291Y619D02*
X2298Y619D01*
X0Y618D02*
X7Y618D01*
X2291Y618D02*
X2298Y618D01*
X0Y617D02*
X7Y617D01*
X2291Y617D02*
X2298Y617D01*
X0Y616D02*
X7Y616D01*
X2291Y616D02*
X2298Y616D01*
X0Y615D02*
X7Y615D01*
X2291Y615D02*
X2298Y615D01*
X0Y614D02*
X7Y614D01*
X2291Y614D02*
X2298Y614D01*
X0Y613D02*
X7Y613D01*
X2291Y613D02*
X2298Y613D01*
X0Y612D02*
X7Y612D01*
X2291Y612D02*
X2298Y612D01*
X0Y611D02*
X7Y611D01*
X2291Y611D02*
X2298Y611D01*
X0Y610D02*
X7Y610D01*
X2291Y610D02*
X2298Y610D01*
X0Y609D02*
X7Y609D01*
X2291Y609D02*
X2298Y609D01*
X0Y608D02*
X7Y608D01*
X2291Y608D02*
X2298Y608D01*
X0Y607D02*
X7Y607D01*
X2291Y607D02*
X2298Y607D01*
X0Y606D02*
X7Y606D01*
X2291Y606D02*
X2298Y606D01*
X0Y605D02*
X7Y605D01*
X2291Y605D02*
X2298Y605D01*
X0Y604D02*
X7Y604D01*
X2291Y604D02*
X2298Y604D01*
X0Y603D02*
X7Y603D01*
X2291Y603D02*
X2298Y603D01*
X0Y602D02*
X7Y602D01*
X2291Y602D02*
X2298Y602D01*
X0Y601D02*
X7Y601D01*
X2291Y601D02*
X2298Y601D01*
X0Y600D02*
X7Y600D01*
X2291Y600D02*
X2298Y600D01*
X0Y599D02*
X7Y599D01*
X2291Y599D02*
X2298Y599D01*
X0Y598D02*
X7Y598D01*
X2291Y598D02*
X2298Y598D01*
X0Y597D02*
X7Y597D01*
X2291Y597D02*
X2298Y597D01*
X0Y596D02*
X7Y596D01*
X2291Y596D02*
X2298Y596D01*
X0Y595D02*
X7Y595D01*
X2291Y595D02*
X2298Y595D01*
X0Y594D02*
X7Y594D01*
X2291Y594D02*
X2298Y594D01*
X0Y593D02*
X7Y593D01*
X2291Y593D02*
X2298Y593D01*
X0Y592D02*
X7Y592D01*
X2291Y592D02*
X2298Y592D01*
X0Y591D02*
X7Y591D01*
X2291Y591D02*
X2298Y591D01*
X0Y590D02*
X7Y590D01*
X2291Y590D02*
X2298Y590D01*
X0Y589D02*
X7Y589D01*
X2291Y589D02*
X2298Y589D01*
X0Y588D02*
X7Y588D01*
X2291Y588D02*
X2298Y588D01*
X0Y587D02*
X7Y587D01*
X2291Y587D02*
X2298Y587D01*
X0Y586D02*
X7Y586D01*
X2291Y586D02*
X2298Y586D01*
X0Y585D02*
X7Y585D01*
X2291Y585D02*
X2298Y585D01*
X0Y584D02*
X7Y584D01*
X2291Y584D02*
X2298Y584D01*
X0Y583D02*
X7Y583D01*
X2291Y583D02*
X2298Y583D01*
X0Y582D02*
X7Y582D01*
X2291Y582D02*
X2298Y582D01*
X0Y581D02*
X7Y581D01*
X2291Y581D02*
X2298Y581D01*
X0Y580D02*
X7Y580D01*
X2291Y580D02*
X2298Y580D01*
X0Y579D02*
X7Y579D01*
X2291Y579D02*
X2298Y579D01*
X0Y578D02*
X7Y578D01*
X2291Y578D02*
X2298Y578D01*
X0Y577D02*
X7Y577D01*
X2291Y577D02*
X2298Y577D01*
X0Y576D02*
X7Y576D01*
X2291Y576D02*
X2298Y576D01*
X0Y575D02*
X7Y575D01*
X2291Y575D02*
X2298Y575D01*
X0Y574D02*
X7Y574D01*
X2291Y574D02*
X2298Y574D01*
X0Y573D02*
X7Y573D01*
X2291Y573D02*
X2298Y573D01*
X0Y572D02*
X7Y572D01*
X2291Y572D02*
X2298Y572D01*
X0Y571D02*
X7Y571D01*
X2291Y571D02*
X2298Y571D01*
X0Y570D02*
X7Y570D01*
X2291Y570D02*
X2298Y570D01*
X0Y569D02*
X7Y569D01*
X2291Y569D02*
X2298Y569D01*
X0Y568D02*
X7Y568D01*
X2291Y568D02*
X2298Y568D01*
X0Y567D02*
X7Y567D01*
X2291Y567D02*
X2298Y567D01*
X0Y566D02*
X7Y566D01*
X2291Y566D02*
X2298Y566D01*
X0Y565D02*
X7Y565D01*
X2291Y565D02*
X2298Y565D01*
X0Y564D02*
X7Y564D01*
X2291Y564D02*
X2298Y564D01*
X0Y563D02*
X7Y563D01*
X2291Y563D02*
X2298Y563D01*
X0Y562D02*
X7Y562D01*
X2291Y562D02*
X2298Y562D01*
X0Y561D02*
X7Y561D01*
X2291Y561D02*
X2298Y561D01*
X0Y560D02*
X7Y560D01*
X2291Y560D02*
X2298Y560D01*
X0Y559D02*
X7Y559D01*
X2291Y559D02*
X2298Y559D01*
X0Y558D02*
X7Y558D01*
X2291Y558D02*
X2298Y558D01*
X0Y557D02*
X7Y557D01*
X2291Y557D02*
X2298Y557D01*
X0Y556D02*
X7Y556D01*
X2291Y556D02*
X2298Y556D01*
X0Y555D02*
X7Y555D01*
X2291Y555D02*
X2298Y555D01*
X0Y554D02*
X7Y554D01*
X2291Y554D02*
X2298Y554D01*
X0Y553D02*
X7Y553D01*
X2291Y553D02*
X2298Y553D01*
X0Y552D02*
X7Y552D01*
X2291Y552D02*
X2298Y552D01*
X0Y551D02*
X7Y551D01*
X2291Y551D02*
X2298Y551D01*
X0Y550D02*
X7Y550D01*
X2291Y550D02*
X2298Y550D01*
X0Y549D02*
X7Y549D01*
X2291Y549D02*
X2298Y549D01*
X0Y548D02*
X7Y548D01*
X2291Y548D02*
X2298Y548D01*
X0Y547D02*
X7Y547D01*
X2291Y547D02*
X2298Y547D01*
X0Y546D02*
X7Y546D01*
X2291Y546D02*
X2298Y546D01*
X0Y545D02*
X7Y545D01*
X2291Y545D02*
X2298Y545D01*
X0Y544D02*
X7Y544D01*
X2291Y544D02*
X2298Y544D01*
X0Y543D02*
X7Y543D01*
X2291Y543D02*
X2298Y543D01*
X0Y542D02*
X7Y542D01*
X2291Y542D02*
X2298Y542D01*
X0Y541D02*
X7Y541D01*
X2291Y541D02*
X2298Y541D01*
X0Y540D02*
X7Y540D01*
X2291Y540D02*
X2298Y540D01*
X0Y539D02*
X7Y539D01*
X2291Y539D02*
X2298Y539D01*
X0Y538D02*
X7Y538D01*
X2291Y538D02*
X2298Y538D01*
X0Y537D02*
X7Y537D01*
X2291Y537D02*
X2298Y537D01*
X0Y536D02*
X7Y536D01*
X2291Y536D02*
X2298Y536D01*
X0Y535D02*
X7Y535D01*
X2291Y535D02*
X2298Y535D01*
X0Y534D02*
X7Y534D01*
X2291Y534D02*
X2298Y534D01*
X0Y533D02*
X7Y533D01*
X2291Y533D02*
X2298Y533D01*
X0Y532D02*
X7Y532D01*
X2291Y532D02*
X2298Y532D01*
X0Y531D02*
X7Y531D01*
X2291Y531D02*
X2298Y531D01*
X0Y530D02*
X7Y530D01*
X2291Y530D02*
X2298Y530D01*
X0Y529D02*
X7Y529D01*
X2291Y529D02*
X2298Y529D01*
X0Y528D02*
X7Y528D01*
X2291Y528D02*
X2298Y528D01*
X0Y527D02*
X7Y527D01*
X2291Y527D02*
X2298Y527D01*
X0Y526D02*
X7Y526D01*
X2291Y526D02*
X2298Y526D01*
X0Y525D02*
X7Y525D01*
X2291Y525D02*
X2298Y525D01*
X0Y524D02*
X7Y524D01*
X2291Y524D02*
X2298Y524D01*
X0Y523D02*
X7Y523D01*
X2291Y523D02*
X2298Y523D01*
X0Y522D02*
X7Y522D01*
X2291Y522D02*
X2298Y522D01*
X0Y521D02*
X7Y521D01*
X2291Y521D02*
X2298Y521D01*
X0Y520D02*
X7Y520D01*
X2291Y520D02*
X2298Y520D01*
X0Y519D02*
X7Y519D01*
X2291Y519D02*
X2298Y519D01*
X0Y518D02*
X7Y518D01*
X2291Y518D02*
X2298Y518D01*
X0Y517D02*
X7Y517D01*
X2291Y517D02*
X2298Y517D01*
X0Y516D02*
X7Y516D01*
X2291Y516D02*
X2298Y516D01*
X0Y515D02*
X7Y515D01*
X2291Y515D02*
X2298Y515D01*
X0Y514D02*
X7Y514D01*
X2291Y514D02*
X2298Y514D01*
X0Y513D02*
X7Y513D01*
X2291Y513D02*
X2298Y513D01*
X0Y512D02*
X7Y512D01*
X2291Y512D02*
X2298Y512D01*
X0Y511D02*
X7Y511D01*
X2291Y511D02*
X2298Y511D01*
X0Y510D02*
X7Y510D01*
X2291Y510D02*
X2298Y510D01*
X0Y509D02*
X7Y509D01*
X2291Y509D02*
X2298Y509D01*
X0Y508D02*
X7Y508D01*
X2291Y508D02*
X2298Y508D01*
X0Y507D02*
X7Y507D01*
X2291Y507D02*
X2298Y507D01*
X0Y506D02*
X7Y506D01*
X2291Y506D02*
X2298Y506D01*
X0Y505D02*
X7Y505D01*
X2291Y505D02*
X2298Y505D01*
X0Y504D02*
X7Y504D01*
X2291Y504D02*
X2298Y504D01*
X0Y503D02*
X7Y503D01*
X2291Y503D02*
X2298Y503D01*
X0Y502D02*
X7Y502D01*
X2291Y502D02*
X2298Y502D01*
X0Y501D02*
X7Y501D01*
X2291Y501D02*
X2298Y501D01*
X0Y500D02*
X7Y500D01*
X2291Y500D02*
X2298Y500D01*
X0Y499D02*
X7Y499D01*
X2291Y499D02*
X2298Y499D01*
X0Y498D02*
X7Y498D01*
X2291Y498D02*
X2298Y498D01*
X0Y497D02*
X7Y497D01*
X2291Y497D02*
X2298Y497D01*
X0Y496D02*
X7Y496D01*
X2291Y496D02*
X2298Y496D01*
X0Y495D02*
X7Y495D01*
X2291Y495D02*
X2298Y495D01*
X0Y494D02*
X7Y494D01*
X2291Y494D02*
X2298Y494D01*
X0Y493D02*
X7Y493D01*
X2291Y493D02*
X2298Y493D01*
X0Y492D02*
X7Y492D01*
X2291Y492D02*
X2298Y492D01*
X0Y491D02*
X7Y491D01*
X2291Y491D02*
X2298Y491D01*
X0Y490D02*
X7Y490D01*
X2291Y490D02*
X2298Y490D01*
X0Y489D02*
X7Y489D01*
X2291Y489D02*
X2298Y489D01*
X0Y488D02*
X7Y488D01*
X2291Y488D02*
X2298Y488D01*
X0Y487D02*
X7Y487D01*
X2291Y487D02*
X2298Y487D01*
X0Y486D02*
X7Y486D01*
X2291Y486D02*
X2298Y486D01*
X0Y485D02*
X7Y485D01*
X2291Y485D02*
X2298Y485D01*
X0Y484D02*
X7Y484D01*
X2291Y484D02*
X2298Y484D01*
X0Y483D02*
X7Y483D01*
X2291Y483D02*
X2298Y483D01*
X0Y482D02*
X7Y482D01*
X2291Y482D02*
X2298Y482D01*
X0Y481D02*
X7Y481D01*
X2291Y481D02*
X2298Y481D01*
X0Y480D02*
X7Y480D01*
X2291Y480D02*
X2298Y480D01*
X0Y479D02*
X7Y479D01*
X2291Y479D02*
X2298Y479D01*
X0Y478D02*
X7Y478D01*
X2291Y478D02*
X2298Y478D01*
X0Y477D02*
X7Y477D01*
X2291Y477D02*
X2298Y477D01*
X0Y476D02*
X7Y476D01*
X2291Y476D02*
X2298Y476D01*
X0Y475D02*
X7Y475D01*
X2291Y475D02*
X2298Y475D01*
X0Y474D02*
X7Y474D01*
X2291Y474D02*
X2298Y474D01*
X0Y473D02*
X7Y473D01*
X2291Y473D02*
X2298Y473D01*
X0Y472D02*
X7Y472D01*
X2291Y472D02*
X2298Y472D01*
X0Y471D02*
X7Y471D01*
X2291Y471D02*
X2298Y471D01*
X0Y470D02*
X7Y470D01*
X2291Y470D02*
X2298Y470D01*
X0Y469D02*
X7Y469D01*
X2291Y469D02*
X2298Y469D01*
X0Y468D02*
X7Y468D01*
X2291Y468D02*
X2298Y468D01*
X0Y467D02*
X7Y467D01*
X2291Y467D02*
X2298Y467D01*
X0Y466D02*
X7Y466D01*
X2291Y466D02*
X2298Y466D01*
X0Y465D02*
X7Y465D01*
X2291Y465D02*
X2298Y465D01*
X0Y464D02*
X7Y464D01*
X2291Y464D02*
X2298Y464D01*
X0Y463D02*
X7Y463D01*
X2291Y463D02*
X2298Y463D01*
X0Y462D02*
X7Y462D01*
X2291Y462D02*
X2298Y462D01*
X0Y461D02*
X7Y461D01*
X2291Y461D02*
X2298Y461D01*
X0Y460D02*
X7Y460D01*
X2291Y460D02*
X2298Y460D01*
X0Y459D02*
X7Y459D01*
X2291Y459D02*
X2298Y459D01*
X0Y458D02*
X7Y458D01*
X2291Y458D02*
X2298Y458D01*
X0Y457D02*
X7Y457D01*
X2291Y457D02*
X2298Y457D01*
X0Y456D02*
X7Y456D01*
X2291Y456D02*
X2298Y456D01*
X0Y455D02*
X7Y455D01*
X2291Y455D02*
X2298Y455D01*
X0Y454D02*
X7Y454D01*
X2291Y454D02*
X2298Y454D01*
X0Y453D02*
X7Y453D01*
X2291Y453D02*
X2298Y453D01*
X0Y452D02*
X7Y452D01*
X2291Y452D02*
X2298Y452D01*
X0Y451D02*
X7Y451D01*
X2291Y451D02*
X2298Y451D01*
X0Y450D02*
X7Y450D01*
X2291Y450D02*
X2298Y450D01*
X0Y449D02*
X7Y449D01*
X2291Y449D02*
X2298Y449D01*
X0Y448D02*
X7Y448D01*
X2291Y448D02*
X2298Y448D01*
X0Y447D02*
X7Y447D01*
X2291Y447D02*
X2298Y447D01*
X0Y446D02*
X7Y446D01*
X2291Y446D02*
X2298Y446D01*
X0Y445D02*
X7Y445D01*
X2291Y445D02*
X2298Y445D01*
X0Y444D02*
X7Y444D01*
X2291Y444D02*
X2298Y444D01*
X0Y443D02*
X7Y443D01*
X2291Y443D02*
X2298Y443D01*
X0Y442D02*
X7Y442D01*
X2291Y442D02*
X2298Y442D01*
X0Y441D02*
X7Y441D01*
X2291Y441D02*
X2298Y441D01*
X0Y440D02*
X7Y440D01*
X2291Y440D02*
X2298Y440D01*
X0Y439D02*
X7Y439D01*
X2291Y439D02*
X2298Y439D01*
X0Y438D02*
X7Y438D01*
X2291Y438D02*
X2298Y438D01*
X0Y437D02*
X7Y437D01*
X2291Y437D02*
X2298Y437D01*
X0Y436D02*
X7Y436D01*
X2291Y436D02*
X2298Y436D01*
X0Y435D02*
X7Y435D01*
X2291Y435D02*
X2298Y435D01*
X0Y434D02*
X7Y434D01*
X2291Y434D02*
X2298Y434D01*
X0Y433D02*
X7Y433D01*
X2291Y433D02*
X2298Y433D01*
X0Y432D02*
X7Y432D01*
X2291Y432D02*
X2298Y432D01*
X0Y431D02*
X7Y431D01*
X2291Y431D02*
X2298Y431D01*
X0Y430D02*
X7Y430D01*
X2291Y430D02*
X2298Y430D01*
X0Y429D02*
X7Y429D01*
X2291Y429D02*
X2298Y429D01*
X0Y428D02*
X7Y428D01*
X2291Y428D02*
X2298Y428D01*
X0Y427D02*
X7Y427D01*
X2291Y427D02*
X2298Y427D01*
X0Y426D02*
X7Y426D01*
X2291Y426D02*
X2298Y426D01*
X0Y425D02*
X7Y425D01*
X2291Y425D02*
X2298Y425D01*
X0Y424D02*
X7Y424D01*
X2291Y424D02*
X2298Y424D01*
X0Y423D02*
X7Y423D01*
X2291Y423D02*
X2298Y423D01*
X0Y422D02*
X7Y422D01*
X2291Y422D02*
X2298Y422D01*
X0Y421D02*
X7Y421D01*
X2291Y421D02*
X2298Y421D01*
X0Y420D02*
X7Y420D01*
X2291Y420D02*
X2298Y420D01*
X0Y419D02*
X7Y419D01*
X2291Y419D02*
X2298Y419D01*
X0Y418D02*
X7Y418D01*
X2291Y418D02*
X2298Y418D01*
X0Y417D02*
X7Y417D01*
X2291Y417D02*
X2298Y417D01*
X0Y416D02*
X7Y416D01*
X2291Y416D02*
X2298Y416D01*
X0Y415D02*
X7Y415D01*
X2291Y415D02*
X2298Y415D01*
X0Y414D02*
X7Y414D01*
X2291Y414D02*
X2298Y414D01*
X0Y413D02*
X7Y413D01*
X2291Y413D02*
X2298Y413D01*
X0Y412D02*
X7Y412D01*
X2291Y412D02*
X2298Y412D01*
X0Y411D02*
X7Y411D01*
X2291Y411D02*
X2298Y411D01*
X0Y410D02*
X7Y410D01*
X2291Y410D02*
X2298Y410D01*
X0Y409D02*
X7Y409D01*
X2291Y409D02*
X2298Y409D01*
X0Y408D02*
X7Y408D01*
X2291Y408D02*
X2298Y408D01*
X0Y407D02*
X7Y407D01*
X2291Y407D02*
X2298Y407D01*
X0Y406D02*
X7Y406D01*
X2291Y406D02*
X2298Y406D01*
X0Y405D02*
X7Y405D01*
X2291Y405D02*
X2298Y405D01*
X0Y404D02*
X7Y404D01*
X2291Y404D02*
X2298Y404D01*
X0Y403D02*
X7Y403D01*
X2291Y403D02*
X2298Y403D01*
X0Y402D02*
X7Y402D01*
X2291Y402D02*
X2298Y402D01*
X0Y401D02*
X7Y401D01*
X2291Y401D02*
X2298Y401D01*
X0Y400D02*
X7Y400D01*
X2291Y400D02*
X2298Y400D01*
X0Y399D02*
X7Y399D01*
X2291Y399D02*
X2298Y399D01*
X0Y398D02*
X7Y398D01*
X2291Y398D02*
X2298Y398D01*
X0Y397D02*
X7Y397D01*
X2291Y397D02*
X2298Y397D01*
X0Y396D02*
X7Y396D01*
X2291Y396D02*
X2298Y396D01*
X0Y395D02*
X7Y395D01*
X2291Y395D02*
X2298Y395D01*
X0Y394D02*
X7Y394D01*
X2291Y394D02*
X2298Y394D01*
X0Y393D02*
X7Y393D01*
X2291Y393D02*
X2298Y393D01*
X0Y392D02*
X7Y392D01*
X2291Y392D02*
X2298Y392D01*
X0Y391D02*
X7Y391D01*
X2291Y391D02*
X2298Y391D01*
X0Y390D02*
X7Y390D01*
X2291Y390D02*
X2298Y390D01*
X0Y389D02*
X7Y389D01*
X2291Y389D02*
X2298Y389D01*
X0Y388D02*
X7Y388D01*
X2291Y388D02*
X2298Y388D01*
X0Y387D02*
X7Y387D01*
X2291Y387D02*
X2298Y387D01*
X0Y386D02*
X7Y386D01*
X2291Y386D02*
X2298Y386D01*
X0Y385D02*
X7Y385D01*
X2291Y385D02*
X2298Y385D01*
X0Y384D02*
X7Y384D01*
X2291Y384D02*
X2298Y384D01*
X0Y383D02*
X7Y383D01*
X2291Y383D02*
X2298Y383D01*
X0Y382D02*
X7Y382D01*
X2291Y382D02*
X2298Y382D01*
X0Y381D02*
X7Y381D01*
X2291Y381D02*
X2298Y381D01*
X0Y380D02*
X7Y380D01*
X2291Y380D02*
X2298Y380D01*
X0Y379D02*
X7Y379D01*
X2291Y379D02*
X2298Y379D01*
X0Y378D02*
X7Y378D01*
X2291Y378D02*
X2298Y378D01*
X0Y377D02*
X7Y377D01*
X2291Y377D02*
X2298Y377D01*
X0Y376D02*
X7Y376D01*
X2291Y376D02*
X2298Y376D01*
X0Y375D02*
X7Y375D01*
X2291Y375D02*
X2298Y375D01*
X0Y374D02*
X7Y374D01*
X2291Y374D02*
X2298Y374D01*
X0Y373D02*
X7Y373D01*
X2291Y373D02*
X2298Y373D01*
X0Y372D02*
X7Y372D01*
X2291Y372D02*
X2298Y372D01*
X0Y371D02*
X7Y371D01*
X2291Y371D02*
X2298Y371D01*
X0Y370D02*
X7Y370D01*
X2291Y370D02*
X2298Y370D01*
X0Y369D02*
X7Y369D01*
X2291Y369D02*
X2298Y369D01*
X0Y368D02*
X7Y368D01*
X2291Y368D02*
X2298Y368D01*
X0Y367D02*
X7Y367D01*
X2291Y367D02*
X2298Y367D01*
X0Y366D02*
X7Y366D01*
X2291Y366D02*
X2298Y366D01*
X0Y365D02*
X7Y365D01*
X2291Y365D02*
X2298Y365D01*
X0Y364D02*
X7Y364D01*
X2291Y364D02*
X2298Y364D01*
X0Y363D02*
X7Y363D01*
X2291Y363D02*
X2298Y363D01*
X0Y362D02*
X7Y362D01*
X2291Y362D02*
X2298Y362D01*
X0Y361D02*
X7Y361D01*
X2291Y361D02*
X2298Y361D01*
X0Y360D02*
X7Y360D01*
X2291Y360D02*
X2298Y360D01*
X0Y359D02*
X7Y359D01*
X2291Y359D02*
X2298Y359D01*
X0Y358D02*
X7Y358D01*
X2291Y358D02*
X2298Y358D01*
X0Y357D02*
X7Y357D01*
X2291Y357D02*
X2298Y357D01*
X0Y356D02*
X7Y356D01*
X2291Y356D02*
X2298Y356D01*
X0Y355D02*
X7Y355D01*
X2291Y355D02*
X2298Y355D01*
X0Y354D02*
X7Y354D01*
X2291Y354D02*
X2298Y354D01*
X0Y353D02*
X7Y353D01*
X2291Y353D02*
X2298Y353D01*
X0Y352D02*
X7Y352D01*
X2291Y352D02*
X2298Y352D01*
X0Y351D02*
X7Y351D01*
X2291Y351D02*
X2298Y351D01*
X0Y350D02*
X7Y350D01*
X2291Y350D02*
X2298Y350D01*
X0Y349D02*
X7Y349D01*
X2291Y349D02*
X2298Y349D01*
X0Y348D02*
X7Y348D01*
X2291Y348D02*
X2298Y348D01*
X0Y347D02*
X7Y347D01*
X2291Y347D02*
X2298Y347D01*
X0Y346D02*
X7Y346D01*
X2291Y346D02*
X2298Y346D01*
X0Y345D02*
X7Y345D01*
X2291Y345D02*
X2298Y345D01*
X0Y344D02*
X7Y344D01*
X2291Y344D02*
X2298Y344D01*
X0Y343D02*
X7Y343D01*
X2291Y343D02*
X2298Y343D01*
X0Y342D02*
X7Y342D01*
X2291Y342D02*
X2298Y342D01*
X0Y341D02*
X7Y341D01*
X2291Y341D02*
X2298Y341D01*
X0Y340D02*
X7Y340D01*
X2291Y340D02*
X2298Y340D01*
X0Y339D02*
X7Y339D01*
X2291Y339D02*
X2298Y339D01*
X0Y338D02*
X7Y338D01*
X2291Y338D02*
X2298Y338D01*
X0Y337D02*
X7Y337D01*
X2291Y337D02*
X2298Y337D01*
X0Y336D02*
X7Y336D01*
X2291Y336D02*
X2298Y336D01*
X0Y335D02*
X7Y335D01*
X2291Y335D02*
X2298Y335D01*
X0Y334D02*
X7Y334D01*
X2291Y334D02*
X2298Y334D01*
X0Y333D02*
X7Y333D01*
X2291Y333D02*
X2298Y333D01*
X0Y332D02*
X7Y332D01*
X2291Y332D02*
X2298Y332D01*
X0Y331D02*
X7Y331D01*
X2291Y331D02*
X2298Y331D01*
X0Y330D02*
X7Y330D01*
X2291Y330D02*
X2298Y330D01*
X0Y329D02*
X7Y329D01*
X2291Y329D02*
X2298Y329D01*
X0Y328D02*
X7Y328D01*
X2291Y328D02*
X2298Y328D01*
X0Y327D02*
X7Y327D01*
X2291Y327D02*
X2298Y327D01*
X0Y326D02*
X7Y326D01*
X2291Y326D02*
X2298Y326D01*
X0Y325D02*
X7Y325D01*
X2291Y325D02*
X2298Y325D01*
X0Y324D02*
X7Y324D01*
X2291Y324D02*
X2298Y324D01*
X0Y323D02*
X7Y323D01*
X2291Y323D02*
X2298Y323D01*
X0Y322D02*
X7Y322D01*
X2291Y322D02*
X2298Y322D01*
X0Y321D02*
X7Y321D01*
X2291Y321D02*
X2298Y321D01*
X0Y320D02*
X7Y320D01*
X2291Y320D02*
X2298Y320D01*
X0Y319D02*
X7Y319D01*
X2291Y319D02*
X2298Y319D01*
X0Y318D02*
X7Y318D01*
X2291Y318D02*
X2298Y318D01*
X0Y317D02*
X7Y317D01*
X2291Y317D02*
X2298Y317D01*
X0Y316D02*
X7Y316D01*
X2291Y316D02*
X2298Y316D01*
X0Y315D02*
X7Y315D01*
X2291Y315D02*
X2298Y315D01*
X0Y314D02*
X7Y314D01*
X2291Y314D02*
X2298Y314D01*
X0Y313D02*
X7Y313D01*
X2291Y313D02*
X2298Y313D01*
X0Y312D02*
X7Y312D01*
X2291Y312D02*
X2298Y312D01*
X0Y311D02*
X7Y311D01*
X2291Y311D02*
X2298Y311D01*
X0Y310D02*
X7Y310D01*
X2291Y310D02*
X2298Y310D01*
X0Y309D02*
X7Y309D01*
X2291Y309D02*
X2298Y309D01*
X0Y308D02*
X7Y308D01*
X2291Y308D02*
X2298Y308D01*
X0Y307D02*
X7Y307D01*
X2291Y307D02*
X2298Y307D01*
X0Y306D02*
X7Y306D01*
X2291Y306D02*
X2298Y306D01*
X0Y305D02*
X7Y305D01*
X2291Y305D02*
X2298Y305D01*
X0Y304D02*
X7Y304D01*
X2291Y304D02*
X2298Y304D01*
X0Y303D02*
X7Y303D01*
X2291Y303D02*
X2298Y303D01*
X0Y302D02*
X7Y302D01*
X2291Y302D02*
X2298Y302D01*
X0Y301D02*
X7Y301D01*
X2291Y301D02*
X2298Y301D01*
X0Y300D02*
X7Y300D01*
X2291Y300D02*
X2298Y300D01*
X0Y299D02*
X7Y299D01*
X2291Y299D02*
X2298Y299D01*
X0Y298D02*
X7Y298D01*
X2291Y298D02*
X2298Y298D01*
X0Y297D02*
X7Y297D01*
X2291Y297D02*
X2298Y297D01*
X0Y296D02*
X7Y296D01*
X2291Y296D02*
X2298Y296D01*
X0Y295D02*
X7Y295D01*
X2291Y295D02*
X2298Y295D01*
X0Y294D02*
X7Y294D01*
X2291Y294D02*
X2298Y294D01*
X0Y293D02*
X7Y293D01*
X2291Y293D02*
X2298Y293D01*
X0Y292D02*
X7Y292D01*
X2291Y292D02*
X2298Y292D01*
X0Y291D02*
X7Y291D01*
X2291Y291D02*
X2298Y291D01*
X0Y290D02*
X7Y290D01*
X2291Y290D02*
X2298Y290D01*
X0Y289D02*
X7Y289D01*
X2291Y289D02*
X2298Y289D01*
X0Y288D02*
X7Y288D01*
X2291Y288D02*
X2298Y288D01*
X0Y287D02*
X7Y287D01*
X2291Y287D02*
X2298Y287D01*
X0Y286D02*
X7Y286D01*
X2291Y286D02*
X2298Y286D01*
X0Y285D02*
X7Y285D01*
X2291Y285D02*
X2298Y285D01*
X0Y284D02*
X7Y284D01*
X2291Y284D02*
X2298Y284D01*
X0Y283D02*
X7Y283D01*
X2291Y283D02*
X2298Y283D01*
X0Y282D02*
X7Y282D01*
X2291Y282D02*
X2298Y282D01*
X0Y281D02*
X7Y281D01*
X2291Y281D02*
X2298Y281D01*
X0Y280D02*
X7Y280D01*
X2291Y280D02*
X2298Y280D01*
X0Y279D02*
X7Y279D01*
X2291Y279D02*
X2298Y279D01*
X0Y278D02*
X7Y278D01*
X2291Y278D02*
X2298Y278D01*
X0Y277D02*
X7Y277D01*
X2291Y277D02*
X2298Y277D01*
X0Y276D02*
X7Y276D01*
X2291Y276D02*
X2298Y276D01*
X0Y275D02*
X7Y275D01*
X2291Y275D02*
X2298Y275D01*
X0Y274D02*
X7Y274D01*
X2291Y274D02*
X2298Y274D01*
X0Y273D02*
X7Y273D01*
X2291Y273D02*
X2298Y273D01*
X0Y272D02*
X7Y272D01*
X2291Y272D02*
X2298Y272D01*
X0Y271D02*
X7Y271D01*
X2291Y271D02*
X2298Y271D01*
X0Y270D02*
X7Y270D01*
X2291Y270D02*
X2298Y270D01*
X0Y269D02*
X7Y269D01*
X1564Y269D02*
X2298Y269D01*
X0Y268D02*
X7Y268D01*
X1563Y268D02*
X2298Y268D01*
X0Y267D02*
X7Y267D01*
X1562Y267D02*
X2298Y267D01*
X0Y266D02*
X7Y266D01*
X1562Y266D02*
X2298Y266D01*
X0Y265D02*
X7Y265D01*
X1562Y265D02*
X2298Y265D01*
X0Y264D02*
X7Y264D01*
X1562Y264D02*
X2297Y264D01*
X0Y263D02*
X7Y263D01*
X1562Y263D02*
X2297Y263D01*
X0Y262D02*
X7Y262D01*
X1562Y262D02*
X2295Y262D01*
X0Y261D02*
X7Y261D01*
X1562Y261D02*
X1569Y261D01*
X0Y260D02*
X7Y260D01*
X1562Y260D02*
X1569Y260D01*
X0Y259D02*
X7Y259D01*
X1562Y259D02*
X1569Y259D01*
X0Y258D02*
X7Y258D01*
X1562Y258D02*
X1569Y258D01*
X0Y257D02*
X7Y257D01*
X1562Y257D02*
X1569Y257D01*
X0Y256D02*
X7Y256D01*
X1562Y256D02*
X1569Y256D01*
X0Y255D02*
X7Y255D01*
X1562Y255D02*
X1569Y255D01*
X0Y254D02*
X7Y254D01*
X1562Y254D02*
X1569Y254D01*
X0Y253D02*
X7Y253D01*
X1562Y253D02*
X1569Y253D01*
X0Y252D02*
X7Y252D01*
X1562Y252D02*
X1569Y252D01*
X0Y251D02*
X7Y251D01*
X1562Y251D02*
X1569Y251D01*
X0Y250D02*
X7Y250D01*
X1562Y250D02*
X1569Y250D01*
X0Y249D02*
X7Y249D01*
X1562Y249D02*
X1569Y249D01*
X0Y248D02*
X7Y248D01*
X1562Y248D02*
X1569Y248D01*
X0Y247D02*
X7Y247D01*
X1562Y247D02*
X1569Y247D01*
X0Y246D02*
X7Y246D01*
X1562Y246D02*
X1569Y246D01*
X0Y245D02*
X7Y245D01*
X1562Y245D02*
X1569Y245D01*
X0Y244D02*
X7Y244D01*
X1562Y244D02*
X1569Y244D01*
X0Y243D02*
X7Y243D01*
X1562Y243D02*
X1569Y243D01*
X0Y242D02*
X7Y242D01*
X1562Y242D02*
X1569Y242D01*
X0Y241D02*
X7Y241D01*
X1562Y241D02*
X1569Y241D01*
X0Y240D02*
X7Y240D01*
X1562Y240D02*
X1569Y240D01*
X0Y239D02*
X7Y239D01*
X1562Y239D02*
X1569Y239D01*
X0Y238D02*
X7Y238D01*
X1562Y238D02*
X1569Y238D01*
X0Y237D02*
X7Y237D01*
X1562Y237D02*
X1569Y237D01*
X0Y236D02*
X7Y236D01*
X1562Y236D02*
X1569Y236D01*
X0Y235D02*
X7Y235D01*
X1562Y235D02*
X1569Y235D01*
X0Y234D02*
X7Y234D01*
X1562Y234D02*
X1569Y234D01*
X0Y233D02*
X7Y233D01*
X1562Y233D02*
X1569Y233D01*
X0Y232D02*
X7Y232D01*
X1562Y232D02*
X1569Y232D01*
X0Y231D02*
X7Y231D01*
X1562Y231D02*
X1569Y231D01*
X0Y230D02*
X7Y230D01*
X1562Y230D02*
X1569Y230D01*
X0Y229D02*
X7Y229D01*
X1562Y229D02*
X1569Y229D01*
X0Y228D02*
X7Y228D01*
X1562Y228D02*
X1569Y228D01*
X0Y227D02*
X7Y227D01*
X1562Y227D02*
X1569Y227D01*
X0Y226D02*
X7Y226D01*
X1562Y226D02*
X1569Y226D01*
X0Y225D02*
X7Y225D01*
X1562Y225D02*
X1569Y225D01*
X0Y224D02*
X7Y224D01*
X1562Y224D02*
X1569Y224D01*
X0Y223D02*
X7Y223D01*
X1562Y223D02*
X1569Y223D01*
X0Y222D02*
X7Y222D01*
X1562Y222D02*
X1569Y222D01*
X0Y221D02*
X7Y221D01*
X1562Y221D02*
X1569Y221D01*
X0Y220D02*
X7Y220D01*
X1562Y220D02*
X1569Y220D01*
X0Y219D02*
X7Y219D01*
X1562Y219D02*
X1569Y219D01*
X0Y218D02*
X7Y218D01*
X1562Y218D02*
X1569Y218D01*
X0Y217D02*
X7Y217D01*
X1562Y217D02*
X1569Y217D01*
X0Y216D02*
X7Y216D01*
X1562Y216D02*
X1569Y216D01*
X0Y215D02*
X7Y215D01*
X1562Y215D02*
X1569Y215D01*
X0Y214D02*
X7Y214D01*
X1562Y214D02*
X1569Y214D01*
X0Y213D02*
X7Y213D01*
X1562Y213D02*
X1569Y213D01*
X0Y212D02*
X7Y212D01*
X1562Y212D02*
X1569Y212D01*
X0Y211D02*
X7Y211D01*
X1562Y211D02*
X1569Y211D01*
X0Y210D02*
X7Y210D01*
X1562Y210D02*
X1569Y210D01*
X0Y209D02*
X7Y209D01*
X1562Y209D02*
X1569Y209D01*
X0Y208D02*
X7Y208D01*
X1562Y208D02*
X1569Y208D01*
X0Y207D02*
X7Y207D01*
X1562Y207D02*
X1569Y207D01*
X0Y206D02*
X7Y206D01*
X1562Y206D02*
X1569Y206D01*
X0Y205D02*
X7Y205D01*
X1562Y205D02*
X1569Y205D01*
X0Y204D02*
X7Y204D01*
X1562Y204D02*
X1569Y204D01*
X0Y203D02*
X7Y203D01*
X1562Y203D02*
X1569Y203D01*
X0Y202D02*
X7Y202D01*
X1562Y202D02*
X1569Y202D01*
X0Y201D02*
X7Y201D01*
X1562Y201D02*
X1569Y201D01*
X0Y200D02*
X7Y200D01*
X1562Y200D02*
X1569Y200D01*
X0Y199D02*
X7Y199D01*
X1562Y199D02*
X1569Y199D01*
X0Y198D02*
X7Y198D01*
X1562Y198D02*
X1569Y198D01*
X0Y197D02*
X7Y197D01*
X1562Y197D02*
X1569Y197D01*
X0Y196D02*
X7Y196D01*
X1562Y196D02*
X1569Y196D01*
X0Y195D02*
X7Y195D01*
X1562Y195D02*
X1569Y195D01*
X0Y194D02*
X7Y194D01*
X1562Y194D02*
X1569Y194D01*
X0Y193D02*
X7Y193D01*
X1562Y193D02*
X1569Y193D01*
X0Y192D02*
X7Y192D01*
X1562Y192D02*
X1569Y192D01*
X0Y191D02*
X7Y191D01*
X1562Y191D02*
X1569Y191D01*
X0Y190D02*
X7Y190D01*
X1562Y190D02*
X1569Y190D01*
X0Y189D02*
X7Y189D01*
X1562Y189D02*
X1569Y189D01*
X0Y188D02*
X7Y188D01*
X1562Y188D02*
X1569Y188D01*
X0Y187D02*
X7Y187D01*
X1562Y187D02*
X1569Y187D01*
X0Y186D02*
X7Y186D01*
X1562Y186D02*
X1569Y186D01*
X0Y185D02*
X7Y185D01*
X1562Y185D02*
X1569Y185D01*
X0Y184D02*
X7Y184D01*
X1562Y184D02*
X1569Y184D01*
X0Y183D02*
X7Y183D01*
X1562Y183D02*
X1569Y183D01*
X0Y182D02*
X7Y182D01*
X1562Y182D02*
X1569Y182D01*
X0Y181D02*
X7Y181D01*
X1562Y181D02*
X1569Y181D01*
X0Y180D02*
X7Y180D01*
X1562Y180D02*
X1569Y180D01*
X0Y179D02*
X7Y179D01*
X1562Y179D02*
X1569Y179D01*
X0Y178D02*
X7Y178D01*
X1562Y178D02*
X1569Y178D01*
X0Y177D02*
X7Y177D01*
X1562Y177D02*
X1569Y177D01*
X0Y176D02*
X7Y176D01*
X1562Y176D02*
X1569Y176D01*
X0Y175D02*
X7Y175D01*
X1562Y175D02*
X1569Y175D01*
X0Y174D02*
X7Y174D01*
X1562Y174D02*
X1569Y174D01*
X0Y173D02*
X7Y173D01*
X1562Y173D02*
X1569Y173D01*
X0Y172D02*
X7Y172D01*
X1562Y172D02*
X1569Y172D01*
X0Y171D02*
X7Y171D01*
X1562Y171D02*
X1569Y171D01*
X0Y170D02*
X7Y170D01*
X1562Y170D02*
X1569Y170D01*
X0Y169D02*
X7Y169D01*
X1562Y169D02*
X1569Y169D01*
X0Y168D02*
X7Y168D01*
X1562Y168D02*
X1569Y168D01*
X0Y167D02*
X7Y167D01*
X1562Y167D02*
X1569Y167D01*
X0Y166D02*
X7Y166D01*
X1562Y166D02*
X1569Y166D01*
X0Y165D02*
X7Y165D01*
X1562Y165D02*
X1569Y165D01*
X0Y164D02*
X7Y164D01*
X1562Y164D02*
X1569Y164D01*
X0Y163D02*
X7Y163D01*
X1562Y163D02*
X1569Y163D01*
X0Y162D02*
X7Y162D01*
X1562Y162D02*
X1569Y162D01*
X0Y161D02*
X7Y161D01*
X1562Y161D02*
X1569Y161D01*
X0Y160D02*
X7Y160D01*
X1562Y160D02*
X1569Y160D01*
X0Y159D02*
X7Y159D01*
X1562Y159D02*
X1569Y159D01*
X0Y158D02*
X7Y158D01*
X1562Y158D02*
X1569Y158D01*
X0Y157D02*
X7Y157D01*
X1562Y157D02*
X1569Y157D01*
X0Y156D02*
X7Y156D01*
X1562Y156D02*
X1569Y156D01*
X0Y155D02*
X7Y155D01*
X1562Y155D02*
X1569Y155D01*
X0Y154D02*
X7Y154D01*
X1562Y154D02*
X1569Y154D01*
X0Y153D02*
X7Y153D01*
X1562Y153D02*
X1569Y153D01*
X0Y152D02*
X7Y152D01*
X1562Y152D02*
X1569Y152D01*
X0Y151D02*
X7Y151D01*
X1562Y151D02*
X1569Y151D01*
X0Y150D02*
X7Y150D01*
X1562Y150D02*
X1569Y150D01*
X0Y149D02*
X7Y149D01*
X1562Y149D02*
X1569Y149D01*
X0Y148D02*
X7Y148D01*
X1562Y148D02*
X1569Y148D01*
X0Y147D02*
X7Y147D01*
X1562Y147D02*
X1569Y147D01*
X0Y146D02*
X7Y146D01*
X1562Y146D02*
X1569Y146D01*
X0Y145D02*
X7Y145D01*
X1562Y145D02*
X1569Y145D01*
X0Y144D02*
X7Y144D01*
X1562Y144D02*
X1569Y144D01*
X0Y143D02*
X7Y143D01*
X1562Y143D02*
X1569Y143D01*
X0Y142D02*
X7Y142D01*
X1562Y142D02*
X1569Y142D01*
X0Y141D02*
X7Y141D01*
X1562Y141D02*
X1569Y141D01*
X0Y140D02*
X7Y140D01*
X1562Y140D02*
X1569Y140D01*
X0Y139D02*
X7Y139D01*
X1562Y139D02*
X1569Y139D01*
X0Y138D02*
X7Y138D01*
X1562Y138D02*
X1569Y138D01*
X0Y137D02*
X7Y137D01*
X1562Y137D02*
X1569Y137D01*
X0Y136D02*
X7Y136D01*
X1562Y136D02*
X1569Y136D01*
X0Y135D02*
X7Y135D01*
X1562Y135D02*
X1569Y135D01*
X0Y134D02*
X7Y134D01*
X1562Y134D02*
X1569Y134D01*
X0Y133D02*
X7Y133D01*
X1562Y133D02*
X1569Y133D01*
X0Y132D02*
X7Y132D01*
X1562Y132D02*
X1569Y132D01*
X0Y131D02*
X7Y131D01*
X1562Y131D02*
X1569Y131D01*
X0Y130D02*
X7Y130D01*
X1562Y130D02*
X1569Y130D01*
X0Y129D02*
X7Y129D01*
X1562Y129D02*
X1569Y129D01*
X0Y128D02*
X7Y128D01*
X1562Y128D02*
X1569Y128D01*
X0Y127D02*
X7Y127D01*
X1562Y127D02*
X1569Y127D01*
X0Y126D02*
X7Y126D01*
X1562Y126D02*
X1569Y126D01*
X0Y125D02*
X7Y125D01*
X1562Y125D02*
X1569Y125D01*
X0Y124D02*
X7Y124D01*
X1562Y124D02*
X1569Y124D01*
X0Y123D02*
X7Y123D01*
X1562Y123D02*
X1569Y123D01*
X0Y122D02*
X7Y122D01*
X1562Y122D02*
X1569Y122D01*
X0Y121D02*
X7Y121D01*
X1562Y121D02*
X1569Y121D01*
X0Y120D02*
X7Y120D01*
X1562Y120D02*
X1569Y120D01*
X0Y119D02*
X7Y119D01*
X1562Y119D02*
X1569Y119D01*
X0Y118D02*
X7Y118D01*
X1562Y118D02*
X1569Y118D01*
X0Y117D02*
X7Y117D01*
X1562Y117D02*
X1569Y117D01*
X0Y116D02*
X7Y116D01*
X1562Y116D02*
X1569Y116D01*
X0Y115D02*
X7Y115D01*
X1562Y115D02*
X1569Y115D01*
X0Y114D02*
X7Y114D01*
X1562Y114D02*
X1569Y114D01*
X0Y113D02*
X7Y113D01*
X1562Y113D02*
X1569Y113D01*
X0Y112D02*
X7Y112D01*
X1562Y112D02*
X1569Y112D01*
X0Y111D02*
X7Y111D01*
X1562Y111D02*
X1569Y111D01*
X0Y110D02*
X7Y110D01*
X1562Y110D02*
X1569Y110D01*
X0Y109D02*
X7Y109D01*
X1562Y109D02*
X1569Y109D01*
X0Y108D02*
X7Y108D01*
X1562Y108D02*
X1569Y108D01*
X0Y107D02*
X7Y107D01*
X1562Y107D02*
X1569Y107D01*
X0Y106D02*
X7Y106D01*
X1562Y106D02*
X1569Y106D01*
X0Y105D02*
X7Y105D01*
X1562Y105D02*
X1569Y105D01*
X0Y104D02*
X7Y104D01*
X1562Y104D02*
X1569Y104D01*
X0Y103D02*
X7Y103D01*
X1562Y103D02*
X1569Y103D01*
X0Y102D02*
X7Y102D01*
X1562Y102D02*
X1569Y102D01*
X0Y101D02*
X7Y101D01*
X1562Y101D02*
X1569Y101D01*
X0Y100D02*
X7Y100D01*
X1562Y100D02*
X1569Y100D01*
X0Y99D02*
X7Y99D01*
X1562Y99D02*
X1569Y99D01*
X0Y98D02*
X7Y98D01*
X1562Y98D02*
X1569Y98D01*
X0Y97D02*
X7Y97D01*
X1562Y97D02*
X1569Y97D01*
X0Y96D02*
X7Y96D01*
X1562Y96D02*
X1569Y96D01*
X0Y95D02*
X7Y95D01*
X1562Y95D02*
X1569Y95D01*
X0Y94D02*
X7Y94D01*
X1562Y94D02*
X1569Y94D01*
X0Y93D02*
X7Y93D01*
X1562Y93D02*
X1569Y93D01*
X0Y92D02*
X7Y92D01*
X1562Y92D02*
X1569Y92D01*
X0Y91D02*
X7Y91D01*
X1562Y91D02*
X1569Y91D01*
X0Y90D02*
X7Y90D01*
X1562Y90D02*
X1569Y90D01*
X0Y89D02*
X7Y89D01*
X1562Y89D02*
X1569Y89D01*
X0Y88D02*
X7Y88D01*
X1562Y88D02*
X1569Y88D01*
X0Y87D02*
X7Y87D01*
X1562Y87D02*
X1569Y87D01*
X0Y86D02*
X7Y86D01*
X1562Y86D02*
X1569Y86D01*
X0Y85D02*
X7Y85D01*
X1562Y85D02*
X1569Y85D01*
X0Y84D02*
X7Y84D01*
X1562Y84D02*
X1569Y84D01*
X0Y83D02*
X7Y83D01*
X1562Y83D02*
X1569Y83D01*
X0Y82D02*
X7Y82D01*
X1562Y82D02*
X1569Y82D01*
X0Y81D02*
X7Y81D01*
X1562Y81D02*
X1569Y81D01*
X0Y80D02*
X7Y80D01*
X1562Y80D02*
X1569Y80D01*
X0Y79D02*
X7Y79D01*
X1562Y79D02*
X1569Y79D01*
X0Y78D02*
X7Y78D01*
X1562Y78D02*
X1569Y78D01*
X0Y77D02*
X7Y77D01*
X1562Y77D02*
X1569Y77D01*
X0Y76D02*
X7Y76D01*
X1562Y76D02*
X1569Y76D01*
X0Y75D02*
X7Y75D01*
X1562Y75D02*
X1569Y75D01*
X0Y74D02*
X7Y74D01*
X1562Y74D02*
X1569Y74D01*
X0Y73D02*
X7Y73D01*
X1562Y73D02*
X1569Y73D01*
X0Y72D02*
X7Y72D01*
X1562Y72D02*
X1569Y72D01*
X0Y71D02*
X7Y71D01*
X1562Y71D02*
X1569Y71D01*
X0Y70D02*
X7Y70D01*
X1562Y70D02*
X1569Y70D01*
X0Y69D02*
X7Y69D01*
X1562Y69D02*
X1569Y69D01*
X0Y68D02*
X7Y68D01*
X1562Y68D02*
X1569Y68D01*
X0Y67D02*
X7Y67D01*
X1562Y67D02*
X1569Y67D01*
X0Y66D02*
X7Y66D01*
X1562Y66D02*
X1569Y66D01*
X0Y65D02*
X7Y65D01*
X1562Y65D02*
X1569Y65D01*
X0Y64D02*
X7Y64D01*
X1562Y64D02*
X1569Y64D01*
X0Y63D02*
X7Y63D01*
X1562Y63D02*
X1569Y63D01*
X0Y62D02*
X7Y62D01*
X1562Y62D02*
X1569Y62D01*
X0Y61D02*
X7Y61D01*
X1562Y61D02*
X1569Y61D01*
X0Y60D02*
X7Y60D01*
X1562Y60D02*
X1569Y60D01*
X0Y59D02*
X7Y59D01*
X1562Y59D02*
X1569Y59D01*
X0Y58D02*
X7Y58D01*
X1562Y58D02*
X1569Y58D01*
X1Y57D02*
X8Y57D01*
X1561Y57D02*
X1569Y57D01*
X1Y56D02*
X8Y56D01*
X12Y56D02*
X13Y56D01*
X1561Y56D02*
X1568Y56D01*
X1Y55D02*
X8Y55D01*
X11Y55D02*
X14Y55D01*
X1561Y55D02*
X1568Y55D01*
X1Y54D02*
X8Y54D01*
X10Y54D02*
X15Y54D01*
X1561Y54D02*
X1568Y54D01*
X1Y53D02*
X8Y53D01*
X10Y53D02*
X16Y53D01*
X1561Y53D02*
X1568Y53D01*
X1Y52D02*
X8Y52D01*
X11Y52D02*
X17Y52D01*
X1561Y52D02*
X1568Y52D01*
X2Y51D02*
X9Y51D01*
X12Y51D02*
X18Y51D01*
X1560Y51D02*
X1567Y51D01*
X2Y50D02*
X9Y50D01*
X13Y50D02*
X19Y50D01*
X1560Y50D02*
X1567Y50D01*
X2Y49D02*
X9Y49D01*
X14Y49D02*
X20Y49D01*
X1560Y49D02*
X1567Y49D01*
X2Y48D02*
X10Y48D01*
X15Y48D02*
X21Y48D01*
X1560Y48D02*
X1567Y48D01*
X3Y47D02*
X10Y47D01*
X16Y47D02*
X22Y47D01*
X1559Y47D02*
X1566Y47D01*
X3Y46D02*
X10Y46D01*
X17Y46D02*
X23Y46D01*
X1559Y46D02*
X1566Y46D01*
X3Y45D02*
X11Y45D01*
X18Y45D02*
X24Y45D01*
X1558Y45D02*
X1566Y45D01*
X4Y44D02*
X11Y44D01*
X19Y44D02*
X25Y44D01*
X1558Y44D02*
X1565Y44D01*
X4Y43D02*
X11Y43D01*
X20Y43D02*
X26Y43D01*
X1558Y43D02*
X1565Y43D01*
X4Y42D02*
X12Y42D01*
X21Y42D02*
X27Y42D01*
X1557Y42D02*
X1565Y42D01*
X5Y41D02*
X12Y41D01*
X22Y41D02*
X27Y41D01*
X1557Y41D02*
X1564Y41D01*
X5Y40D02*
X13Y40D01*
X23Y40D02*
X28Y40D01*
X1556Y40D02*
X1564Y40D01*
X6Y39D02*
X13Y39D01*
X24Y39D02*
X29Y39D01*
X1556Y39D02*
X1564Y39D01*
X6Y38D02*
X14Y38D01*
X25Y38D02*
X30Y38D01*
X1555Y38D02*
X1563Y38D01*
X7Y37D02*
X14Y37D01*
X26Y37D02*
X31Y37D01*
X1555Y37D02*
X1563Y37D01*
X7Y36D02*
X15Y36D01*
X27Y36D02*
X33Y36D01*
X1554Y36D02*
X1562Y36D01*
X8Y35D02*
X16Y35D01*
X28Y35D02*
X34Y35D01*
X1553Y35D02*
X1562Y35D01*
X8Y34D02*
X16Y34D01*
X29Y34D02*
X35Y34D01*
X1553Y34D02*
X1561Y34D01*
X9Y33D02*
X17Y33D01*
X30Y33D02*
X36Y33D01*
X1552Y33D02*
X1560Y33D01*
X9Y32D02*
X18Y32D01*
X31Y32D02*
X37Y32D01*
X1551Y32D02*
X1560Y32D01*
X10Y31D02*
X19Y31D01*
X32Y31D02*
X38Y31D01*
X1551Y31D02*
X1559Y31D01*
X10Y30D02*
X19Y30D01*
X33Y30D02*
X39Y30D01*
X1550Y30D02*
X1559Y30D01*
X11Y29D02*
X20Y29D01*
X34Y29D02*
X40Y29D01*
X1549Y29D02*
X1558Y29D01*
X12Y28D02*
X21Y28D01*
X35Y28D02*
X41Y28D01*
X1548Y28D02*
X1557Y28D01*
X13Y27D02*
X22Y27D01*
X36Y27D02*
X42Y27D01*
X1547Y27D02*
X1557Y27D01*
X13Y26D02*
X23Y26D01*
X37Y26D02*
X43Y26D01*
X1546Y26D02*
X1556Y26D01*
X14Y25D02*
X24Y25D01*
X38Y25D02*
X44Y25D01*
X1545Y25D02*
X1555Y25D01*
X15Y24D02*
X25Y24D01*
X39Y24D02*
X45Y24D01*
X1544Y24D02*
X1554Y24D01*
X16Y23D02*
X26Y23D01*
X40Y23D02*
X46Y23D01*
X1543Y23D02*
X1553Y23D01*
X17Y22D02*
X27Y22D01*
X41Y22D02*
X47Y22D01*
X1542Y22D02*
X1552Y22D01*
X18Y21D02*
X29Y21D01*
X42Y21D02*
X46Y21D01*
X1541Y21D02*
X1551Y21D01*
X19Y20D02*
X30Y20D01*
X43Y20D02*
X45Y20D01*
X1539Y20D02*
X1551Y20D01*
X20Y19D02*
X31Y19D01*
X44Y19D02*
X44Y19D01*
X1538Y19D02*
X1549Y19D01*
X21Y18D02*
X33Y18D01*
X1536Y18D02*
X1548Y18D01*
X22Y17D02*
X34Y17D01*
X1535Y17D02*
X1547Y17D01*
X23Y16D02*
X36Y16D01*
X1533Y16D02*
X1546Y16D01*
X24Y15D02*
X38Y15D01*
X1531Y15D02*
X1545Y15D01*
X26Y14D02*
X40Y14D01*
X1529Y14D02*
X1543Y14D01*
X27Y13D02*
X43Y13D01*
X1526Y13D02*
X1542Y13D01*
X29Y12D02*
X46Y12D01*
X1524Y12D02*
X1541Y12D01*
X30Y11D02*
X50Y11D01*
X1520Y11D02*
X1539Y11D01*
X32Y10D02*
X56Y10D01*
X1514Y10D02*
X1537Y10D01*
X34Y9D02*
X1536Y9D01*
X36Y8D02*
X1534Y8D01*
X38Y7D02*
X1531Y7D01*
X40Y6D02*
X1529Y6D01*
X43Y5D02*
X1526Y5D01*
X46Y4D02*
X1523Y4D01*
X50Y3D02*
X1519Y3D01*
X56Y2D02*
X1513Y2D01*
D02*
G04 End of Silk1*
M02*