; NON-PLATED HOLES START AT T1
; THROUGH (PLATED) HOLES START AT T100
M48
INCH
T100C0.038000
%
T100
X006087Y001747
X006949Y005942
X000865Y004831
X005949Y005942
X000865Y011831
X005949Y004942
X000865Y005831
X008921Y009803
X000865Y000831
X001921Y003803
X004949Y005942
X001921Y002803
X000865Y002831
X008921Y013803
X006476Y010747
X000865Y014831
X000865Y006831
X008921Y007803
X006949Y004942
X002899Y004938
X008921Y010803
X008921Y012803
X008921Y003803
X000865Y003831
X001921Y001803
X003476Y011747
X000865Y008831
X000865Y001831
X000865Y009831
X006949Y003858
X006476Y011747
X002899Y005938
X005476Y011747
X008921Y008803
X003949Y005942
X004476Y011747
X004949Y004942
X008921Y004803
X007921Y000803
X008921Y000803
X008921Y011803
X000865Y013831
X008921Y001803
X003949Y004942
X000865Y012831
X008921Y005803
X008921Y002803
X005476Y010747
X008921Y014803
X004476Y010747
X003476Y010747
X008921Y006803
X001921Y000803
X000865Y010831
X000865Y007831
T00
M30
